<svg width="567" height="522" fill="none" xmlns="http://www.w3.org/2000/svg"><g clip-path="url(#clip0_161_1906)"><path d="M261.841 81.351c28.015-5.644 91.673-6.775 147.726 16.534 75.605 31.453 82.829 128.962 80.26 138.659-12.604 47.107-35.872 48.858-34.886 82.078 1.613 54.624 65.141 70.981 65.592 117.63.481 50.219-121.737 76.265-137.177 77.611-87.24 7.594-148.505 16.059-242.999-26.169-26.234-11.73-76.255-31.353-78.946-64.16-4.235-51.573 65.531-72.473 61.151-130.125-2.584-34.137-27.732-35.942-30.866-67.869-6.084-62.134 82.225-126.363 170.145-144.189z" fill="#CCE8EF"/><path d="M432.544 32.722c22.167.765 42.714 3.824 62.053 12.947 47.889 22.552 63.972 71.8 38.495 118.257-11.298 20.609-27.518 36.829-45.757 51.236-12.75 10.049-24.46 20.954-28.205 37.747-2.026 9.177-2.378 18.461-2.347 27.821 0 10.981-4.755 17.497-15.341 20.464-8.034 2.248-16.259 2.982-24.591 1.292-11.381-2.294-17.443-7.433-18.819-18.636-4.709-38.366 4.235-71.968 35.567-97.273 8.867-7.165 17.902-14.14 26.417-21.703 8.63-7.647 15.196-16.77 17.681-28.509 3.332-15.669-2.737-30.046-17.283-36.905-18.208-8.58-37.012-8.695-55.663-1.17-10.915 4.405-17.084 13.925-23.276 23.224-5.794 8.703-13.514 13.612-24.223 11.907-11.955-1.889-21.456-7.54-25.928-19.477-2.943-7.846-2.11-15.769.52-23.57 7.957-23.568 25.431-37.608 47.292-47.244 17.383-7.632 35.774-9.88 53.408-10.408zm-6.52 313.873a40.598 40.598 0 0128.743 11.584 40.631 40.631 0 0112.205 28.496c.298 21.832-18.414 40.821-40.337 40.928-22.167.114-40.199-18.132-40.153-40.707.046-22.452 17.489-40.232 39.542-40.301z" fill="#E4F2F7" stroke="#fff" stroke-width="10.36" stroke-miterlimit="10"/><path d="M480.54 280.791a6.28 6.28 0 01-.39.405v.039c-.097.09-.202.171-.313.244a.178.178 0 01-.061.077c0 .046-.054 0-.107.069-.298.153.619-.666.871-.834zm-15.937 17.535c-.13.199-.314.421-.451.658.132-.231.283-.451.451-.658zm-.62.925c0 .085-.068.123-.084.207h-.045a.686.686 0 01.129-.207z" fill="#E52327"/><path d="M463.885 299.458a.12.12 0 00-.062.077v-.085l.062.008z" fill="#E52327"/><path d="M493.947 153.824h-.045c0-.046 0-.092-.1-.153v-.046a.748.748 0 01.145.199z" fill="#fff"/><path d="M455.308 317.995a9.935 9.935 0 00-.276 1.132c-.068.122-.091.206-.145.282.031-.168.268-.871.421-1.414z" fill="#E52327"/><path d="M488.444 147.347a.15.15 0 01-.077-.061c0 .046.046 0 .046 0s.031.023.031.061z" fill="#fff"/><path d="M81.086 337.778c1.437-1.437 21.556-22.001 15.288-42.717-6.344-20.923-36.492-31.698-59.316-24.471-26.211 8.289-44.702 40.897-33.924 62.447 9.058 18.109 36.048 22.942 54.623 18.162a52.105 52.105 0 0023.33-13.421zm-34.321 59.71c3.486-13.482 5.229-20.227 3.058-23.256-5.489-7.784-29.116-7.93-38.029 6.378-5.885 9.429-4.51 23.814 4.403 31.354 6.299 5.307 16.817 7.571 23.245 3.059 1.254-.88 3.517-2.837 7.323-17.535zm511.238-75.463c14.906 11.899 10.755 45.501-8.293 58.119-9.288 6.118-24.254 8.679-35.254 1.032-13.828-9.612-14.951-30.864-7.254-44.598 10.38-18.598 37.753-24.953 50.801-14.553z" fill="#CCE8EF"/><path d="M205.452 244.444a11.351 11.351 0 009.829-7.906 11.353 11.353 0 00-3.538-12.111 11.352 11.352 0 00-12.538-1.365 11.36 11.36 0 001.843 20.903c1.423.447 2.919.61 4.404.479zm-47.346-23.378a15.1 15.1 0 0013.163-19.281 15.102 15.102 0 00-12.857-10.778 15.085 15.085 0 00-14.873 7.758 15.106 15.106 0 00-1.799 8.582 15.112 15.112 0 005.345 10.248 15.099 15.099 0 0011.021 3.471z" fill="#BFDDEA"/><path d="M282.632 48.04c5.129 33.495-35.398 67.502-90.526 75.952-55.128 8.45-103.957-11.861-109.109-45.363-5.152-33.503 35.407-67.502 90.519-75.952 55.112-8.45 103.957 11.853 109.116 45.363z" fill="#fff"/><path fill-rule="evenodd" clip-rule="evenodd" d="M246.423 10.546c-19.55-8.127-45.35-11.083-72.755-6.881-27.406 4.202-51.145 14.751-67.368 28.36-16.239 13.62-24.817 30.178-22.314 46.452 2.502 16.274 15.643 29.506 35.209 37.642 19.546 8.128 45.346 11.087 72.759 6.885 27.414-4.202 51.149-14.753 67.369-28.362 16.235-13.623 24.812-30.18 22.321-46.45-2.507-16.279-15.653-29.51-35.221-37.646zm.767-1.846c19.922 8.281 33.778 21.956 36.431 39.188 2.638 17.225-6.485 34.418-23.013 48.286-16.544 13.881-40.636 24.558-68.351 28.807-27.714 4.248-53.892 1.276-73.83-7.015-19.919-8.282-33.769-21.957-36.418-39.185-2.65-17.23 6.475-34.423 23.006-48.29 16.547-13.88 40.643-24.555 68.35-28.803C201.071-2.56 227.25.41 247.19 8.7z" fill="#1D1D1B"/><path d="M154.521 152.256a20.502 20.502 0 01-2.434 11.648 20.48 20.48 0 01-20.182 10.531 20.485 20.485 0 01-17.441-14.633 20.492 20.492 0 016.85-21.717 20.471 20.471 0 0125.968.286 20.49 20.49 0 017.239 13.885z" fill="#fff"/><path fill-rule="evenodd" clip-rule="evenodd" d="M146.639 139.137a19.478 19.478 0 00-14.199-4.483 19.482 19.482 0 00-16.892 13.55 19.492 19.492 0 0016.465 25.237 19.477 19.477 0 0019.197-10.017 19.497 19.497 0 00-4.571-24.287zm-14.372-6.475a21.472 21.472 0 0115.658 4.943 21.49 21.49 0 01-3.869 35.515 21.468 21.468 0 01-23.734-2.588 21.488 21.488 0 01-6.681-22.929 21.481 21.481 0 0118.626-14.941z" fill="#1D1D1B"/><path d="M171.819 204.686a15.11 15.11 0 01-8.053 14.722 15.085 15.085 0 01-16.677-1.81 15.097 15.097 0 01-4.797-7.339 15.11 15.11 0 015.03-16.011 15.093 15.093 0 018.132-3.274 15.11 15.11 0 0116.365 13.712z" fill="#fff"/><path fill-rule="evenodd" clip-rule="evenodd" d="M155.542 191.97a14.098 14.098 0 0110.288 3.239l-10.288-3.239zm-.176-1.992a16.1 16.1 0 0111.748 3.698 16.104 16.104 0 01-2.885 26.619 16.09 16.09 0 01-22.897-9.756 16.11 16.11 0 015.363-17.07 16.094 16.094 0 018.671-3.491zm.175 1.992a14.103 14.103 0 00-.28 28.07 14.084 14.084 0 008.042-1.518 14.107 14.107 0 007.52-13.748 14.113 14.113 0 00-4.993-9.565" fill="#1D1D1B"/><path d="M215.764 232.132a11.362 11.362 0 01-6.054 11.07 11.342 11.342 0 01-12.54-1.36 11.355 11.355 0 01-3.542-12.111 11.354 11.354 0 019.829-7.908 11.35 11.35 0 0112.307 10.309z" fill="#fff"/><path fill-rule="evenodd" clip-rule="evenodd" d="M211.102 225.195a10.349 10.349 0 00-16.52 4.836 10.36 10.36 0 003.23 11.045 10.35 10.35 0 0016.956-8.856 10.363 10.363 0 00-3.666-7.025zm-7.733-4.368a12.347 12.347 0 019.017 2.834 12.364 12.364 0 012.907 15.404 12.342 12.342 0 01-12.167 6.354 12.355 12.355 0 01-10.452-15.987 12.355 12.355 0 0110.695-8.605z" fill="#1D1D1B"/><path d="M405.126 511.164l-1.292.329-.146-1.339-.634-5.605-2.293-21.733-4.487-43.475-4.258-43.497-2.041-21.757-1.528-17.42-.092-.994 1.636.153h.183l-.069 1.009 1.85 17.046 2.247 21.733 4.335 43.49 4.097 43.513 1.964 21.764.466 5.445.062 1.338zm2.614-336.738l-.145-.084-.184-.085a.772.772 0 01.329.169zm-42.034 49.86a3.133 3.133 0 01-.451-.903c.133.309.284.61.451.903z" fill="#211F21"/><path d="M480.143 275.124a79.108 79.108 0 00-1.093-8.457 68.295 68.295 0 00-5.29-16.19 97.036 97.036 0 00-8.554-14.636c-3.233-4.635-6.734-9.047-10.288-13.383-7.147-8.718-15.127-16.648-22.993-24.594-1.964-2.018-4.013-3.946-6.031-5.873l-6.115-5.781-6.062-5.789c-1.46-1.415-2.943-2.845-4.349-4.282a.952.952 0 00-.077-.161 3.818 3.818 0 00-1.566-1.529l-.146-.085-.183-.084a5.265 5.265 0 00-1.972-.451 11.076 11.076 0 00-2.041.176 21.966 21.966 0 00-7.201 2.944 57.452 57.452 0 00-3.21 2.08c-1.04.719-2.095 1.438-3.096 2.218s-1.987 1.583-2.973 2.378l-1.3 1.056a211.664 211.664 0 00-5.198-3.419 146.392 146.392 0 00-6.077-3.647l-.107-.108-2.239-2.37c-2.561-2.692-5.175-5.353-7.965-7.854a58.63 58.63 0 00-9.02-6.798 43.183 43.183 0 00-2.492-1.361l-.122-.062a34.065 34.065 0 00-1.284-.581 30.016 30.016 0 01-.474-2.126 14.215 14.215 0 01-.245-3.823 9.448 9.448 0 01.329-1.805c.194-.579.45-1.136.764-1.66.68-1.139 1.391-2.294 2.056-3.502a35.918 35.918 0 003.287-7.586c.073-.249.114-.506.123-.765a1.607 1.607 0 00-.39-1.078 1.78 1.78 0 00-.856-.543 2.787 2.787 0 00-.765-.107 3.605 3.605 0 00-.672.061c-.184 0-.375.069-.558.122-.37.096-.732.216-1.086.36a10.132 10.132 0 00-3.585 2.585 18.973 18.973 0 00-1.529 1.942c.039-1.904 0-3.824-.137-5.712a72.841 72.841 0 00-.642-5.797c-.161-.971-.314-1.904-.52-2.891-.215-1-.522-1.978-.917-2.921a12.6 12.6 0 00-.681-1.415 5.356 5.356 0 00-1.131-1.407 3.414 3.414 0 00-1.919-.765 3.829 3.829 0 00-1.964.375 5.154 5.154 0 00-2.431 2.638 9.098 9.098 0 00-.672 3.197c.012 1.026.112 2.05.298 3.059.16.971.351 1.927.558 2.875.153.704.321 1.4.489 2.096a44.63 44.63 0 00-1.835-1.53 45.234 45.234 0 00-5.068-3.495 93.897 93.897 0 00-5.396-2.852 58.112 58.112 0 00-5.634-2.386 94.805 94.805 0 00-11.68-3.326c-3.89-.903-7.812-1.767-11.634-2.815-3.821-1.047-7.727-2.294-11.878-2.676a21.5 21.5 0 00-3.149-.084c-.53.021-1.058.07-1.583.145a3.909 3.909 0 00-.955.214 2.125 2.125 0 00-1.078.872 2.216 2.216 0 00-.29 1.33c.044.362.142.715.29 1.048.253.56.594 1.077 1.009 1.53a9.492 9.492 0 002.683 1.965c.42.222.849.428 1.261.619-1.528.13-3.111.245-4.693.406-2.031.182-4.05.48-6.046.894a28.867 28.867 0 00-5.894 1.905 60.62 60.62 0 00-10.701 5.827 35.352 35.352 0 00-8.814 8.542 29.661 29.661 0 00-3.057 5.422 21.957 21.957 0 00-1.689 6.018 21.15 21.15 0 002.293 12.174 22.51 22.51 0 003.218 4.772c-.138.245-.26.497-.382.765-.357.758-.661 1.54-.91 2.34a18.544 18.544 0 00-.696 3.151 23.51 23.51 0 00-.198 3.204 10.89 10.89 0 001.834 6.309c.23.319.485.618.765.895l-.383 9.291c-.032.66.064 1.319.283 1.942l-.137.681a55.509 55.509 0 00-.948 14.033 30.436 30.436 0 004.02 13.673 25.73 25.73 0 0010.702 9.528 29.987 29.987 0 006.795 2.34c1.164.262 2.34.464 3.524.605 1.185.122 2.37.206 3.555.229 1.421.038 2.835 0 4.25-.1a.553.553 0 000 .115l-.1.038c-5.656 2.142-11.259 4.428-16.717 7.112a100.823 100.823 0 00-8.217 4.505c-.681.405-1.33.833-1.995 1.254a5.138 5.138 0 00-1.972 2.011c-.171.354-.295.73-.367 1.116-4.992 3.449-9.762 7.258-14.478 11.066a593.053 593.053 0 00-15.547 13c-14.325 12.504-27.709 26.322-38.571 41.976-10.32 14.866-18.3 31.583-21.403 49.516-3.295 19.225.588 38.351 7.101 56.482a396.17 396.17 0 0010.197 25.511 181.955 181.955 0 0012.054 23.057 157.94 157.94 0 003.822 5.789c.082.12.186.224.306.306 1.834 3 4.415 5.471 7.491 7.173a22.93 22.93 0 007.59 2.516h.168v8.312l.062 6.324c0 1.691 0 3.381.076 5.071 0 .42 0 .841.038 1.261v.91l1.712.406c1.086.267 2.179.52 3.28.764 1.689.375 3.386.765 5.083 1.094l2.553.52 2.561.482c7.949 1.468 15.96 2.592 23.986 3.487l1.468.161a486.884 486.884 0 0015.815 1.468c6.91.51 13.823.93 20.738 1.262l1.842.084 1.46.076 1.888.092 5.198.138h1.185c.596 0 1.184 0 1.781.046 2.476.076 4.945.152 7.414.129h5.198c1.735 0 3.47 0 5.198-.038l10.396-.237 10.38-.512c1.727-.077 3.455-.222 5.182-.36l5.183-.405a365.574 365.574 0 0041.216-5.712 313.024 313.024 0 0014.026-3.151l-.145-1.338-.634-5.606-2.293-21.733-4.487-43.475-4.258-43.497-2.041-21.757-1.529-17.42-.092-.994 1.636.153h.184l-.069 1.009a92.54 92.54 0 0028.657-1.644 85.08 85.08 0 0030.835-13.566 73.174 73.174 0 0022.366-25.236 65.51 65.51 0 003.455-7.8c.535-1.315.948-2.677 1.407-4.03a38.557 38.557 0 001.123-4.114 81.6 81.6 0 001.56-8.336c.4-2.809.655-5.637.764-8.473a81.132 81.132 0 00-.16-8.527zm-85.918-15.745c-2.201-1.293-4.471-2.44-6.764-3.533-2.294-1.094-4.633-2.088-6.964-3.059-4.67-1.92-9.379-3.77-14.195-5.353-2.912-.971-5.87-1.874-8.859-2.623a3.077 3.077 0 00-.367-.092.09.09 0 00-.025-.033.1.1 0 00-.036-.021 21.73 21.73 0 00-4.808-2.47 44.814 44.814 0 00-5.076-1.59c-3.424-.857-6.879-1.438-10.265-2.149-3.386-.711-6.88-1.224-10.381-1.629a139.727 139.727 0 00-5.228-.497l-2.614-.161-1.315-.061h-.283a1.828 1.828 0 00-.405 0c.069-.887.138-1.759.237-2.638 0-.283.054-.558.092-.841l.535-4.589c0-.198.046-.397.061-.596.289.178.593.329.91.451.682.267 1.42.362 2.147.275a3.974 3.974 0 001.942-.826 8.023 8.023 0 001.437-1.445c.279-.378.51-.789.688-1.223.061-.146.115-.283.161-.429a7.178 7.178 0 001.345 1.637 6.282 6.282 0 002.392 1.269 5.87 5.87 0 002.729.092 6.016 6.016 0 002.469-1.147 9.752 9.752 0 003.012-4.122c.599-1.557.907-3.211.91-4.879a44.205 44.205 0 00-.283-4.756c-.061-.704-.123-1.415-.199-2.126a.513.513 0 00.199-.299c.26-1.078.565-2.148.909-3.204a70.743 70.743 0 011.116-3.15 18.277 18.277 0 006.544 2.11c1.405.141 2.823.082 4.211-.176a22.483 22.483 0 003.922-1.139c1.979-.765 3.822-1.652 5.733-2.455 1.083.048 2.16.194 3.218.436 1.357.304 2.69.705 3.99 1.201a47.727 47.727 0 014.059 1.72c-.528.765-1.009 1.621-1.468 2.455a41.719 41.719 0 00-2.966 7.058 52.276 52.276 0 00-1.032 3.694 78.536 78.536 0 00-.435 1.866 6.147 6.147 0 00-.153 2.111c.028.301.089.599.183.887v.038c.133.309.284.61.451.902.01.025.023.048.038.069.52.859 1.097 1.682 1.728 2.462l2.484 3.274 5.014 6.515a300.742 300.742 0 0010.434 12.694c1.812 2.057 3.624 4.115 5.458 6.118 1.322 1.43 2.637 2.868 3.975 4.298l-.612-.321z" fill="#211F21"/><path d="M480.265 284.102a82.506 82.506 0 01-.765 8.481 80.017 80.017 0 01-1.589 8.351c-.306 1.392-.765 2.745-1.124 4.114-.359 1.369-.871 2.715-1.399 4.03a65.466 65.466 0 01-3.516 7.762 73.093 73.093 0 01-22.358 25.236 85.051 85.051 0 01-30.836 13.574 92.615 92.615 0 01-28.664 1.636l.068-1.009c9.48.767 19.021.058 28.283-2.103a83.252 83.252 0 0030.071-13.635 71.805 71.805 0 0021.594-24.708 64.617 64.617 0 003.355-7.548c.513-1.277.895-2.6 1.338-3.908.443-1.308.764-2.638 1.063-3.984a79.594 79.594 0 001.528-8.144 80.58 80.58 0 00.719-8.252 76.643 76.643 0 00-.138-8.274 77.507 77.507 0 00-1.055-8.19 65.752 65.752 0 00-5.121-15.654 99.534 99.534 0 00-8.347-14.331c-3.157-4.588-6.597-8.955-10.113-13.291-7.017-8.641-14.898-16.572-22.664-24.639-1.926-2.004-3.944-3.923-5.955-5.873l-6.054-5.812-6.046-5.835c-.948-.941-1.903-1.874-2.843-2.822a9.69 9.69 0 01-.383 1.529c-.214.635-.428 1.209-.649 1.82a84.128 84.128 0 01-1.422 3.556 105.734 105.734 0 01-3.256 6.929 123.142 123.142 0 01-2.11 3.877c-.222.398-.451.765-.68 1.185l-.956 1.614c-1.33 2.179-2.729 4.343-4.28 6.401a67.675 67.675 0 01-8.019 8.84l-.436.397a61.965 61.965 0 01-2.193 1.866 57.646 57.646 0 01-13.117 8.045c-.622.278-1.266.5-1.927.666a5.734 5.734 0 01-2.186.16 2.62 2.62 0 01-.412-.076 12.98 12.98 0 00-2.424-2.294 4.273 4.273 0 01-.191-.888 6.172 6.172 0 01.161-2.11 61.043 61.043 0 011.46-5.56 42.658 42.658 0 012.966-7.058c.458-.834.94-1.66 1.467-2.455l.375.176a30.465 30.465 0 00-1.284 2.554 43.88 43.88 0 00-2.469 7.089 58.637 58.637 0 00-.826 3.663 51.705 51.705 0 00-.336 1.843 4.94 4.94 0 00-.061 1.667 1.947 1.947 0 001.773 1.828 6.469 6.469 0 003.188-.818 59.723 59.723 0 0014.11-9.491l.803-.833.046.053a64.21 64.21 0 007.735-8.633 80.82 80.82 0 005.038-7.594 41.049 41.049 0 01-2.676-1.422c-3.118-1.782-6.054-3.824-8.935-5.85-2.882-2.027-5.779-4.122-8.523-6.378a93.663 93.663 0 01-1.651-1.369 80.112 80.112 0 01-4.197-3.304l1.024-.971.1.107a124.569 124.569 0 016.077 3.648 183.228 183.228 0 015.197 3.418l1.308-1.063c.978-.765 1.964-1.59 2.965-2.37a50.205 50.205 0 013.096-2.218c1.04-.688 2.11-1.43 3.211-2.088a22.154 22.154 0 017.2-2.936 10.427 10.427 0 012.049-.176 5.202 5.202 0 011.964.451l.184.084.152.084a3.816 3.816 0 011.529 1.53c.03.051.056.105.077.16 1.414 1.446 2.889 2.868 4.357 4.29l6.061 5.789 6.115 5.782c2.026 1.927 4.075 3.823 6.039 5.873 7.866 7.945 15.846 15.868 22.993 24.593 3.554 4.336 7.055 8.741 10.281 13.375a97.91 97.91 0 018.561 14.645 68.268 68.268 0 015.282 16.189 76.718 76.718 0 011.093 8.45c.194 2.848.237 5.704.13 8.557zm-72.281-105.493a2.447 2.447 0 00-.099-1.124l-1.208-1.301a3.925 3.925 0 00-1.345-.351c-.577-.02-1.155.006-1.728.076a21.254 21.254 0 00-6.879 2.455 60.143 60.143 0 00-3.272 1.851c-1.077.65-2.155 1.292-3.21 1.996-1.055.703-2.079 1.414-3.126 2.133l-1.338.902c1.152.791 2.303 1.596 3.455 2.417 2.874 2.095 5.656 4.252 8.477 6.347a78.225 78.225 0 002.37 1.744 226 226 0 002.01-3.617 106.017 106.017 0 003.34-6.73 111.557 111.557 0 001.468-3.457 13.922 13.922 0 001.085-3.341z" fill="#211F21"/><path d="M478.01 284.026a80.536 80.536 0 01-.719 8.251 79.492 79.492 0 01-1.528 8.144c-.291 1.346-.704 2.654-1.063 3.985-.359 1.33-.825 2.63-1.338 3.907a64.617 64.617 0 01-3.355 7.548 71.78 71.78 0 01-21.602 24.708 83.228 83.228 0 01-30.071 13.635 91.833 91.833 0 01-28.282 2.103h-.176l-1.636-.153.084.995 1.529 17.42 2.049 21.756 4.25 43.498 4.555 43.482 2.294 21.733.626 5.606a295.375 295.375 0 01-14.171 2.975 409.131 409.131 0 01-82.371 6.607c-2.576 0-5.152-.077-7.72-.153-.13-1.025-.245-2.05-.359-3.059-.765-6.118-1.33-12.236-1.911-18.353l-.321-3.457c-.046-.566-.1-1.124-.146-1.682 0-.199-.046-.398-.061-.597l-.069-.765v-.305l-.091-.995a993.091 993.091 0 01-1.101-13.665c0-.321-.046-.658-.069-.994l-.084-1.17c0-.26 0-.52-.053-.765a98.635 98.635 0 01-.107-1.667c-.25-3.569-.474-7.155-.673-10.76a833.628 833.628 0 01-1.322-36.951 754.84 754.84 0 01-.046-11.058l.917-3.877a38.38 38.38 0 011.353-5.805c.581-1.927 1.246-3.823 1.957-5.735 1.421-3.824 3.004-7.548 4.655-11.272a347.837 347.837 0 013.975-8.687 67.124 67.124 0 002.102 8.916 65.614 65.614 0 006.833 14.951 107.439 107.439 0 003.899 5.888c-.765.818-1.583 1.621-2.393 2.417a149.826 149.826 0 01-4.257 3.976 2.909 2.909 0 00-3.41.383l-3.256 2.997a2.923 2.923 0 00-.168 4.115l.122.137a2.913 2.913 0 004.105.168l3.264-3.005a2.91 2.91 0 00.665-3.357 153.7 153.7 0 004.212-4.145c.726-.765 1.452-1.529 2.148-2.248a199.4 199.4 0 003.416 4.542 3.018 3.018 0 00.115 3.411l2.523 3.403a3.005 3.005 0 004.823-3.571l-2.523-3.411a3.018 3.018 0 00-3.393-1.048 129.665 129.665 0 01-3.715-4.687c.764-.803 1.444-1.614 2.14-2.447a65.584 65.584 0 009.012-13.765 66.837 66.837 0 005.29-15.54 63.216 63.216 0 001.161-8.136c.123-1.446.199-2.899.207-4.352l1.024.046c-.13-3.28-.382-6.66-.764-9.979l17.397-1.048a5.477 5.477 0 004.898-3.732 5.478 5.478 0 00.269-2.149l-.596-9.941a5.475 5.475 0 00-5.786-5.139l-21.372 1.315a17.128 17.128 0 00-4.013-5.468 224.823 224.823 0 013.684-7.241c.948-1.82 1.903-3.541 2.989-5.254 1.085-1.713 2.209-3.403 3.325-5.131 1.116-1.729 2.224-3.48 3.218-5.353.489-.918.971-1.859 1.399-2.815.467-.992.834-2.03 1.093-3.097a9.424 9.424 0 00.191-3.441 8.425 8.425 0 00-1.208-3.304 12.09 12.09 0 00-2.209-2.546 22.484 22.484 0 00-2.561-1.943c-1.75-1.17-3.554-2.164-5.243-3.227a17.015 17.015 0 01-4.35-3.732 7.482 7.482 0 01-1.72-4.986c.147-1.874.771-3.68 1.812-5.246 2.01-3.364 4.961-6.117 8.079-8.679 1.567-1.293 3.18-2.531 4.786-3.824l1.2-.971c.39-.321.764-.627 1.162-.925.764-.597 1.62-1.163 2.469-1.729 1.689-1.131 3.432-2.248 5.075-3.555a21.492 21.492 0 002.347-2.157 12.34 12.34 0 001.88-2.638 424.263 424.263 0 018.492 3.364c4.648 1.912 9.28 3.862 13.92 5.812 2.293.995 4.647 1.92 6.925 2.945 2.278 1.024 4.587 2.041 6.796 3.158 1.911.963 3.822 1.996 5.633 3.105a195.223 195.223 0 009.226 8.901 970.796 970.796 0 00-7.911-9.483c-.871-1.047-1.75-2.08-2.622-3.12l-10.571-12.541a692.32 692.32 0 00-10.74-12.396l-5.45-6.118-2.729-3.059a17.731 17.731 0 00-.527-.596c.135.036.273.062.412.076a5.722 5.722 0 002.187-.161 11.63 11.63 0 001.926-.665 57.646 57.646 0 0013.117-8.045 46.988 46.988 0 002.194-1.866l.435-.397a67.572 67.572 0 008.034-8.871c1.529-2.057 2.95-4.221 4.28-6.401l.956-1.613c.229-.39.459-.765.68-1.186a134.078 134.078 0 002.11-3.877 118.214 118.214 0 003.256-6.928 83.86 83.86 0 001.422-3.556c.222-.612.436-1.186.65-1.82.168-.499.296-1.01.382-1.53.94.949 1.896 1.882 2.843 2.822l6.047 5.835 6.054 5.812c2.01 1.95 4.028 3.869 5.954 5.873 7.767 8.068 15.647 15.998 22.664 24.639 3.517 4.336 6.956 8.726 10.113 13.291a99.588 99.588 0 018.347 14.331 65.814 65.814 0 015.122 15.654 77.769 77.769 0 011.055 8.19c.19 2.759.231 5.526.122 8.29z" fill="#E5F3F9"/><path d="M404.988 510.307l.138.857-1.415.329-.045-.865-.627-5.605-2.293-21.733-4.487-43.475-4.25-43.497-2.049-21.757-1.529-17.42-.084-.994 1.636.153h.176l-.069 1.009 1.85 17.053 2.186 21.764 4.334 43.49 4.105 43.513 1.964 21.764.459 5.414zm-108.207 9.705h.81c-.129-.926-.244-1.866-.366-2.792a1009.79 1009.79 0 01-2.141-18.414c-.13-1.201-.244-2.394-.367-3.594l-7.72.229c.061.933.122 1.874.199 2.807.244 3.166.512 6.324.856 9.475.344 3.15.68 6.316 1.024 9.474.1.842.191 1.675.283 2.524l2.247.115 5.175.176zm-2.232-26.46l-.046-.459c0-.29-.061-.588-.084-.887v-.328l-7.598.221h-.963l-5.763.168h-.26a3.494 3.494 0 01-2.293-.971 3.605 3.605 0 01-1.132-2.508l-.244-8.488a3.59 3.59 0 012.119-3.383c.43-.192.895-.298 1.366-.311l13.423-.398c0-.351-.061-.696-.084-1.047l-.069-.91h-.344l-6.558.191h-.604l-8.913.26a3.673 3.673 0 00-3.547 3.762l.352 12.006a3.711 3.711 0 001.146 2.555 3.634 3.634 0 001.988.956c.208.019.418.019.627 0l3.18-.092 5.633-.169h1.078l7.59-.168zm-7.812-2.447l7.552-.222a933.474 933.474 0 01-1.184-13.665l-13.477.397a2.599 2.599 0 00-1.811.819 2.563 2.563 0 00-.703 1.858l.252 8.488a2.574 2.574 0 00.81 1.82c.502.472 1.17.725 1.858.704l5.794-.168.909-.031zm116.287-223.888c1.727 2.07 3.452 4.148 5.174 6.233a195.244 195.244 0 01-9.226-8.902 83.58 83.58 0 00-5.633-3.104 130.042 130.042 0 00-6.796-3.159c-2.308-.994-4.586-1.95-6.925-2.944-4.64-1.95-9.272-3.9-13.92-5.812-2.82-1.147-5.648-2.294-8.492-3.365l.222-.856c2.981.765 5.939 1.652 8.859 2.623 4.808 1.591 9.517 3.433 14.187 5.353 2.339.941 4.663 1.965 6.964 3.059 2.3 1.093 4.586 2.233 6.772 3.533l.604.359c-1.338-1.422-2.652-2.86-3.967-4.297-1.842-2.027-3.654-4.084-5.466-6.118a287.791 287.791 0 01-10.426-12.702l-4.991-6.562-2.492-3.265a21.155 21.155 0 01-1.72-2.462c.062.085.128.166.199.244a3.442 3.442 0 001.72 1.025c.183.199.359.398.527.597l2.729 3.058 5.45 6.118a570.875 570.875 0 0110.74 12.396l10.571 12.542c.872 1.04 1.751 2.072 2.622 3.12s1.804 2.195 2.714 3.288z" fill="#211F21"/><path d="M407.885 177.485c.12.362.154.746.099 1.124a13.952 13.952 0 01-1.1 3.342c-.467 1.162-.963 2.294-1.468 3.456a94.135 94.135 0 01-3.34 6.73 195.927 195.927 0 01-2.011 3.617c-.764-.566-1.582-1.155-2.369-1.744-2.821-2.095-5.603-4.252-8.477-6.347a152.872 152.872 0 00-3.455-2.416l1.337-.903c1.048-.719 2.079-1.438 3.127-2.133a67.908 67.908 0 013.21-1.996c1.093-.643 2.171-1.277 3.272-1.851a21.254 21.254 0 016.879-2.455c.573-.07 1.151-.096 1.728-.076a3.91 3.91 0 011.345.352l1.223 1.3z" fill="#BED1D8"/><path d="M407.725 174.9l-.153-.084-.184-.084a.761.761 0 01.337.168z" fill="#211F21"/><path d="M396.503 195.83c.879.505 1.766.987 2.676 1.423a80.675 80.675 0 01-5.038 7.593 64.219 64.219 0 01-7.735 8.634l-.046-.053a49.46 49.46 0 00-3.417-3.059 42.254 42.254 0 00-7.208-4.895 40.085 40.085 0 00-3.058-1.475l-.198-.085a32.2 32.2 0 00-4.908-1.621 21.269 21.269 0 00-4.387-.566 13.445 13.445 0 00-1.85.1h.076c-.546.002-1.093.035-1.636.099-2.085.305-4.15.736-6.183 1.293-1.23.308-2.475.55-3.731.726a16.711 16.711 0 01-3.653.038 22.436 22.436 0 01-6.116-1.675c.337-.856.681-1.72 1.017-2.584.696-1.782 1.33-3.64 1.926-5.445.597-1.805 1.239-3.625 1.82-5.453a62.726 62.726 0 001.987-7.647 21.743 21.743 0 001.72 1.591l1.529 1.453c.542.489 1.085.963 1.651 1.415a39.94 39.94 0 003.531 2.531 32.32 32.32 0 003.822 2.103 8.66 8.66 0 004.686.764 9.087 9.087 0 004.296-1.758c.305-.238.596-.494.871-.765.145-.115.268-.26.405-.39.143-.128.271-.272.382-.428a3.15 3.15 0 00.505-1.125c.08-.374.103-.758.069-1.139-.222.298-.436.597-.665.849a2.83 2.83 0 01-.765.589c-.532.394-1.089.754-1.666 1.078a8.272 8.272 0 01-3.631 1.086 7.29 7.29 0 01-3.577-.765 44.166 44.166 0 01-3.601-2.011c-1.177-.727-2.293-1.529-3.462-2.294-.558-.406-1.132-.803-1.69-1.231l-1.704-1.262a30.666 30.666 0 01-2.492-1.996c0-.1 0-.199.038-.306.084-.589.153-1.185.199-1.782a27.38 27.38 0 00.053-4.343l.077.091c.259.269.532.524.818.765.37.296.814.486 1.284.551a2.523 2.523 0 002.415-1.277 5.406 5.406 0 00.696-2.226c.082-.705.108-1.416.076-2.126a34.346 34.346 0 00-1.2-8.068l.184.115c.764.497 1.529 1.01 2.293 1.53a104.744 104.744 0 018.485 6.982c2.744 2.462 5.465 4.986 8.263 7.433.764.703 1.605 1.399 2.423 2.087a80.087 80.087 0 004.196 3.304c.543.459 1.093.918 1.651 1.369 2.745 2.256 5.649 4.351 8.523 6.378 2.874 2.026 5.856 4.098 8.974 5.88z" fill="#FAD1C9"/><path d="M386.36 213.426l-.803.834c-1.261-.765-2.492-1.598-3.738-2.394-2.384-1.529-4.762-3.013-7.208-4.336a67.595 67.595 0 00-3.149-1.605l-.375-.176a48.033 48.033 0 00-4.051-1.721 28.377 28.377 0 00-3.998-1.201 17.985 17.985 0 00-3.21-.435l-.069-.528a14.66 14.66 0 011.636-.1h-.076a13.598 13.598 0 011.849-.099c1.479.035 2.949.225 4.388.566 1.677.408 3.318.95 4.907 1.621l.199.084c1.047.444 2.072.941 3.058 1.476a42.346 42.346 0 017.208 4.894 75.354 75.354 0 013.432 3.12z" fill="#211F21"/><path d="M381.819 211.866c1.246.765 2.477 1.606 3.738 2.394a59.698 59.698 0 01-14.11 9.49 6.48 6.48 0 01-3.188.819 1.952 1.952 0 01-1.773-1.828 4.94 4.94 0 01.061-1.667c.099-.612.214-1.231.336-1.843.237-1.231.512-2.455.826-3.663a43.88 43.88 0 012.469-7.089c.397-.872.81-1.729 1.284-2.554 1.055.504 2.11 1.04 3.149 1.605 2.446 1.323 4.824 2.807 7.208 4.336z" fill="#BED1D8"/><path d="M374.221 177.959l-1.024.986a125.682 125.682 0 01-2.423-2.088c-2.798-2.447-5.519-4.97-8.263-7.433a104.992 104.992 0 00-8.485-6.982 57.423 57.423 0 00-2.293-1.529l.635-1.361.107.053c.848.413 1.674.887 2.491 1.362a58.183 58.183 0 019.02 6.798c2.79 2.501 5.404 5.162 7.973 7.854l2.262 2.34zm-3.883 7.502c.034.381.011.765-.068 1.139a3.171 3.171 0 01-.505 1.124c-.111.156-.24.3-.382.428-.138.13-.26.276-.405.39-.276.272-.567.527-.872.765a9.098 9.098 0 01-4.296 1.759 8.65 8.65 0 01-4.685-.765 32.177 32.177 0 01-3.822-2.103 40.104 40.104 0 01-3.532-2.531 35.884 35.884 0 01-1.651-1.415l-1.559-1.483a21.703 21.703 0 01-1.666-1.698 62.596 62.596 0 01-1.988 7.647c-.581 1.828-1.215 3.648-1.819 5.453-.604 1.805-1.231 3.663-1.926 5.445-.337.864-.681 1.728-1.017 2.584l-1.017-.397c.337-.867.665-1.731.986-2.593.681-1.797 1.269-3.563 1.858-5.406.588-1.843 1.208-3.633 1.773-5.453a56.75 56.75 0 002.064-8.626c0-.245.077-.482.099-.726l1.285.168c0 .107 0 .206-.039.306a31.015 31.015 0 002.492 1.996l1.667 1.3c.558.428 1.131.826 1.689 1.231a267.04 267.04 0 003.463 2.294c1.169.765 2.377 1.407 3.6 2.011a7.29 7.29 0 003.577.765 8.272 8.272 0 003.631-1.086 15.788 15.788 0 001.666-1.078c.287-.151.546-.35.765-.589.199-.26.413-.558.634-.856zm-8.783 161.723a5.484 5.484 0 01-5.136 5.789l-17.398 1.048a60.914 60.914 0 00-.198-1.683l17.504-1.047a3.822 3.822 0 003.547-4.007l-.596-9.942a3.826 3.826 0 00-3.998-3.556l-20.692 1.239a25.3 25.3 0 00-.765-1.652l21.35-1.277a5.476 5.476 0 015.786 5.139l.596 9.949zm6.116-121.086a3.449 3.449 0 01-1.72-1.025 3.071 3.071 0 01-.199-.244l-.046-.069a7.55 7.55 0 01-.443-.903.04.04 0 01-.004-.019c0-.006.001-.013.004-.019.896.654 1.705 1.42 2.408 2.279z" fill="#211F21"/><path d="M365.24 223.857c.128.311.276.612.443.903a3.061 3.061 0 01-.443-.903z" fill="#211F21"/><path d="M359.843 347.268a3.821 3.821 0 01-3.547 4.007l-17.504 1.048c-.841-6.416-2.201-12.549-4.235-17.275l20.692-1.239a3.818 3.818 0 012.867 1.094 3.824 3.824 0 011.131 2.462l.596 9.903z" fill="#CCCACB"/><path d="M359.759 201.887l.069.527c-1.919.765-3.761 1.691-5.733 2.448a22.872 22.872 0 01-3.929 1.147 15.248 15.248 0 01-4.212.168 18.345 18.345 0 01-6.543-2.111 67.959 67.959 0 00-1.108 3.159l-1.017-.314a80.094 80.094 0 011.17-3.38c.214-.566.428-1.124.634-1.69l1.017.398a22.473 22.473 0 006.115 1.674c1.216.121 2.441.109 3.654-.038 1.255-.175 2.5-.418 3.73-.726a51.788 51.788 0 016.153-1.262zm-2.331 43.421l-.222.856a12.321 12.321 0 01-1.88 2.639 21.483 21.483 0 01-2.347 2.156c-1.643 1.308-3.386 2.424-5.076 3.556a54.479 54.479 0 00-2.468 1.728c-.406.299-.765.604-1.162.926l-1.2.971c-1.606 1.292-3.219 2.531-4.786 3.823-3.118 2.555-6.069 5.315-8.079 8.68a11.033 11.033 0 00-1.812 5.246 7.484 7.484 0 001.72 4.986 17.015 17.015 0 004.35 3.732c1.689 1.063 3.493 2.057 5.243 3.227a22.592 22.592 0 012.561 1.942 12.096 12.096 0 012.209 2.547 8.425 8.425 0 011.208 3.304 9.447 9.447 0 01-.191 3.441 16.351 16.351 0 01-1.093 3.097 46.03 46.03 0 01-1.399 2.814c-.994 1.843-2.102 3.602-3.218 5.353s-2.248 3.419-3.325 5.132a73.203 73.203 0 00-2.989 5.253 236.535 236.535 0 00-3.685 7.242 8.708 8.708 0 00-1.888-1.254 268.496 268.496 0 013.585-7.036c.482-.91.964-1.804 1.476-2.73a57.325 57.325 0 011.597-2.668c1.101-1.752 2.24-3.449 3.341-5.155 1.1-1.705 2.178-3.418 3.134-5.169.458-.88.917-1.774 1.314-2.669.41-.857.731-1.754.956-2.677a6.436 6.436 0 00-.765-5.054 13.96 13.96 0 00-4.112-3.824c-1.643-1.117-3.409-2.111-5.167-3.243a19.04 19.04 0 01-4.862-4.274 10.708 10.708 0 01-1.574-2.814c-.123-1.576-.26-3.159-.398-4.734a13.71 13.71 0 012.018-5.009c2.24-3.671 5.404-6.538 8.6-9.123 1.605-1.293 3.241-2.524 4.83-3.824l1.185-.956c.398-.321.826-.657 1.254-.956a49.427 49.427 0 012.584-1.736c1.727-1.116 3.455-2.171 5.029-3.38a15.27 15.27 0 003.539-3.617 31.897 31.897 0 00-8.783-3.433c-3.332-.895-6.757-1.53-10.174-2.295a131.947 131.947 0 00-15.402-2.531 98.522 98.522 0 00-2.591-.237l-1.3-.107h-.267l-.26-.39-.122-.13v-.268c.134-.014.27-.014.405 0h.29l1.307.062 2.614.16c1.751.13 3.494.298 5.229.49 3.478.413 6.948.925 10.388 1.636 3.44.711 6.841 1.293 10.266 2.149 1.721.429 3.415.957 5.075 1.583a21.868 21.868 0 014.808 2.478l.061.053.421.031z" fill="#211F21"/><path d="M355.494 246.034a15.312 15.312 0 01-3.539 3.618c-1.575 1.208-3.302 2.294-5.03 3.38a48.608 48.608 0 00-2.584 1.736c-.428.298-.856.634-1.253.955l-1.185.956c-1.59 1.262-3.226 2.493-4.831 3.824-3.195 2.585-6.36 5.452-8.599 9.123a13.71 13.71 0 00-2.018 5.009 173.087 173.087 0 00-2.523-17.894 87.848 87.848 0 00-3.057-11.471 37.044 37.044 0 00-2.477-5.56c-.26-.451-.489-.91-.764-1.346l-.619-.895h.267l1.3.108c.863.068 1.727.145 2.591.237 1.727.183 3.455.39 5.175.642 3.432.489 6.841 1.155 10.227 1.889 3.387.734 6.88 1.399 10.174 2.294a31.936 31.936 0 018.745 3.395z" fill="#CEE1E5"/><path d="M356.9 137.727a2.951 2.951 0 01-.122.764 35.387 35.387 0 01-3.287 7.594c-.657 1.185-1.376 2.363-2.048 3.503a7.66 7.66 0 00-.727 1.659 9.46 9.46 0 00-.336 1.805c-.084 1.28 0 2.565.252 3.823.123.712.291 1.407.474 2.119l1.284.588-.634 1.362-.183-.115a34.39 34.39 0 011.2 8.068c.031.709.005 1.42-.077 2.126a5.4 5.4 0 01-.695 2.225 2.512 2.512 0 01-2.416 1.277 2.626 2.626 0 01-1.284-.55 11.37 11.37 0 01-.818-.765l-.076-.092a27.395 27.395 0 01-.054 4.344 27.009 27.009 0 01-.199 1.781l-1.284-.168c0-.237.061-.474.084-.719l.092-1.001a25.361 25.361 0 00-.39-6.929c-.13-.306-.26-.604-.374-.917a23.51 23.51 0 01-.895-3.197 11.044 11.044 0 01-.16-.719v-.076a.718.718 0 01.55-.849.707.707 0 01.841.55l.115.49c0 .099.038.199.061.29a21.05 21.05 0 011.146 3.671 8.57 8.57 0 001.651 2.516c.207.22.429.424.665.612a.916.916 0 00.826.218.908.908 0 00.642-.562 3.956 3.956 0 00.466-1.606 12.88 12.88 0 00.054-1.904 33.642 33.642 0 00-1.238-7.785c-.138-.497-.283-1.01-.421-1.53-.137-.52-.229-.902-.336-1.361a17.976 17.976 0 01-.535-5.353c.061-.732.192-1.457.39-2.164a9.412 9.412 0 01.871-2.042c.688-1.178 1.361-2.294 2.003-3.487a33.897 33.897 0 003.057-7.227.637.637 0 000-.107h-.145a2.23 2.23 0 00-.336.038c-.142.026-.282.06-.421.1a5.25 5.25 0 00-.825.283 8.109 8.109 0 00-2.89 2.133 16.584 16.584 0 00-2.14 3.136 9.791 9.791 0 00-1.139 3.456 1.003 1.003 0 01-1.093.88.99.99 0 01-.662-.363.99.99 0 01-.217-.723 64.855 64.855 0 00-.543-16.908 58.705 58.705 0 00-.519-2.753 14.399 14.399 0 00-.818-2.547 5.356 5.356 0 00-1.231-1.988 1.138 1.138 0 00-.68-.283c-.283-.01-.564.05-.818.176a2.922 2.922 0 00-1.338 1.529 6.812 6.812 0 00-.466 2.402c.016.88.106 1.757.267 2.623.153.917.329 1.835.528 2.76.413 1.836.856 3.694 1.376 5.468a1.102 1.102 0 01-1.774 1.147c-1.529-1.3-3.019-2.669-4.525-3.892a39.838 39.838 0 00-4.808-3.334 84.77 84.77 0 00-5.221-2.784 47.507 47.507 0 00-5.442-2.294 90.384 90.384 0 00-11.466-3.281c-3.891-.918-7.812-1.828-11.703-2.883-3.89-1.055-7.689-2.294-11.542-2.654a20.068 20.068 0 00-2.859-.084c-.474 0-.94.069-1.399.123-.179.014-.356.05-.527.107h-.069a.479.479 0 000 .107c.014.138.053.273.115.398.167.36.389.693.657.986a7.803 7.803 0 002.148 1.529c.833.444 1.735.842 2.668 1.278l.703.344.184.099a1.248 1.248 0 01.707.929 1.235 1.235 0 01-.379 1.105c-.11.102-.237.184-.374.245l-.207.069a.863.863 0 01-.176 0h-.183l-.382.038-.765.069c-2.002.168-4.005.298-5.977.489-3.952.375-7.827 1.01-11.374 2.623a58.248 58.248 0 00-10.396 5.621 33.536 33.536 0 00-8.362 8.098 28.569 28.569 0 00-2.836 5.063 20.441 20.441 0 00-1.521 5.613 19.36 19.36 0 002.056 11.127 21.581 21.581 0 002.591 3.976c.207.26.436.513.665.765l.214.222a14.306 14.306 0 004.296 3.158c.605.289 1.235.524 1.881.704.328.099.657.175.986.244.871.192 1.755.323 2.644.39 1.953.172 3.915.195 5.871.069a28.486 28.486 0 005.748-.948c.925-.26 1.865-.597 2.798-.925.932-.329 1.85-.696 2.752-1.079a34.561 34.561 0 005.19-2.714l1.07 1.261-.161.115a34.88 34.88 0 01-5.434 2.875c-.941.406-1.888.765-2.844 1.132-.955.367-1.903.681-2.912.964a30.05 30.05 0 01-6.115 1.04 41.208 41.208 0 01-6.116-.039 22.537 22.537 0 01-2.912-.428l-1.085-.26a13.617 13.617 0 01-2.118-.764 16.24 16.24 0 01-4.326-3.006l-1.46-.382c.122-.253.245-.497.375-.765a22.846 22.846 0 01-3.219-4.772 21.101 21.101 0 01-2.293-12.174 22 22 0 011.69-6.019 29.82 29.82 0 013.019-5.421 35.238 35.238 0 018.806-8.573 60.889 60.889 0 0110.701-5.835c.91-.398 1.903-.765 2.889-1.109a19.78 19.78 0 012.997-.764 53.05 53.05 0 016.054-.903c1.574-.153 3.134-.267 4.686-.397a24.26 24.26 0 01-1.254-.62 9.667 9.667 0 01-2.683-1.965 5.845 5.845 0 01-1.009-1.53 3.387 3.387 0 01-.291-1.04 2.066 2.066 0 011.415-2.24c.307-.104.625-.176.947-.214a18.175 18.175 0 011.59-.138 21.405 21.405 0 013.142.084c4.158.39 8.049 1.667 11.886 2.669 3.837 1.002 7.743 1.919 11.657 2.829a95.796 95.796 0 0111.68 3.327c1.919.696 3.784 1.529 5.626 2.386 1.842.856 3.615 1.828 5.396 2.852a43.801 43.801 0 015.068 3.495 79.003 79.003 0 011.835 1.53c-.168-.696-.329-1.392-.489-2.096a79.13 79.13 0 01-.558-2.883 18.036 18.036 0 01-.291-3.059 8.765 8.765 0 01.673-3.189 5.139 5.139 0 012.423-2.638 3.744 3.744 0 011.972-.375 3.36 3.36 0 011.911.765 5.03 5.03 0 011.131 1.407c.26.456.49.929.688 1.415.39.945.694 1.922.91 2.921.206.987.367 1.92.52 2.883.3 1.927.514 3.862.642 5.804.13 1.897.176 3.824.145 5.713.464-.685.975-1.336 1.529-1.95a10.102 10.102 0 013.577-2.577 9.395 9.395 0 011.086-.36c.191-.053.374-.084.565-.122a2.98 2.98 0 01.673-.061c.259-.004.517.032.764.107.329.098.625.283.856.535.25.316.373.715.344 1.117z" fill="#211F21"/><path d="M355.035 137.857a.637.637 0 010 .107 33.91 33.91 0 01-3.057 7.226c-.642 1.178-1.315 2.294-2.003 3.487a9.433 9.433 0 00-.871 2.042 11.614 11.614 0 00-.39 2.164 17.972 17.972 0 00.535 5.353c.107.459.222.918.336 1.362.115.443.283 1.032.421 1.529a33.642 33.642 0 011.238 7.785c.029.635.011 1.272-.054 1.904a3.951 3.951 0 01-.466 1.606.91.91 0 01-1.468.344 6.313 6.313 0 01-.665-.612 8.578 8.578 0 01-1.651-2.515 21.024 21.024 0 00-1.146-3.671c0-.092-.038-.191-.061-.291l-.115-.489a.714.714 0 00-.841-.551.721.721 0 00-.55.849v.077c.046.244.099.481.16.718a23.43 23.43 0 00.895 3.197c.114.313.244.612.374.918.447 2.28.578 4.612.39 6.928l-.092 1.002c0 .244-.053.482-.084.719-.03.237-.061.481-.099.726a56.75 56.75 0 01-2.064 8.626c-.566 1.82-1.177 3.633-1.773 5.453-.597 1.82-1.178 3.609-1.858 5.406-.321.862-.65 1.726-.986 2.593-.206.566-.42 1.124-.634 1.69-.413 1.116-.765 2.24-1.17 3.38l-.298.979a10.52 10.52 0 01-.245-1.017l-.642-3.327a.524.524 0 00-.588-.421.535.535 0 00-.349.2.518.518 0 00-.102.389v.038c.351 3.059.596 6.118.764 9.246.117 1.526.15 3.058.1 4.588a11.998 11.998 0 01-.857 4.237 8.016 8.016 0 01-2.446 3.334 4.156 4.156 0 01-3.615.765 4.93 4.93 0 01-3.058-2.356 8.355 8.355 0 01-1.032-2.73c-.068-.489-.13-.978-.191-1.468a.51.51 0 00-.508-.45.51.51 0 00-.508.45v.054a9.295 9.295 0 00.466 3.946 5.517 5.517 0 01-.482 1.606c-.145.298-.321.58-.527.841a3.349 3.349 0 01-1.277 1.009c-.46.236-.956.393-1.467.467a3.69 3.69 0 01-2.714-.933c.245-2.34.482-4.673.681-7.043.145-1.706.244-3.396.382-5.078a12.75 12.75 0 003.822-.857 13.545 13.545 0 005.006-3.449 16.817 16.817 0 001.843-2.447c.517-.873.964-1.786 1.337-2.73a17.996 17.996 0 001.154-5.911 13.528 13.528 0 00-.237-3.059 7.914 7.914 0 00-1.253-3.082 5.89 5.89 0 00-1.17-1.216 6.995 6.995 0 00-1.345-.849 10.623 10.623 0 00-2.522-.864 40.722 40.722 0 004.227-10.17 60.538 60.538 0 01-6.115 9.987 47.24 47.24 0 01-.765.948 28.7 28.7 0 01-2.232 2.394 14.88 14.88 0 01-3.057 2.294 7.91 7.91 0 01-3.379.948 4.64 4.64 0 01-3.058-.879 5.285 5.285 0 01-1.75-2.73 18.228 18.228 0 01-.764-3.755c-.161-1.331-.237-2.646-.299-3.992-.084-2.677 0-5.353.192-8.083a77.074 77.074 0 011.047-8.053c.084-.42.16-.841.26-1.254l.871-.642a31.742 31.742 0 007.185-7.732 40.721 40.721 0 002.584-4.527c.764-1.529 1.437-3.127 2.079-4.718a93.53 93.53 0 001.766-4.803c.55-1.613.963-3.288 1.49-4.909-.81 1.529-1.421 3.112-2.178 4.588-.757 1.476-1.529 3.059-2.293 4.543a58.448 58.448 0 01-5.183 8.572 33.98 33.98 0 01-5.213 5.56c-.313.267-.634.527-.963.765-.329.237-.505.39-.764.581a30.733 30.733 0 01-8.638 4.435 22.594 22.594 0 01-9.463 1.032 12.044 12.044 0 01-4.388-1.353 9.469 9.469 0 01-2.239-1.774 7.944 7.944 0 01-.971-1.293 7.648 7.648 0 01-.902-4.328 12.597 12.597 0 011.299-4.588 24.434 24.434 0 016.222-7.793 25.785 25.785 0 00-4.135 3.128 18.224 18.224 0 00-1.773 1.912 16.872 16.872 0 00-1.529 2.149 13.978 13.978 0 00-1.888 5.024 9.18 9.18 0 00.825 5.544c.042.084.088.166.138.245l-.16.114a34.437 34.437 0 01-5.191 2.715c-.902.383-1.819.765-2.751 1.078-.933.314-1.873.666-2.798.926a28.486 28.486 0 01-5.748.948 38.613 38.613 0 01-5.871-.069 19.062 19.062 0 01-2.645-.39 11.913 11.913 0 01-.986-.244 11.557 11.557 0 01-1.88-.704 14.294 14.294 0 01-4.296-3.158l-.214-.222a10.561 10.561 0 01-.665-.765 21.479 21.479 0 01-2.591-3.976 19.35 19.35 0 01-2.018-11.127c.26-1.905.787-3.764 1.567-5.521a28.533 28.533 0 012.836-5.063 33.536 33.536 0 018.362-8.098 58.184 58.184 0 0110.396-5.621c3.546-1.614 7.422-2.248 11.374-2.623 1.972-.191 3.975-.321 5.977-.489l.765-.069.382-.039h.183a.74.74 0 00.176 0l.207-.068c.137-.061.263-.144.374-.245a1.24 1.24 0 00-.329-2.034l-.183-.1-.703-.344c-.933-.436-1.835-.833-2.668-1.277a7.824 7.824 0 01-2.148-1.529 3.889 3.889 0 01-.657-.987 1.148 1.148 0 01-.115-.397.479.479 0 010-.107h.069c.171-.058.348-.093.527-.108.459-.053.925-.107 1.399-.122a19.922 19.922 0 012.859.084c3.822.383 7.644 1.614 11.542 2.654 3.899 1.04 7.812 1.965 11.703 2.883 3.89.84 7.72 1.936 11.466 3.28 1.85.673 3.654 1.484 5.442 2.295 1.789.81 3.532 1.797 5.221 2.783a39.952 39.952 0 014.808 3.334c1.529 1.224 3.012 2.593 4.525 3.893a1.107 1.107 0 001.316.09 1.101 1.101 0 00.458-1.237c-.52-1.774-.964-3.633-1.376-5.468a60.052 60.052 0 01-.528-2.761 15.912 15.912 0 01-.267-2.623 6.806 6.806 0 01.466-2.401 2.917 2.917 0 011.338-1.529c.253-.126.535-.186.818-.176.251.016.491.116.68.283a5.354 5.354 0 011.23 1.988c.352.822.626 1.674.818 2.547.191.879.367 1.835.52 2.753a64.806 64.806 0 01.543 16.908.99.99 0 001.972.206 9.765 9.765 0 011.139-3.456 16.584 16.584 0 012.14-3.136 8.109 8.109 0 012.89-2.133c.266-.117.543-.212.825-.283.138-.041.279-.074.421-.1.11-.022.223-.035.336-.038l.099-.122z" fill="#333031"/><path d="M342.568 293.516a6.427 6.427 0 01.764 5.055c-.225.923-.545 1.82-.955 2.676-.398.895-.856 1.79-1.315 2.669-.955 1.751-2.025 3.457-3.134 5.17-1.108 1.713-2.239 3.403-3.34 5.154a85.902 85.902 0 00-1.598 2.669c-.519.902-.993 1.82-1.475 2.73a305.364 305.364 0 00-3.585 7.035 7.281 7.281 0 00-1.261-.481c.336-3.679.527-7.365.718-11.058.153-3.893.237-7.793.276-11.693.061-7.8-.181-15.603-.727-23.408 0-.229 0-.451-.053-.673.38 1.012.911 1.961 1.574 2.814a19.06 19.06 0 004.862 4.275c1.758 1.132 3.524 2.126 5.167 3.242a13.97 13.97 0 014.082 3.824z" fill="#CEE1E5"/><path d="M339.763 364.008l-1.025-.046-1.352-.053h-1.002c-.13-3.289-.39-6.539-.764-9.643-.061-.566-.138-1.125-.207-1.683-.894-6.653-2.293-12.572-4.204-16.77a16.78 16.78 0 00-.764-1.53 13.843 13.843 0 00-2.186-3.135 6.509 6.509 0 00-1.827-1.376 4.233 4.233 0 00-1.659-.421c-6.36-.26-13.973 16.602-17.52 33.357h-.802l-1.338-.061-1.246-.046c3.516-17.099 11.367-36.309 20.562-36.592 0-3.609.038-7.219 0-10.828 0-3.87-.071-7.739-.214-11.609-.137-3.869-.26-7.731-.474-11.593-.214-3.862-.428-7.716-.764-11.563-.604-7.693-1.445-15.371-2.767-22.941a84.748 84.748 0 00-2.645-11.081 36.301 36.301 0 00-1.391-3.824 1.292 1.292 0 010-.176v-.038l.328-4.588v-.36c0-.122 0-.321.039-.466l.122.13.26.39.619.895c.298.435.527.894.764 1.345a36.943 36.943 0 012.477 5.56 88.053 88.053 0 013.058 11.471 173.434 173.434 0 012.522 17.894c.138 1.576.275 3.159.398 4.734 0 .222 0 .444.053.673.54 7.795.782 15.598.726 23.408-.038 3.9-.122 7.8-.275 11.693-.191 3.693-.382 7.379-.719 11.058.435.121.857.282 1.262.481a8.7 8.7 0 011.888 1.255 17.098 17.098 0 014.013 5.467c.26.536.52 1.079.764 1.652 2.033 4.726 3.394 10.859 4.235 17.275.076.558.137 1.117.199 1.683.481 3.319.726 6.699.856 10.002z" fill="#211F21"/><path d="M338.738 363.939c0 1.453-.084 2.906-.206 4.352a63.043 63.043 0 01-1.162 8.136 66.834 66.834 0 01-5.289 15.54 65.663 65.663 0 01-9.012 13.765 72.887 72.887 0 01-2.141 2.447l-.168-.207-.871-1.193a85.834 85.834 0 001.911-2.126 64.031 64.031 0 008.997-13.291 65.091 65.091 0 005.243-15.187 62.24 62.24 0 001.162-7.968 62.2 62.2 0 00.184-4.298l1.352.03z" fill="#211F21"/><path d="M337.386 363.886c0 1.437-.069 2.867-.184 4.298a62.24 62.24 0 01-1.162 7.968 65.091 65.091 0 01-5.243 15.187 64.027 64.027 0 01-8.99 13.291 83.869 83.869 0 01-1.911 2.126 93.791 93.791 0 01-3.715-5.445 63.642 63.642 0 01-6.879-14.491 65.053 65.053 0 01-2.4-10.706c1.781-3.747 3.6-7.479 5.427-11.211 3.585-7.334 7.285-14.622 10.747-22.07.864-1.858 1.682-3.785 2.469-5.636a187.47 187.47 0 012.5-5.567c.084-.168.16-.352.244-.52a13.79 13.79 0 012.186 3.135 5.436 5.436 0 00-2.644 5.017l.588 9.941a5.471 5.471 0 005.229 5.147h.558l1.437-.084c.374 3.104.634 6.354.764 9.643l.979-.023z" fill="#E5F3F9"/><path d="M335.413 352.537c.069.559.146 1.117.207 1.683l-1.437.084h-.558a5.469 5.469 0 01-5.229-5.147l-.588-9.941a5.436 5.436 0 012.644-5.017c.26.474.505.987.765 1.53a3.448 3.448 0 00-.765.65 3.783 3.783 0 00-.94 2.737l.589 9.942a3.779 3.779 0 004.005 3.548l1.323-.076-.016.007z" fill="#211F21"/><path d="M335.406 352.537l-1.323.077a3.767 3.767 0 01-2.739-.942 3.779 3.779 0 01-1.266-2.607l-.589-9.941a3.798 3.798 0 01.941-2.738c.221-.252.479-.471.764-.65 1.888 4.214 3.317 10.133 4.212 16.801z" fill="#CCCACB"/><path d="M330.56 417.302a3.006 3.006 0 01-2.871 4.647 3.005 3.005 0 01-1.953-1.076l-2.522-3.403a3.015 3.015 0 01-.115-3.411c.205-.3.464-.56.765-.764a2.79 2.79 0 01.764-.429 3.023 3.023 0 013.394 1.048l2.538 3.388zm6.726-210.414l1.017.314a39.032 39.032 0 00-.91 3.204.559.559 0 01-.206.298c.076.711.145 1.415.206 2.126a41.77 41.77 0 01.275 4.757 13.48 13.48 0 01-.909 4.879 9.798 9.798 0 01-3.004 4.121 6.113 6.113 0 01-2.469 1.148 5.905 5.905 0 01-2.737-.092 6.198 6.198 0 01-2.385-1.285 7.107 7.107 0 01-1.353-1.644c-.038.145-.099.29-.153.436l-.97-.23a5.496 5.496 0 00.481-1.606 9.323 9.323 0 01-.466-3.946v-.053a.51.51 0 01.508-.45.514.514 0 01.509.45c.061.489.122.979.191 1.468.181.964.53 1.888 1.032 2.73a4.939 4.939 0 003.057 2.356 4.164 4.164 0 003.616-.765 8.031 8.031 0 002.446-3.334 12.02 12.02 0 00.856-4.237c.051-1.53.018-3.062-.099-4.588a155.734 155.734 0 00-.765-9.246v-.038a.525.525 0 01.102-.389.514.514 0 01.349-.2.526.526 0 01.589.421l.642 3.326c.064.343.146.683.244 1.017l.306-.948zm-9.02 124.237c-.084.168-.16.352-.244.52a214.892 214.892 0 00-2.5 5.567c-.802 1.866-1.605 3.778-2.469 5.636-3.462 7.449-7.162 14.736-10.747 22.07a1078.718 1078.718 0 00-5.427 11.211 58.943 58.943 0 01-.444-4.244 868.892 868.892 0 013.861-7.946c3.585-7.356 7.292-14.652 10.701-22.024.864-1.85 1.636-3.693 2.446-5.597.81-1.905 1.659-3.763 2.53-5.621.153-.321.298-.635.451-.948a6.473 6.473 0 011.842 1.376z" fill="#211F21"/><path d="M324.643 412.843a2.82 2.82 0 00-.764.429c-.301.204-.56.464-.765.764a179.43 179.43 0 01-3.416-4.542l-.367-.505-.665-.933c.42-.436.833-.879 1.238-1.323l.871 1.193.169.207c1.184 1.613 2.43 3.166 3.699 4.71zm7.285-214.015a18.022 18.022 0 01-1.154 5.911 19.22 19.22 0 01-1.338 2.73c-.539.87-1.155 1.69-1.842 2.448a13.568 13.568 0 01-5.022 3.441 12.78 12.78 0 01-3.822.856l-1.46-.26c.069-.397.153-.803.229-1.208a16.17 16.17 0 001.384-.291 13.35 13.35 0 002.774-1.086 14.11 14.11 0 006.505-7.647c.614-1.62.989-3.32 1.116-5.047a8.627 8.627 0 00-.688-4.772 5.072 5.072 0 00-1.605-1.682 9.126 9.126 0 00-2.293-1.186h-.076l.764-1.215c.874.18 1.721.471 2.522.864.48.23.931.515 1.346.849.446.334.842.731 1.177 1.177a7.918 7.918 0 011.246 3.006c.198 1.025.278 2.069.237 3.112z" fill="#211F21"/><path d="M326.439 329.71c-.152.314-.298.627-.451.949a195.017 195.017 0 00-2.53 5.62c-.81 1.905-1.582 3.747-2.446 5.598-3.424 7.372-7.131 14.668-10.701 22.024a748.634 748.634 0 00-3.86 7.946c0-.276-.039-.559-.054-.834a64.384 64.384 0 01.046-8.052v-.345h.803c3.546-16.755 11.16-33.647 17.519-33.357a4.268 4.268 0 011.674.451z" fill="#CEE1E5"/><path d="M324.414 315.066c.061 3.609 0 7.219 0 10.828-9.173.283-17.046 19.493-20.562 36.592l1.246.046v.314a67.113 67.113 0 00-.077 8.221 65.46 65.46 0 00.253 3.211 506.25 506.25 0 00-5.42 11.831c-1.651 3.762-3.226 7.548-4.655 11.409-.711 1.935-1.391 3.885-1.972 5.881-.061.184-.115.375-.168.566a745.15 745.15 0 01.435-16.182 664.744 664.744 0 012.431-36.882c1.154-12.274 2.737-24.471 4.64-36.669a539.788 539.788 0 016.948-36.309c.658-3.005 1.414-5.995 2.125-8.993.711-2.998 1.529-5.957 2.37-8.932.367-1.33.729-2.666 1.085-4.007.436-1.652.856-3.304 1.261-4.971.276-1.2.574-2.409.811-3.632.153-.765.283-1.53.374-2.294l.39-1.53.229-1.132v.039c.536 1.247 1 2.524 1.392 3.823a84.745 84.745 0 012.644 11.081c1.323 7.54 2.164 15.218 2.768 22.942.321 3.824.55 7.701.764 11.562.214 3.862.336 7.724.474 11.594.137 3.869.199 7.769.214 11.593z" fill="#CEE1E5"/><path d="M328.626 193.911a8.645 8.645 0 01.688 4.772 17.99 17.99 0 01-1.116 5.047 14.122 14.122 0 01-6.505 7.647c-.882.464-1.813.828-2.775 1.086-.451.115-.917.214-1.384.291-.076.405-.16.81-.229 1.208l-.046.29a121.276 121.276 0 00-.703 4.849c-.206 1.606-.443 3.334-.65 5.016-.092.696-.168 1.4-.252 2.088-.084.688-.168 1.407-.245 2.118l-.489 4.589a77.526 77.526 0 00-.137 1.896l-.13.084-.688.459-1.743 1.147-3.715 2.447c-2.584 1.675-5.16 3.365-7.766 4.979a286.612 286.612 0 01-7.889 4.733c-.665.383-1.337.765-2.002 1.117-.665.352-1.338.726-2.003 1.04a12.27 12.27 0 01-1.988.765c-.328.099-.642.183-.955.29h-.023a3.633 3.633 0 01-.122-.313l-.512-1.4c-.352-.94-.688-1.881-1.078-2.791a33.84 33.84 0 00-1.307-2.7c-.474-.879-.856-1.651-1.33-2.477 0-.061-.069-.123-.107-.184-.107-.176-.214-.352-.329-.527 0-.368.061-.765.076-1.102v-.527c.023-.426.023-.852 0-1.277 0-.322-.053-.635-.091-.949a59.15 59.15 0 008.263-1.414 70.218 70.218 0 006.719-2.019 66.319 66.319 0 006.474-2.654.885.885 0 00.443-1.139.877.877 0 00-1.154-.482 76.153 76.153 0 01-12.994 4.129 57.877 57.877 0 01-8.218 1.255l-.947.061a44.009 44.009 0 01-4.25.046 31.866 31.866 0 01-12.88-2.929 23.384 23.384 0 01-9.693-8.588 28.209 28.209 0 01-3.868-12.564 55.17 55.17 0 01.474-12.175 5.21 5.21 0 003.119 1.185l13.117.543a5.282 5.282 0 005.488-5.062l.145-3.571a15.746 15.746 0 017.874.55l-.13 3.227a5.352 5.352 0 005.091 5.537l14.615.596a5.348 5.348 0 005.526-5.093l.382-9.291a2.809 2.809 0 000-.367l1.124-.061c0 .589.076 1.185.13 1.766a20.35 20.35 0 00.818 4.321c.24.76.579 1.485 1.009 2.157a6.485 6.485 0 001.712 1.865 7.19 7.19 0 004.739 1.293 9.939 9.939 0 004.434-1.438 15.13 15.13 0 003.371-2.86 29.446 29.446 0 002.629-3.411h.077a9.143 9.143 0 012.293 1.186 5.063 5.063 0 011.613 1.69zM278.619 217.9a10.489 10.489 0 00-2.041-1.82 14.375 14.375 0 00-2.384-1.353 14.76 14.76 0 00-2.599-.857 10.576 10.576 0 00-2.729-.275c.841.382 1.666.703 2.484 1.04.818.336 1.628.673 2.423 1.032.795.36 1.598.765 2.4 1.101.803.337 1.598.773 2.446 1.132zm-7.644-17.68c.62-1.117.711-2.195 1.246-3.235a4.286 4.286 0 00-1.314 1.201c-.367.466-.673.91-1.017 1.284l-2.201 2.463c-.21.228-.406.468-.589.719a2.193 2.193 0 00-.428 1.231c.003.406.114.805.321 1.154.145.265.305.521.482.765.665.956 1.391 1.736 2.025 2.73a8.296 8.296 0 00-.864-3.372c-.099-.245-.214-.513-.29-.765a.917.917 0 01-.076-.482c.168-.34.399-.646.68-.902a15.176 15.176 0 002.003-2.791h.022z" fill="#FAD1C9"/><path d="M319.889 406.756c-.405.444-.818.887-1.239 1.323a108.004 108.004 0 01-3.898-5.888 65.66 65.66 0 01-6.834-14.951 67.124 67.124 0 01-2.102-8.916 65.264 65.264 0 01-.795-7.235 67.098 67.098 0 01.077-8.22v-.314l1.337.061v.344a64.401 64.401 0 00-.045 8.053c0 .275 0 .558.053.834.097 1.422.245 2.837.443 4.244.497 3.63 1.3 7.211 2.401 10.706a63.6 63.6 0 006.879 14.491 89.82 89.82 0 003.723 5.468z" fill="#B5B5B5"/><path d="M319.315 409.012l.367.505a58.691 58.691 0 01-2.148 2.248 155.102 155.102 0 01-4.211 4.145 2.805 2.805 0 00-.497-.765l-.13-.137a2.854 2.854 0 00-.696-.551c1.442-1.3 2.862-2.626 4.258-3.977a64.202 64.202 0 002.392-2.416l.665.948zm10.32-229.379a40.713 40.713 0 01-4.227 10.171l-.765 1.216a29.446 29.446 0 01-2.629 3.411 15.156 15.156 0 01-3.371 2.86 9.939 9.939 0 01-4.434 1.438 7.195 7.195 0 01-4.739-1.293 6.476 6.476 0 01-1.712-1.866 9.042 9.042 0 01-1.009-2.156 20.362 20.362 0 01-.818-4.321 44.573 44.573 0 01-.13-1.766 52.553 52.553 0 01-.076-2.463c.014-2.801.236-5.598.665-8.366a52.195 52.195 0 011.819-8.022l1.307.207a77.324 77.324 0 00-1.047 8.052c-.184 2.707-.275 5.407-.191 8.083.061 1.346.137 2.661.298 3.992.122 1.275.378 2.534.764 3.755a5.28 5.28 0 001.751 2.73 4.635 4.635 0 003.057.879 7.882 7.882 0 003.379-.948 14.817 14.817 0 003.057-2.294 28.7 28.7 0 002.232-2.394c.268-.313.52-.627.765-.948a60.426 60.426 0 006.054-9.957zm-5.947 45.303l.97.229c-.18.435-.414.846-.695 1.224a8.501 8.501 0 01-1.43 1.445 4.116 4.116 0 01-1.941.826 4.52 4.52 0 01-2.148-.275 5.32 5.32 0 01-.91-.452l-.068.589-.535 4.588c0 .283-.069.559-.092.834-.1.887-.168 1.759-.237 2.646v.268c0 .145 0 .306-.038.466-.039.161 0 .237 0 .36l-.329 4.588v.038a.795.795 0 000 .138l-.229 1.132-.39 1.529-.375 1.529c-.069.222-.13.459-.199.689a.636.636 0 00.199.069c-.237 1.223-.535 2.431-.81 3.632a267.56 267.56 0 01-1.261 4.971l-1.055-.283a86.605 86.605 0 01-1.162 2.692 102.648 102.648 0 01-13.186 21.221 1.31 1.31 0 01-1.466.527 1.304 1.304 0 01-.483-.267 1.248 1.248 0 01-.413-.566c-.382-1.094-.764-2.187-1.238-3.273-.474-1.086-.94-2.149-1.422-3.243-.802-1.751-1.643-3.533-2.362-5.353l-.091.413-.084.329-.108.39c-.038.122-.091.252-.137.375-.046.122 0 .267 0 .397v1.178h-1.04a4.868 4.868 0 01-.68.635 5.506 5.506 0 01-2.996 1.147 5.83 5.83 0 01-3.058-.727 6.157 6.157 0 01-2.293-2.095l-1.231-.229c.123-.582.245-1.163.398-1.736a1.975 1.975 0 01-.046-.199l-.122-.665-.421-2.348 1.644-.344.099.489.069.321.313 1.53.138.634c.042.182.095.361.16.536.125.347.295.676.505.979.421.602.99 1.086 1.651 1.407a4.06 4.06 0 004.036-.245 3.611 3.611 0 001.253-1.659l.084-.253.085-.313.175-.643.344-1.3.283-1.04v-.046l-.512-1.728c-.352-1.124-.764-2.241-1.185-3.365-.199-.52-.382-1.04-.565-1.529-.184-.49-.314-.902-.459-1.346a23.586 23.586 0 01-.176-.497l-.543-1.583.765-.306.619 1.575c.115.276.222.566.336.842.199.504.39.994.597 1.483.137.329.282.65.428.971.466 1.002.94 2.012 1.375 3.059l.115.26.658 1.683.267.619c.138.337.291.665.436.987.971 2.148 2.125 4.206 3.279 6.324a92.149 92.149 0 012.24 4.504 98.428 98.428 0 0011.718-18.805 74.779 74.779 0 004.257-11.417l.765-2.936c.221-.995.489-1.973.718-2.968l.123-.619v-2.99l-.765-1.124.688-.459.122.099v-.183c.039-.635.084-1.27.138-1.897l.489-4.588c.077-.711.153-1.407.245-2.118.092-.711.16-1.392.252-2.088.209-1.682.426-3.355.65-5.017.206-1.605.428-3.227.703-4.848l.046-.29 1.46.26c-.138 1.682-.237 3.372-.382 5.077a342.209 342.209 0 01-.681 7.043 3.673 3.673 0 002.714.933 4.654 4.654 0 001.468-.466c.502-.226.94-.573 1.276-1.01.274-.294.508-.623.696-.978z" fill="#211F21"/><path d="M313.323 415.91a2.918 2.918 0 01-.665 3.357l-3.264 3.005a2.913 2.913 0 01-4.105-.168l-.122-.137a2.92 2.92 0 01.168-4.115l3.256-2.997a2.903 2.903 0 013.409-.383c.26.146.494.332.696.551l.13.137c.205.222.373.475.497.75zm12.367-275.828c-.527 1.621-.917 3.273-1.49 4.909a154.146 154.146 0 01-1.766 4.803 61.205 61.205 0 01-2.079 4.718 40.721 40.721 0 01-2.584 4.527 31.743 31.743 0 01-7.124 7.747l-.871.642c-.1.413-.176.834-.26 1.255l-1.307-.207c-.65.421-1.33.818-2.011 1.193a32.218 32.218 0 01-4.907 2.08 23.882 23.882 0 01-10.655.994 14.083 14.083 0 01-5.229-1.85 10.539 10.539 0 01-2.805-2.493l-1.07-1.262.16-.115a2.553 2.553 0 01-.137-.245 9.179 9.179 0 01-.826-5.544c.299-1.781.94-3.487 1.888-5.024.453-.755.965-1.473 1.529-2.149a18.273 18.273 0 011.735-1.881 25.82 25.82 0 014.097-3.105 24.41 24.41 0 00-6.222 7.793 12.597 12.597 0 00-1.299 4.588 7.64 7.64 0 00.902 4.328c.278.463.604.896.97 1.293a9.494 9.494 0 002.24 1.774 12.038 12.038 0 004.388 1.353c3.191.332 6.417-.02 9.463-1.032a30.74 30.74 0 008.637-4.435c.253-.192.512-.375.765-.582.252-.206.649-.504.963-.764a34.023 34.023 0 005.213-5.56 58.442 58.442 0 005.182-8.572c.765-1.53 1.529-3.059 2.294-4.543.764-1.483 1.391-3.128 2.216-4.634zm-8.729 97.311l.015.023h-.015v-.023zm-.772 4.932a1.292 1.292 0 000 .176v-.038a.795.795 0 010-.138zm-1.024 4.313l.374-1.529a29.44 29.44 0 01-.374 2.294.59.59 0 01-.199-.069c.069-.237.13-.474.199-.696z" fill="#211F21"/><path d="M314.645 239.496l-.122.619c-.23.994-.497 1.973-.719 2.967l-.764 2.937a74.783 74.783 0 01-4.258 11.417 98.428 98.428 0 01-11.718 18.805 62.71 62.71 0 00-2.24-4.504c-1.154-2.119-2.293-4.176-3.279-6.325-.145-.321-.298-.65-.436-.986l-.267-.62-.657-1.682-.115-.26c-.436-1.04-.91-2.049-1.376-3.059a38.97 38.97 0 01-.428-.971c-.206-.489-.398-.979-.596-1.484-.115-.275-.222-.565-.337-.841l-.619-1.575-.069-.046v-.061c.258-.019.513-.058.765-.115a15.635 15.635 0 002.377-.765c1.529-.642 2.874-1.33 4.258-2.072a158.825 158.825 0 004.082-2.294 78.2 78.2 0 003.967-2.47c2.606-1.706 5.167-3.48 7.644-5.392a88.4 88.4 0 003.653-2.959c.459-.387.91-.785 1.353-1.193v2.99l-.099-.061z" fill="#fff"/><path d="M314.783 234.823v.184l-.123-.099.123-.085zm-.818.543l.764 1.125c-.443.402-.894.8-1.353 1.193a89.42 89.42 0 01-3.654 2.959c-2.461 1.912-5.022 3.686-7.644 5.391a93.973 93.973 0 01-3.967 2.47 92.243 92.243 0 01-4.082 2.295c-1.383.726-2.759 1.43-4.257 2.072-.771.317-1.566.573-2.377.765a5.21 5.21 0 01-.765.114v.062l.046.099-.764.306c-.337.375-.688.765-1.025 1.116-.336.352-.481.551-.718.842-.405.489-.81.986-1.2 1.529l-.054.069a59.361 59.361 0 00-3.096 4.397v.222c0 .076.069.39.115.612l.138.65.061.26-1.644.344a65.266 65.266 0 00-2.232 4.106 59.486 59.486 0 00-2.53 5.713v.061a.98.98 0 01-1.045.633.99.99 0 01-.858-.87 78.9 78.9 0 01-.183-3.824 101.736 101.736 0 010-5.093v-.329c.038-.94.091-1.873.168-2.814.038-.612.091-1.231.145-1.843l1.009.084c0 .452-.077.91-.099 1.362v.466a44.798 44.798 0 00-.046 4.65c.046 1.167.145 2.329.298 3.487.367-.887.764-1.767 1.169-2.639a63.834 63.834 0 013.127-5.674 34.61 34.61 0 011.077-1.659c.607-.913 1.241-1.8 1.904-2.662.252-.336.497-.665.764-.994a50.201 50.201 0 012.117-2.47c.367-.405.765-.764 1.124-1.185a4.023 4.023 0 01.489-.436l-.145-.222.971-.497c0 .107.076.214.122.314h.046c.313-.107.627-.191.956-.291a12.204 12.204 0 001.987-.765c.665-.313 1.33-.673 2.003-1.04.672-.367 1.337-.764 2.002-1.116a300.247 300.247 0 007.889-4.734c2.614-1.621 5.182-3.303 7.766-4.978l3.715-2.447 1.766-1.186z" fill="#211F21"/><path d="M312.038 255.731c-.366 1.331-.764 2.661-1.131 3.984-.856 2.96-1.712 5.927-2.499 8.924a415.928 415.928 0 00-2.248 8.994 553.466 553.466 0 00-7.422 36.324c-3.142 18.935-5.282 38.03-6.566 57.178-.069-10.56-.26-21.121-.497-31.675-.137-6.033-.267-12.074-.451-18.108l-.237-9.054-.29-9.047-.23-9.062c-.084-3.013-.168-6.034-.198-9.054l-.176-9.07-.069-4.527v-2.661c0-.13.099-.253.138-.375l.107-.39.084-.329.092-.413c.718 1.835 1.528 3.617 2.361 5.353.482 1.094.987 2.164 1.422 3.243a73.927 73.927 0 011.239 3.273c.08.224.223.42.412.565a1.306 1.306 0 001.842-.221 102.563 102.563 0 0013.186-21.221c.375-.826.765-1.729 1.131-2.631z" fill="#fff"/><path d="M297.591 520.012h-.81l-5.175-.153-2.247-.115c-.092-.849-.183-1.682-.283-2.524-.344-3.158-.718-6.316-1.024-9.474-.306-3.159-.612-6.309-.856-9.475-.077-.933-.138-1.874-.199-2.807l7.72-.229c.123 1.2.237 2.393.367 3.594.658 6.118 1.338 12.289 2.141 18.414.122.887.237 1.828.366 2.769z" fill="#004B9A"/><path d="M294.503 493.055l.046.459-7.644.222h-1.077l-5.634.168-3.18.092a3.456 3.456 0 01-.627 0 3.62 3.62 0 01-2.461-1.53 3.582 3.582 0 01-.673-2.003l-.351-12.006a3.673 3.673 0 013.547-3.763l8.912-.26h.604l6.559-.191h.344l.068.91c0 .352.054.696.084 1.048l-13.422.397a3.584 3.584 0 00-3.486 3.694l.245 8.488c.03.953.437 1.855 1.131 2.509.62.594 1.436.939 2.293.971h.26l5.764-.168h.963l7.598-.222v.329c.076.283.107.565.137.856z" fill="#CCCACB"/><path d="M294.289 490.845l-7.552.222h-.909l-5.795.168a2.599 2.599 0 01-1.857-.703 2.579 2.579 0 01-.81-1.82l-.252-8.489a2.563 2.563 0 01.703-1.858 2.593 2.593 0 011.811-.818l13.477-.398c.361 4.578.756 9.143 1.184 13.696z" fill="#333031"/><path d="M306.198 169.669a29.694 29.694 0 002.011-1.193 52.195 52.195 0 00-1.819 8.022 56.472 56.472 0 00-.665 8.366c0 .811 0 1.637.076 2.462l-1.124.062a3.577 3.577 0 00-3.424-3.357l-18.086-.765a3.586 3.586 0 00-3.722 3.441l-.168 4.091a17.482 17.482 0 00-7.873-.527l.152-3.778a3.537 3.537 0 00-3.386-3.686l-14.722-.604a103.84 103.84 0 011.407-4.313c.435-1.262.886-2.539 1.253-3.824.961.206 1.933.349 2.912.428 2.035.165 4.079.177 6.116.039a30.05 30.05 0 006.115-1.04c1.009-.283 1.957-.627 2.912-.964a44.494 44.494 0 002.844-1.132 34.88 34.88 0 005.434-2.875l.161-.115a10.504 10.504 0 002.805 2.493 14.103 14.103 0 005.229 1.851c3.581.479 7.224.139 10.655-.994a32.213 32.213 0 004.907-2.088zm-8.805 8.741c1.467.436 3.057 1.147 4.708 1.162-1.528-.642-2.736-1.59-4.273-2.294a7.782 7.782 0 00-2.491-.765 9.43 9.43 0 00-2.576.138c-1.622.323-3.2.836-4.701 1.529a14.173 14.173 0 00-4.205 2.509c1.529-.566 3.058-.949 4.587-1.369 1.529-.421 3.057-.887 4.586-1.14a10.828 10.828 0 012.209-.16 9.583 9.583 0 012.156.39zm-16.664 5.414a3.404 3.404 0 01-.764-1.415 7.676 7.676 0 01-.245-1.529v-1.591c0-.535.054-1.086.107-1.69-.413.43-.712.955-.871 1.53a4.898 4.898 0 00-.199 1.797c.03.624.208 1.232.52 1.774a2.144 2.144 0 001.452 1.124zm-9.853-3.671c-1.284.13-2.492.306-3.692.375a21.682 21.682 0 01-3.531 0 24.634 24.634 0 01-3.478-.573 8.325 8.325 0 01-1.628-.551 2.53 2.53 0 01-1.285-1.162 2.337 2.337 0 00.765 1.827 6.2 6.2 0 001.674 1.132c1.206.555 2.499.897 3.822 1.009a10.94 10.94 0 003.898-.382 10.163 10.163 0 003.455-1.675z" fill="#FAD1C9"/><path d="M302.95 230.426a.893.893 0 01.006.659.892.892 0 01-.449.481 65.98 65.98 0 01-6.475 2.653 69.846 69.846 0 01-6.719 2.019 58.982 58.982 0 01-8.263 1.415c.038.313.077.627.092.948.023.426.023.852 0 1.277v.528c0 .367-.046.765-.077 1.101.115.176.222.352.329.528.038.061.077.122.107.183.474.826.894 1.652 1.33 2.478.436.826.91 1.782 1.307 2.7.398.917.765 1.85 1.078 2.791l.512 1.399-.971.497-.825-1.254c-.543-.841-1.093-1.682-1.582-2.546-.62-1.079-1.178-2.195-1.736-3.289-.198-.397-.397-.764-.603-1.162-.13-.26-.268-.512-.406-.765l-.076-.145-.099.115a24.274 24.274 0 00-1.758 2.294 29.924 29.924 0 00-2.63 4.695l-.168.383c-.388.887-.71 1.802-.963 2.737-.25.934-.414 1.889-.489 2.853-.138 1.369-.299 2.73-.413 4.099l-1.009-.085c.114-1.376.237-2.753.359-4.114.046-.489.084-.986.145-1.529.038-.283.077-.566.13-.849.054-.283.084-.451.138-.673a23.87 23.87 0 01.841-2.944 30.444 30.444 0 012.599-5.537c.464-.794.974-1.56 1.528-2.294l1.674-1.713h.161a.795.795 0 000-.138v-2.018l-.092-.253.092-.038v-.115c-1.414.1-2.828.13-4.242.1-1.185 0-2.37-.107-3.555-.23a34.577 34.577 0 01-3.531-.604 29.939 29.939 0 01-6.826-2.371 25.704 25.704 0 01-10.702-9.528 30.442 30.442 0 01-4.028-13.673c-.276-4.7.05-9.416.971-14.033.04-.229.086-.459.137-.688a5.155 5.155 0 01-.29-1.943l.382-9.291a7.009 7.009 0 01-.764-.887 10.895 10.895 0 01-1.827-6.317c-.01-1.068.054-2.136.191-3.196.139-1.069.372-2.123.695-3.151.252-.8.558-1.582.918-2.34l1.46.382a22.297 22.297 0 00-.765 2.417 20.961 20.961 0 00-.535 2.898 24.524 24.524 0 00-.168 2.967c-.006.967.094 1.931.298 2.876a7.814 7.814 0 001.04 2.585v.038a3.554 3.554 0 013.141-1.644h.321a107.724 107.724 0 011.736-4.703c.481-1.224.978-2.44 1.383-3.656l1.086.26c-.367 1.308-.818 2.585-1.254 3.824a105.356 105.356 0 00-1.407 4.313l14.723.604a3.538 3.538 0 013.386 3.686l-.153 3.778a17.482 17.482 0 017.873.527l.168-4.091a3.588 3.588 0 013.723-3.441l18.085.765a3.577 3.577 0 013.425 3.357 3.21 3.21 0 010 .367l-.382 9.291a5.357 5.357 0 01-5.527 5.093l-14.615-.596a5.355 5.355 0 01-5.091-5.537l.13-3.227a15.743 15.743 0 00-7.873-.551l-.145 3.572a5.286 5.286 0 01-5.489 5.062l-13.109-.505a5.21 5.21 0 01-3.119-1.185 55.163 55.163 0 00-.474 12.174 28.21 28.21 0 003.868 12.565 23.38 23.38 0 009.693 8.565 31.87 31.87 0 0012.864 2.975c1.414.053 2.829.038 4.25-.046l.948-.062a57.697 57.697 0 008.217-1.254 76.164 76.164 0 0012.995-4.129.869.869 0 011.139.466zm-1.017-33.479l.382-9.284a1.199 1.199 0 00-1.146-1.246l-13.446-.589a7.58 7.58 0 01.237 2.294c-.099 2.432-1.2 4.366-2.446 4.313-1.246-.054-2.186-2.065-2.087-4.497a7.66 7.66 0 01.421-2.248h-.765a1.218 1.218 0 00-1.253 1.147l-.375 9.291a2.925 2.925 0 002.806 3.059l14.615.605a2.946 2.946 0 002.122-.784 2.923 2.923 0 00.935-2.061zm-33.044-1.239l.382-9.291a1.247 1.247 0 00-1.185-1.285l-7.835-.321c.178.714.247 1.451.207 2.187-.1 2.432-1.193 4.366-2.439 4.313-1.246-.054-2.186-2.065-2.087-4.497.03-.736.161-1.464.39-2.164l-3.539-.153c-.229.765-.443 1.529-.657 2.294l-.275.979a85.534 85.534 0 00-1.873 8.198 2.947 2.947 0 002.706 2.088l13.109.535a2.985 2.985 0 003.08-2.883h.016zm-18.277-9.727c.153-.497.314-.995.482-1.484a1.217 1.217 0 00-.887 1.132l-.084 1.912.115-.367c.122-.398.244-.803.374-1.193z" fill="#211F21"/><path d="M292.761 472.545l-6.926.207v-.276l-.038-1.965c0-1.315-.099-2.615-.176-3.931-.145-2.546-.39-5.07-.65-7.601.291-.696.574-1.399.841-2.103a96.644 96.644 0 004.464-15.585c.283-1.269.49-2.562.719-3.824.224 8.157.568 16.294 1.032 24.41.219 3.544.463 7.1.734 10.668z" fill="#fff"/><path d="M302.3 187.663l-.382 9.284a2.932 2.932 0 01-.946 2.041 2.926 2.926 0 01-2.112.773l-14.615-.604a2.94 2.94 0 01-2.038-.947 2.944 2.944 0 01-.767-2.112l.375-9.291a1.214 1.214 0 011.253-1.148h.765a7.667 7.667 0 00-.421 2.249c-.099 2.432.841 4.45 2.087 4.496 1.246.046 2.347-1.881 2.446-4.313a7.613 7.613 0 00-.237-2.294l13.43.558a1.198 1.198 0 011.162 1.308z" fill="#FAD1C9"/><path d="M302.101 179.572c-1.666 0-3.241-.726-4.708-1.162a9.548 9.548 0 00-2.179-.39c-.74-.022-1.48.031-2.209.16-1.49.253-3.004.765-4.586 1.14-1.582.375-3.058.765-4.586 1.369a14.168 14.168 0 014.204-2.509 20.998 20.998 0 014.701-1.529 9.414 9.414 0 012.591-.107c.868.113 1.71.371 2.492.765 1.544.673 2.782 1.636 4.28 2.263z" fill="#211F21"/><path d="M287.57 517.35c.092.765.184 1.53.283 2.295l-1.422-.069a615.96 615.96 0 01-20.638-1.308 546.812 546.812 0 01-16.205-1.483v-.283c-.443-5.17-.866-10.337-1.269-15.501-.275-3.579-.55-7.166-.764-10.752.581.191 1.177.351 1.758.512l2.018.551c.665.175 1.353.305 2.025.466h.062l.665.145c0-.458.053-.91.068-1.376.092-2.118.115-4.252.092-6.378-.061-3.533-.237-7.058-.65-10.568l1.055.221c.688.138 1.368.299 2.049.421l1.98.329c.076 3.349.229 6.683.359 10.025.107 2.294.191 4.52.306 6.776a1.068 1.068 0 000 .16c0 .452.038.887.061 1.339l.764.107c4.267.584 8.566.913 12.872.986.089.109.186.212.291.306a5.28 5.28 0 003.432 1.453h.382l8.806-.26c0 .948.046 1.897.076 2.845.123 3.189.36 6.37.619 9.551.26 3.181.536 6.332.925 9.49z" fill="#004B9A"/><path d="M289.833 437.223l1.154.214c-.229 1.285-.436 2.577-.718 3.824a96.877 96.877 0 01-4.464 15.585 74.265 74.265 0 01-.841 2.103c.26 2.531.504 5.054.65 7.601.076 1.315.152 2.615.175 3.931l.039 1.965v.275h-1.071v-.237l-.191-1.95c-.137-1.292-.26-2.592-.374-3.892-.153-1.667-.275-3.327-.398-4.994a73.58 73.58 0 01-1.238 2.608l-.925 1.812c-.313.597-.657 1.185-.986 1.782-.329.596-.65 1.178-1.055 1.797-.24.38-.552.709-.917.971a1.47 1.47 0 01-.497.199c-.196.046-.4.046-.596 0a1.775 1.775 0 01-.765-.398 5.858 5.858 0 01-.81-.841 13.315 13.315 0 01-.65-.833c-.417-.568-.8-1.161-1.146-1.774a33.027 33.027 0 01-1.758-3.748c-.52-1.254-.986-2.508-1.529-3.709l-1.674-3.655a101.56 101.56 0 01-5.488-15.294 72.249 72.249 0 01-2.439-16.136 61.992 61.992 0 01.291-8.175c.244-2.682.517-5.358.818-8.03.596-5.353 1.246-10.706 1.918-16.059 2.767-21.282 4.334-42.71 6.368-64.122 1.054-10.706 2.201-21.412 3.63-32.065.352-2.668.765-5.353 1.124-7.991.359-2.638.849-5.315 1.261-7.968.413-2.654.941-5.308 1.414-7.953.207-.972.375-1.951.574-2.922l1.23.23c-.183.971-.382 1.942-.542 2.921-.436 2.646-.887 5.284-1.3 7.938-.413 2.653-.764 5.307-1.154 7.968-.39 2.661-.703 5.353-1.017 7.984-1.284 10.652-2.293 21.343-3.187 32.042-1.903 21.412-3.47 42.824-6.169 64.237-.68 5.353-1.383 10.652-2.002 15.975a583.589 583.589 0 00-.864 7.999 62.25 62.25 0 00-.329 7.914 70.397 70.397 0 002.293 15.685 101.073 101.073 0 005.282 15.05l1.628 3.693c.535 1.27.994 2.539 1.483 3.77a30.4 30.4 0 001.613 3.579c.301.557.638 1.093 1.009 1.606.335.501.72.967 1.147 1.392l.046.038c.124-.123.241-.253.351-.39.344-.497.68-1.093 1.009-1.667.329-.573.673-1.147.986-1.736l.94-1.759a94.72 94.72 0 002.393-5.054c.313-.765.619-1.469.91-2.211l.16-.405a95.682 95.682 0 004.456-14.904c.283-1.262.497-2.539.742-3.816z" fill="#211F21"/><path d="M290.827 430.616l-.061.535-.268 1.988c-.168 1.323-.42 2.638-.634 3.961v.115c-.245 1.277-.459 2.554-.765 3.824a95.79 95.79 0 01-4.456 14.904l-.161.406c-.29.764-.596 1.475-.909 2.21-.765 1.705-1.529 3.395-2.393 5.054l-.94 1.759c-.314.589-.658 1.163-.986 1.736-.329.574-.665 1.17-1.009 1.667a4.697 4.697 0 01-.352.444l-.046-.038a9.103 9.103 0 01-1.146-1.392 14.518 14.518 0 01-1.009-1.606 30.237 30.237 0 01-1.613-3.579c-.489-1.231-.948-2.501-1.483-3.77l-1.628-3.694a100.908 100.908 0 01-5.282-15.049 70.348 70.348 0 01-2.293-15.685 62.266 62.266 0 01.328-7.915c.265-2.671.553-5.338.864-7.999.619-5.353 1.323-10.645 2.003-15.975 2.698-21.366 4.265-42.824 6.169-64.237.909-10.706 1.903-21.412 3.187-32.042.313-2.668.68-5.353 1.017-7.983.336-2.631.764-5.315 1.154-7.969.39-2.653.864-5.292 1.299-7.938.161-.978.36-1.95.543-2.921a6.175 6.175 0 002.293 2.096 5.838 5.838 0 003.058.726 5.499 5.499 0 002.996-1.147c.247-.189.475-.402.68-.635v41.854l.115 9.062c.069 6.033.199 12.067.314 18.108l.703 36.217c.114 6.026.26 12.068.336 18.101l.092 9.055v6.821c.006.339.04.676.099 1.01-.046 4.71-.046 9.418 0 14.124.107 1.897.138 3.862.184 5.797z" fill="#1398D6"/><path d="M284.735 472.538v.237l-8.363.252a5.353 5.353 0 00-3.325 1.285l-1.131-.054c-4.18-.206-8.346-.627-12.483-1.261l-.512-.085-.382-.061-1.644-.26c-.672-.122-1.33-.275-2.002-.405l-1.613-.337-.382-.091-.39-.1-1.598-.397a26.669 26.669 0 01-3.867-1.14 15.85 15.85 0 01-.834-.367c-.061-1.208-.122-2.416-.175-3.632-.551-11.624-.91-23.256-.971-34.895 0-5.819 0-11.623.16-17.443.161-5.819.337-11.624.65-17.436.313-5.812.68-11.6 1.192-17.389.23-2.899.551-5.789.826-8.68.275-2.891.619-5.781 1.001-8.657.191-1.529.39-3.059.597-4.626.412.061.825.099 1.246.122a11.853 11.853 0 0012.275-10.361 11.86 11.86 0 00-9.31-13.093l.184-2.294.925-4.046c1.345-5.651 2.836-11.272 4.395-16.869 1.559-5.598 3.233-11.181 4.915-16.748 2.4-7.897 4.9-15.763 7.499-23.599 0 1.269.091 2.539.183 3.823a.99.99 0 00.858.87.983.983 0 001.045-.632v-.062a59.23 59.23 0 012.531-5.712 70.867 70.867 0 012.232-4.107l.42 2.348.122.665c.012.067.027.134.046.199a33.269 33.269 0 00-.397 1.736c-.199.971-.367 1.95-.574 2.921-.474 2.646-.963 5.292-1.414 7.953a408.026 408.026 0 00-1.261 7.969c-.398 2.661-.764 5.353-1.124 7.991-1.429 10.668-2.576 21.367-3.631 32.065-2.033 21.412-3.6 42.825-6.367 64.122a1064.45 1064.45 0 00-1.918 16.059 454.604 454.604 0 00-.818 8.03 61.98 61.98 0 00-.291 8.175 72.231 72.231 0 002.439 16.135 101.533 101.533 0 005.488 15.295l1.674 3.655c.527 1.201.994 2.455 1.529 3.709a32.932 32.932 0 001.758 3.747c.346.614.729 1.207 1.146 1.774.207.291.413.551.65.834.241.307.513.588.81.841.219.194.481.33.765.398.196.046.4.046.596 0a1.47 1.47 0 00.497-.199c.365-.262.677-.591.917-.971.405-.62.726-1.201 1.055-1.797.329-.597.673-1.186.986-1.782l.925-1.812c.428-.865.848-1.736 1.238-2.608a270.63 270.63 0 00.772 8.886l.23 1.912z" fill="#fff"/><path d="M289.344 264.334v.046l-.283 1.04-.344 1.3-.176.642-.084.314-.084.252a3.604 3.604 0 01-1.254 1.66 4.056 4.056 0 01-4.036.245 4.312 4.312 0 01-2.14-2.394 4.21 4.21 0 01-.16-.535l-.138-.635-.313-1.53a3.533 3.533 0 00-.039-.397v.076l-.099-.489-.061-.26-.138-.65a10.108 10.108 0 01-.114-.612c-.023-.168 0-.153 0-.222a56.09 56.09 0 013.095-4.397l.054-.069c.39-.512.764-1.009 1.2-1.529.237-.291.474-.566.718-.841.245-.276.688-.765 1.025-1.117l.542 1.583c.054.161.115.329.176.497.146.444.306.895.459 1.346.153.451.367 1.04.566 1.53.42 1.124.833 2.24 1.184 3.364l.444 1.782z" fill="#1398D6"/><path d="M284.75 252.083l.145.222a4.026 4.026 0 00-.489.436c-.375.398-.765.765-1.124 1.185-.764.803-1.445 1.629-2.117 2.47-.268.329-.512.658-.765.994a46.048 46.048 0 00-1.903 2.662c-.374.543-.764 1.093-1.078 1.659a63.824 63.824 0 00-3.126 5.674c-.405.872-.764 1.752-1.17 2.639a38.063 38.063 0 01-.298-3.487 45.078 45.078 0 01.046-4.65v-.466c0-.452.061-.91.1-1.362.114-1.368.275-2.73.412-4.099a15.77 15.77 0 01.49-2.852c.253-.935.575-1.85.963-2.738l.168-.382a30 30 0 012.629-4.695 24.587 24.587 0 011.758-2.295l.1-.114.076.145c.138.252.275.505.405.765.207.382.405.764.604 1.162.558 1.094 1.116 2.21 1.735 3.288.49.865 1.04 1.706 1.583 2.547l.856 1.292z" fill="#fff"/><path d="M271.962 492.42a126.033 126.033 0 01-11.795-.94c.122-2.294.161-4.588.138-6.921a96.05 96.05 0 00-.612-9.827c4.036.586 8.101.944 12.177 1.071a5.307 5.307 0 00-.665 2.722l.351 12.007c.021.648.159 1.288.406 1.888z" fill="#333031"/><path d="M271.939 474.258l-.069 1.53a108.427 108.427 0 01-12.177-1.071 96.05 96.05 0 01.612 9.827c0 2.294 0 4.588-.138 6.92l-.894.046a1.068 1.068 0 010-.16c-.115-2.256-.199-4.512-.306-6.776-.13-3.342-.283-6.676-.359-10.025l-1.98-.329c-.68-.122-1.361-.283-2.049-.421l-1.054-.221c.412 3.51.588 7.035.649 10.568 0 2.126 0 4.26-.091 6.378 0 .466-.046.918-.069 1.376l-.665-.145h-.061c-.673-.161-1.361-.29-2.026-.466l-2.018-.551c-.581-.161-1.177-.321-1.758-.512.244 3.586.52 7.173.764 10.752.398 5.164.821 10.331 1.269 15.501l-1.475.122c-.51-5.159-1.004-10.321-1.483-15.486-.336-3.844-.655-7.695-.956-11.555 0-.374-.053-.764-.084-1.109a978.343 978.343 0 01-1.238-18.047 55.84 55.84 0 01-.122-1.996c-.046-.765-.092-1.445-.13-2.172a661.647 661.647 0 01-.405-69.995c.313-5.827.695-11.654 1.223-17.474.229-2.906.55-5.812.833-8.718.283-2.906.627-5.804 1.017-8.694.137-1.125.29-2.249.435-3.373.061-.497.138-.994.199-1.529l.466.153c.551.164 1.113.287 1.682.367a367.488 367.488 0 00-.596 4.626c-.382 2.876-.673 5.766-1.002 8.657a255.367 255.367 0 00-.825 8.679c-.512 5.789-.887 11.586-1.193 17.39-.305 5.805-.497 11.624-.649 17.436-.153 5.812-.176 11.624-.161 17.443.061 11.639.421 23.271.971 34.895.053 1.216.115 2.424.176 3.632.275.13.55.252.833.367 1.259.477 2.552.858 3.868 1.14l1.597.397.39.1.382.091 1.613.337c.673.13 1.33.283 2.003.405l1.643.26.382.061.513.084c4.146.644 8.322 1.073 12.513 1.285zm-18.659 16.128c-.084-2.064-.161-4.129-.252-6.194-.146-3.602-.329-7.196-.451-10.798h-.046l-2.026-.52a28.546 28.546 0 01-4.036-1.292l-.153-.061c.306 5.857.665 11.707 1.078 17.55.703.191 1.422.359 2.148.52l1.995.466c.581.13 1.162.222 1.743.329zm27.006-226.052c.02.132.033.265.038.399l-.069-.322.031-.077zm-.718-24.157a.795.795 0 010 .138h-.161l.161-.138z" fill="#211F21"/><path d="M279.567 240.177l-.16.168-1.674 1.713a79.928 79.928 0 00-6.788 8.198 84.685 84.685 0 00-6.834 11.402 98.662 98.662 0 00-4.059 9.383c.024-.062.042-.126.054-.191a3.073 3.073 0 000-1.53c-.107-.451-.245-.81-.359-1.193-.115-.382-.276-.765-.421-1.132-.29-.764-.627-1.468-.978-2.187a26.575 26.575 0 00-2.584-4.037 36.937 36.937 0 01-2.69-3.618 6.4 6.4 0 01-.826-2.064 2.092 2.092 0 01.153-1.369c.124-.24.286-.457.481-.643.107-.108.225-.206.352-.29.137-.11.28-.212.428-.306l.184-.122c.573-.398 1.139-.765 1.735-1.155a134.455 134.455 0 017.934-4.696c5.259-2.898 10.702-5.567 16.052-8.32v.49c.023.481.016.971 0 1.499z" fill="#CEE1E5"/><path d="M279.476 237.921l.091.252c-5.35 2.753-10.793 5.422-16.052 8.32a145.848 145.848 0 00-7.934 4.696c-.596.374-1.162.764-1.735 1.154l-.184.123a4.757 4.757 0 00-.428.306 2.225 2.225 0 00-.352.29 2.426 2.426 0 00-.481.643 2.09 2.09 0 00-.153 1.368c.153.731.432 1.43.826 2.065a36.974 36.974 0 002.69 3.633 26.572 26.572 0 012.561 4.076c.352.718.688 1.453.978 2.187.146.374.291.764.421 1.131.13.368.252.765.359 1.193a3.073 3.073 0 010 1.53c-.012.065-.03.129-.054.191-.15.406-.375.78-.665 1.101-.284.31-.59.599-.917.864-.313.268-.627.52-.948.765-1.284.948-2.629 1.751-3.913 2.593a20.473 20.473 0 00-3.501 2.806 8.981 8.981 0 00-1.277 1.736c-.084.161-.168.321-.244.482l-1.246-.604c.091-.192.191-.367.29-.551a10.08 10.08 0 011.529-1.988 21.18 21.18 0 013.768-2.96c1.307-.864 2.622-1.667 3.822-2.585.298-.229.581-.466.856-.718.275-.235.53-.49.765-.765a1.44 1.44 0 00.329-1.53c-.085-.305-.23-.665-.36-1.017-.13-.351-.29-.695-.435-1.032a28.016 28.016 0 00-1.017-2.019 25.555 25.555 0 00-2.53-3.701 30.507 30.507 0 01-2.958-3.755 9.314 9.314 0 01-.879-1.851l-.436.306c-5.955 4.29-11.688 8.902-17.352 13.567-5.435 4.473-10.816 9.023-16.052 13.765-13.797 12.564-26.585 26.467-36.691 42.235-9.677 15.149-16.87 32.264-18.567 50.296-1.826 19.271 3.662 38.236 10.618 55.985 3.172 8.099 6.382 16.182 10.12 24.036a183.798 183.798 0 008.049 14.958l-.206-1.117a42.718 42.718 0 01-.29-10.591 57.504 57.504 0 015.794-20.135 48.733 48.733 0 015.61-8.841l.986.727a56.472 56.472 0 00-4.823 8.94 65.445 65.445 0 00-3.302 9.589 62.194 62.194 0 00-1.781 9.942 44.813 44.813 0 00.145 10.025 28.22 28.22 0 002.599 8.833c.099.206.206.405.306.604l.198.344a19.266 19.266 0 006.391 6.699c2.14 1.46 4.953 2.065 7.506 2.791l-.168 1.025a24.841 24.841 0 01-7.98-2.508 20.349 20.349 0 01-7.484-7.174 1.11 1.11 0 01-.313-.313 174.97 174.97 0 01-3.784-5.789 181.54 181.54 0 01-12.062-23.056 394.516 394.516 0 01-10.189-25.504c-6.513-18.132-10.404-37.257-7.109-56.49 3.058-17.933 11.053-34.642 21.403-49.508 10.869-15.662 24.254-29.473 38.579-41.976 5.09-4.443 10.288-8.764 15.54-13 4.723-3.824 9.486-7.647 14.485-11.073.069-.388.192-.764.367-1.117a5.125 5.125 0 011.964-2.011c.665-.421 1.322-.857 1.995-1.254 2.668-1.644 5.427-3.128 8.225-4.504 5.419-2.708 11.03-5.002 16.687-7.135zm.504-55.512c.138.526.4 1.011.764 1.415a2.144 2.144 0 01-1.467-1.086 3.93 3.93 0 01-.52-1.774 4.898 4.898 0 01.199-1.797c.159-.574.458-1.1.871-1.53-.053.605-.092 1.14-.107 1.69-.015.551 0 1.071 0 1.591.038.505.125 1.004.26 1.491z" fill="#211F21"/><path d="M277.733 242.058c-.554.734-1.065 1.5-1.529 2.294a30.403 30.403 0 00-2.599 5.536 24.062 24.062 0 00-.841 2.945 9.536 9.536 0 00-.137.673 82.33 82.33 0 00-5.351 9.681 111.486 111.486 0 00-8.011 24.349 223.25 223.25 0 00-3.822 25.572 386.886 386.886 0 00-.512 5.391 752.031 752.031 0 00-.619 7.548l-.413 5.3-.183 2.294-.299-.054a11.241 11.241 0 00-1.696-.198h-.421a12.362 12.362 0 00-1.697.114l.558-7.785a584.73 584.73 0 011.162-13.053 220.169 220.169 0 014.097-26.001 125.975 125.975 0 014.632-15.631 98.662 98.662 0 014.059-9.383 84.748 84.748 0 016.834-11.402 79.965 79.965 0 016.788-8.19zm-1.155-25.978a10.489 10.489 0 012.041 1.82c-.848-.359-1.643-.765-2.446-1.132-.802-.367-1.59-.764-2.4-1.101-.81-.336-1.605-.688-2.423-1.032-.818-.344-1.643-.658-2.484-1.04.917-.027 1.835.065 2.729.275a14.76 14.76 0 012.599.857c.836.374 1.634.827 2.384 1.353z" fill="#211F21"/><path d="M272.627 253.513c-.054.283-.092.566-.13.849-.062.52-.1 1.017-.146 1.53a679.616 679.616 0 00-.359 4.114c-.053.612-.107 1.231-.145 1.843-.077.94-.13 1.873-.168 2.814v.329c-3.241 9.34-6.35 18.723-9.326 28.149-2.629 8.412-5.144 16.824-7.407 25.358.163-1.799.334-3.596.512-5.391a223.25 223.25 0 013.822-25.572c1.72-8.391 4.4-16.556 7.988-24.334a82.493 82.493 0 015.359-9.689z" fill="#CEE1E5"/><path d="M271.641 270.077a1062.404 1062.404 0 00-7.499 23.6c-1.682 5.567-3.34 11.142-4.915 16.747-1.575 5.605-3.058 11.218-4.395 16.87l-.925 4.045.412-5.299c.194-2.519.401-5.035.62-7.548a649.929 649.929 0 017.407-25.358 1027.83 1027.83 0 019.325-28.15 75.328 75.328 0 00-.03 5.093zm.558-73.092c-.536 1.04-.627 2.118-1.246 3.235a15.181 15.181 0 01-2.026 2.822 3.047 3.047 0 00-.68.902.917.917 0 00.076.482c.077.222.191.489.291.764.522 1.051.817 2.2.863 3.373-.634-.994-1.36-1.774-2.025-2.73a7.394 7.394 0 01-.482-.765 2.301 2.301 0 01-.321-1.155c.015-.444.164-.873.428-1.231.183-.25.379-.49.589-.719l2.201-2.462c.344-.375.65-.818 1.017-1.285a4.283 4.283 0 011.315-1.231z" fill="#211F21"/><path d="M269.256 186.417l-.383 9.291a2.98 2.98 0 01-3.095 2.845l-13.11-.536a2.94 2.94 0 01-2.706-2.087c.49-2.746 1.139-5.483 1.873-8.198l.275-.979c.214-.765.428-1.529.658-2.294l3.539.153a7.93 7.93 0 00-.39 2.164c-.099 2.432.833 4.443 2.087 4.497 1.253.053 2.339-1.882 2.438-4.314a7.355 7.355 0 00-.206-2.187l7.835.322a1.229 1.229 0 01.869.413 1.248 1.248 0 01.316.91z" fill="#FAD1C9"/><path d="M267.184 180.528c1.2-.069 2.408-.245 3.692-.375a10.155 10.155 0 01-3.463 1.675 10.94 10.94 0 01-3.898.382 11.454 11.454 0 01-3.822-1.009 6.215 6.215 0 01-1.674-1.132 2.34 2.34 0 01-.764-1.827 2.52 2.52 0 001.284 1.162 8.348 8.348 0 001.628.551c1.144.274 2.306.465 3.478.573a21.78 21.78 0 003.539 0z" fill="#211F21"/><path d="M253.716 333.664a11.86 11.86 0 019.363 13.119 11.86 11.86 0 01-12.36 10.343c-.42 0-.833-.061-1.246-.123a11.221 11.221 0 01-1.681-.367l-.467-.153a2.071 2.071 0 01-.305-.114 11.845 11.845 0 01-7.644-11.303v-.283c0-.229 0-.451.046-.673a11.31 11.31 0 01.97-3.663c.275-.631.608-1.235.994-1.805a11.854 11.854 0 016.688-4.81c.502-.138 1.013-.24 1.529-.306.563-.077 1.13-.115 1.697-.114h.421a11.27 11.27 0 011.697.198l.298.054z" fill="#B5B5B5"/><path d="M253.012 484.192c.092 2.065.169 4.13.253 6.194-.581-.107-1.162-.214-1.743-.344l-1.995-.466a47.102 47.102 0 01-2.148-.52 956.836 956.836 0 01-1.078-17.551l.153.061c1.311.531 2.66.963 4.036 1.293l2.026.52h.045c.138 3.617.321 7.211.451 10.813z" fill="#333031"/><path d="M260.045 271.033a125.804 125.804 0 00-4.632 15.631 220.378 220.378 0 00-4.098 26.001c-.443 4.351-.817 8.71-1.161 13.054l-.558 7.784c-.517.066-1.027.168-1.529.306 0-3.115-.015-6.227-.046-9.337l-.283-18.583-.076-9.299c0-1.529 0-3.059-.054-4.672-.053-1.614-.168-3.105-.145-4.589a16.879 16.879 0 01.543-4.412 10.299 10.299 0 01.825-2.011 8.981 8.981 0 011.277-1.736 20.489 20.489 0 013.501-2.807c1.284-.841 2.629-1.644 3.913-2.592.321-.237.635-.49.948-.765.327-.265.633-.554.917-.864.288-.325.511-.701.658-1.109z" fill="#CEE1E5"/><path d="M258.638 269.695a1.432 1.432 0 01-.328 1.529c-.235.275-.49.531-.765.765-.275.252-.558.489-.856.719-1.192.918-2.507 1.721-3.822 2.585a21.13 21.13 0 00-3.768 2.959 10.138 10.138 0 00-1.529 1.988c-.099.184-.199.36-.291.551a12.51 12.51 0 00-.695 1.721 18.336 18.336 0 00-.764 4.772c-.077 1.59 0 3.158 0 4.687 0 1.53-.062 3.059-.077 4.634-.061 3.105-.107 6.21-.138 9.315-.053 6.209-.076 12.411 0 18.628.067 3.37.161 6.745.283 10.125a11.939 11.939 0 00-4.533 3.985 1.938 1.938 0 00-.519-.413 1.582 1.582 0 00-.428-.146h-1.56c-1.1 0-2.193 0-3.287.046l-6.497.23c-.688 0-1.383.038-2.071.046l.313-7.594a2.115 2.115 0 00-.696-1.675l.115-2.875a2.297 2.297 0 00-3.847-1.786 2.297 2.297 0 00-.739 1.595l-.123 2.883a2.13 2.13 0 00-.591.715 2.128 2.128 0 00-.234.898l-.313 7.563a24.887 24.887 0 01-2.5-.436l.252-2.982c.184-2.095.421-4.183.642-6.286.382-4.198 1.002-8.359 1.529-12.542-1.315 7.166-2.354 14.385-3.226 21.612-.038.321-.084.642-.114.963-.191 1.591-.367 3.189-.551 4.78l-.076.764a1544.221 1544.221 0 00-2.125 22.101l-.55 6.293-.467 6.309v.345l-.428-3.587-.688-5.353-.688-5.353-.626-5.353-.597-5.353c-.168-1.782-.359-3.564-.55-5.353a568.337 568.337 0 01-1.659-21.466 178.652 178.652 0 00-.092 21.596c.108 1.797.207 3.594.337 5.391l.443 5.353.566 5.353.634 5.353.765 5.353.764 5.353c.398 2.333.764 4.673 1.192 6.998-.076 1.032-.137 2.057-.206 3.097l-.367 5.582c-.428 6.546-.81 13.092-1.185 19.638-.099 1.996-.191 3.992-.29 5.988l-.665.298c-.26.123-.528.253-.764.39a16.431 16.431 0 00-4.143 3.021 16.13 16.13 0 00-.704.765 33.745 33.745 0 00-3.623 3.823 48.784 48.784 0 00-5.611 8.84 57.557 57.557 0 00-5.794 20.136 42.767 42.767 0 00.291 10.591l.206 1.117a158.03 158.03 0 01-8.056-14.744c-3.738-7.854-6.949-15.937-10.121-24.036-6.956-17.764-12.444-36.706-10.617-55.985 1.697-18.032 8.89-35.177 18.567-50.296 10.082-15.768 22.87-29.671 36.69-42.235 5.206-4.749 10.587-9.299 16.053-13.765 5.664-4.665 11.397-9.277 17.351-13.567l.436-.306c.224.648.519 1.268.879 1.851a30.7 30.7 0 002.958 3.755 25.555 25.555 0 012.53 3.701c.367.658.703 1.331 1.017 2.019.145.336.298.688.436 1.032.137.345.221.681.305.987z" fill="#E5F3F9"/><path d="M212.905 431.61c.122-2.83.247-5.654.375-8.473l.068-1.53.23-5.032c.249-5.949.53-11.894.84-17.833.26.168.528.321.803.474.466.245.948.474 1.437.673.81.334 1.649.59 2.507.765 2.298.482 4.675.443 6.956-.115a17.017 17.017 0 0010.755-8.236 24.116 24.116 0 002.362-6.385 55.008 55.008 0 001.017-6.569l.321-3.228.374-3.234c.245-2.157.482-4.313.696-6.478.413-4.305.764-8.626.994-12.954a11.866 11.866 0 004.41 2.906c0 .535.069 1.071.107 1.614-.145 1.124-.298 2.248-.436 3.372-.389 2.891-.68 5.797-1.016 8.695a238.339 238.339 0 00-.833 8.718c-.528 5.819-.91 11.647-1.223 17.474a661.649 661.649 0 00.405 69.995c.038.765.084 1.445.13 2.172.046.726.069 1.338.122 1.996a900.01 900.01 0 001.238 18.055c0 .374.054.764.084 1.109.301 3.854.62 7.705.956 11.554.469 5.165.963 10.327 1.483 15.486-7.82-.864-15.609-1.95-23.352-3.342a275.767 275.767 0 01-13.897-2.806v-5.476l.054-6.316.122-6.309v-1.147c0-.803 0-2.47.092-3.38.038-3.633.474-7.564.588-9.177" fill="#E5F3F9"/><path d="M213.601 469.219c.496.237 1.398-1.629 1.567-1.904a13.507 13.507 0 012.575-3.426 2.467 2.467 0 012.882-.52c.681.345 1.25.875 1.644 1.529 1.307 2.057 1.934 4.52 2.614 6.837a.914.914 0 00.183.397.715.715 0 00.765.1c.42-.16.827-.354 1.215-.581.084-.046.176-.092.206-.184.031-.092-.107-.352-.252-.489-.145-.138-.26-.383-.099-.497.16-.115.283 0 .397.091l.918.658c.186.111.339.269.443.459a.428.428 0 01-.153.566 1.134 1.134 0 01-.224-.448 1.13 1.13 0 01-.005-.501c.356.194.673.453.932.765a.231.231 0 01.077.119.234.234 0 01-.008.141" fill="#E5F3F9"/><path d="M247.356 356.476c-.061.497-.138.994-.199 1.529 0-.535-.076-1.071-.107-1.606.1.033.202.059.306.077zm.688-31.989c0 3.11.015 6.223.046 9.338-.744.204-1.466.481-2.156.825a621.923 621.923 0 01-.283-10.124c-.084-6.218-.061-12.42 0-18.629.031-3.105.077-6.21.138-9.314 0-1.53.076-3.121.076-4.635 0-1.514-.045-3.059 0-4.687.044-1.618.301-3.222.765-4.772.189-.59.421-1.165.695-1.721l1.246.604a10.537 10.537 0 00-.581 1.53 16.878 16.878 0 00-.542 4.412c0 1.53.084 3.059.145 4.588.061 1.53.046 3.128.053 4.673l.092 9.314.306 18.598z" fill="#211F21"/><path d="M255.023 173.799c-.405 1.216-.902 2.431-1.384 3.655a96.046 96.046 0 00-1.735 4.703h-.321a3.556 3.556 0 00-3.142 1.644v-.038a7.824 7.824 0 01-1.039-2.585 13.228 13.228 0 01-.298-2.875c-.005-.992.051-1.983.168-2.967.11-.978.289-1.946.535-2.899.209-.819.464-1.626.764-2.416a16.28 16.28 0 004.327 3.005c.685.316 1.396.575 2.125.773zm-3.929 10.698c-.168.489-.329.987-.482 1.484-.153.497-.252.764-.374 1.193l-.115.367.084-1.912a1.214 1.214 0 01.887-1.132z" fill="#333031"/><path d="M212.851 432.917a18.778 18.778 0 01-2.209-1.942c-.175-.191.184-.107 0-.321.184 0-.168-.199 0-.153.092-2.134.199-4.275.298-6.416l-.588-1.315.665-.299c.099-1.996.191-3.992.29-5.987.375-6.546.765-13.092 1.185-19.639l.367-5.582c.069-1.04.13-2.065.206-3.097-.412-2.294-.764-4.665-1.192-6.997l-.764-5.353-.765-5.353-.634-5.354-.566-5.353-.443-5.353c-.13-1.797-.23-3.594-.337-5.391a178.652 178.652 0 01.092-21.596c.428 7.189.981 14.344 1.659 21.466.191 1.782.382 3.564.55 5.353l.597 5.353.626 5.353.688 5.353.688 5.353.482 3.465v-.345l.466-6.309.55-6.293c.658-7.364 1.323-14.736 2.125-22.101.321.077.643.138.971.199-.26 3.135-.481 6.271-.718 9.406-.337 4.199-.589 8.412-.856 12.61-.469 7.281-.908 14.558-1.315 21.833l-.428 7.976v.345l.099.076c.529.376 1.086.711 1.666 1.002 1.04.54 2.152.926 3.303 1.147 1.973.368 4.003.297 5.947-.207a14.693 14.693 0 009.241-7.188c1.957-3.579 2.668-7.793 3.134-12.052l.352-3.242.389-3.228.765-6.454c.481-4.298.909-8.595 1.2-12.901.051-.81.097-1.621.138-2.432a12.005 12.005 0 001.88 2.616c-.222 4.328-.581 8.649-.994 12.954a461.016 461.016 0 01-.695 6.477l-.375 3.235-.321 3.227a54.744 54.744 0 01-1.017 6.569 24.075 24.075 0 01-2.362 6.386 17.005 17.005 0 01-10.754 8.282 15.69 15.69 0 01-6.956.114 13.724 13.724 0 01-2.508-.764c-.489-.199-.97-.429-1.437-.673a14.084 14.084 0 01-.802-.474c-.306 5.939-.586 11.883-.841 17.833l-.229 5.032-.069 1.529c-.128 2.82-.252 5.644-.375 8.473" fill="#211F21"/><path d="M240.782 350.824c-.041.811-.086 1.622-.137 2.432-.291 4.306-.719 8.603-1.201 12.901l-.764 6.454-.39 3.227-.351 3.243c-.467 4.259-1.178 8.473-3.134 12.052a14.703 14.703 0 01-9.242 7.188 13.69 13.69 0 01-5.947.207 12.134 12.134 0 01-3.302-1.147 12.728 12.728 0 01-1.666-1.002l-.1-.077v-.344c.138-2.661.281-5.32.428-7.976.413-7.285.851-14.563 1.315-21.833.268-4.206.52-8.412.856-12.61.237-3.135.459-6.271.719-9.406.932.168 1.865.321 2.797.451l-.703 17.069a2.15 2.15 0 00.398 1.33l1.62 9.078c.02.108.065.21.131.298a.715.715 0 00.251.206l.23 1.308.344-1.285a.665.665 0 00.42-.474l2.477-9.337a2.12 2.12 0 00.229-.872l.688-16.717c.627.046 1.254.077 1.88.107 2.393.092 4.808.069 7.193-.053 1.185-.046 2.37-.115 3.547-.168a11.814 11.814 0 001.414 5.75z" fill="#E5F3F9"/><path d="M240.882 338.222c.195.107.371.247.519.413a11.141 11.141 0 00-.993 1.804 2.818 2.818 0 00-.176-.443.915.915 0 00-.145-.237h-.406l-.764-.046a90.563 90.563 0 00-3.218-.054c-2.148 0-4.319.069-6.497.062h-2.148l-.184 4.588c.619 0 1.254.053 1.881.069 2.377.099 4.731.091 7.109 0l3.585-.153h.061c0 .222-.039.443-.046.673v.283c-1.177.053-2.362.122-3.547.168-2.385.122-4.8.145-7.193.053-.627 0-1.253-.061-1.88-.107l-.688 16.717a2.106 2.106 0 01-.23.872l-2.476 9.337a.68.68 0 01-.421.474l-.344 1.285-.229-1.308a.698.698 0 01-.382-.504l-1.621-9.078a2.15 2.15 0 01-.397-1.33l.703-17.069a71.325 71.325 0 01-2.797-.451c-.329-.061-.65-.122-.971-.199l.076-.764c.184-1.591.359-3.189.551-4.78 0-.321.076-.642.114-.964.872-7.226 1.911-14.445 3.226-21.611-.535 4.183-1.154 8.343-1.529 12.542-.221 2.103-.458 4.191-.642 6.286l-.252 2.982c.825.188 1.659.333 2.499.436l.314-7.563a2.141 2.141 0 01.825-1.614l.123-2.883a2.29 2.29 0 012.388-2.198 2.289 2.289 0 012.06 1.504c.104.284.151.584.138.886l-.115 2.875a2.113 2.113 0 01.696 1.675l-.313 7.593c.687 0 1.383 0 2.071-.045l6.497-.23a79.865 79.865 0 013.287-.046h1.56c.11.022.217.055.321.1zm-16.221 23.614l1.284-31.154a.763.763 0 00-.405-.704.892.892 0 00-.321-.084l-1.773-.069a.768.768 0 00-.314.054l-.122.068h-.038a.761.761 0 00-.298.566l-1.284 31.201a.768.768 0 00.718.788l1.766.068a.765.765 0 00.688-.382.76.76 0 00.099-.352zm-1.842 6.829l1.246-4.703h-.245l-1.857-.076.856 4.779zm2.454-40.178l.099-2.363a.884.884 0 00-.851-.846.886.886 0 00-.915.777l-.091 2.363 1.758.069zm-4.587 15.225l.184-4.588a26.468 26.468 0 01-2.546-.535l-.191 2.294c-.076.803-.145 1.598-.214 2.394h.107c.918.206 1.797.328 2.691.435h-.031z" fill="#211F21"/><path d="M240.232 339.996c.071.143.13.291.176.443a11.343 11.343 0 00-.971 3.664h-.061l-3.585.152a70.826 70.826 0 01-7.109 0c-.627 0-1.261 0-1.88-.068l.183-4.589h2.148c2.178 0 4.349-.053 6.497-.061 1.078 0 2.148 0 3.218.054l.765.046h.405a.913.913 0 01.214.359z" fill="#E5F3F9"/><path d="M225.945 330.682l-1.284 31.154a.753.753 0 01-.39.623.756.756 0 01-.397.096l-1.766-.069a.765.765 0 01-.718-.787l1.284-31.155a.762.762 0 01.298-.566h.038l.122-.069a.767.767 0 01.314-.053l1.773.068c.112.009.22.037.321.085a.75.75 0 01.405.673z" fill="#E52327"/><path d="M224.065 363.962l-1.246 4.703-.856-4.779 1.857.076h.245zm1.307-37.838l-.099 2.363-1.758-.069.091-2.363a.886.886 0 011.766.069z" fill="#CCCACB"/><path d="M220.908 339.155l-.183 4.588a60.332 60.332 0 01-2.66-.375h-.107c.068-.764.137-1.59.214-2.393l.191-2.294c.833.16 1.681.336 2.545.474z" fill="#E5F3F9"/><path d="M208.349 456.991c.161.199.314.405.482.604a1.785 1.785 0 00-.612.405c-.16.168-.305.352-.451.536a12.407 12.407 0 00-1.123 1.667" fill="#BED1D8"/><path d="M209.893 464.24c.39 1.476-3.057 3.35-2.293 4.497a30.35 30.35 0 001.613 2.187l.214.268a2.764 2.764 0 00-.222.183c-.6.529-1.141 1.121-1.613 1.767-.611.81 3.647 3.892 2.294 4.588l-.887 10.706a.544.544 0 01-.22.392.554.554 0 01-.437.098c-2.393-.52-4.587-1.048-6.544-2.394a19.264 19.264 0 01-6.39-6.699.962.962 0 00-.183-.466c-.1-.161-.214-.322-.321-.482a28.22 28.22 0 01-2.599-8.833 44.872 44.872 0 01-.146-10.025 62.197 62.197 0 011.782-9.942 65.468 65.468 0 013.317-9.605c1.452-3.303 9.532-14.239 13.407-14.835" fill="#BED1D8"/><path d="M224.203 468.416a3.2 3.2 0 01-.115 1.82c-1.903 5.399-8.844-.421-11.214-2.294a64.66 64.66 0 01-7.2-6.355 10.641 10.641 0 01-2.469-3.472c-.81-2.294 1.529-4.588 1.972-6.684-.122.559 1.139 1.874 1.468 2.103 2.186 1.53 3.86 3.686 6.115 5.139 2.255 1.453 4.586 2.432 6.497 4.26 1.651 1.583 4.395 3.089 4.946 5.483z" fill="#FAD1C9"/><path d="M224.203 468.416a3.2 3.2 0 01-.115 1.82c-1.903 5.399-8.844-.421-11.214-2.294a64.66 64.66 0 01-7.2-6.355 10.641 10.641 0 01-2.469-3.472c-.81-2.294 1.529-4.588 1.972-6.684-.122.559 1.139 1.874 1.468 2.103 2.186 1.53 3.86 3.686 6.115 5.139 2.255 1.453 4.586 2.432 6.497 4.26 1.651 1.583 4.395 3.089 4.946 5.483z" stroke="#211F21" stroke-width="1.67" stroke-miterlimit="10"/><path d="M195.423 479.795l-.198-.344c-.1-.199-.207-.398-.306-.604.107.16.222.321.321.481a.97.97 0 01.183.467z" fill="#211F21"/><path d="M224.883 462.657c-.038.069-.061.146-.099.207a1.965 1.965 0 01-1.911 1.078 16.955 16.955 0 01-7.323-3.265c-2.171-1.53-4.273-3.204-6.345-4.887-1.75-1.422-3.47-3.005-4.265-5.177-1.101-3.059-.405-5.919-.359-9.008 2.82 3.54 6.703 5.942 10.518 8.282 2.484 1.529 4.586 3.464 6.879 5.253 1.682 1.285 4.816 3.457 2.905 7.517z" fill="#FAD1C9" stroke="#211F21" stroke-width="1.99" stroke-miterlimit="10"/><path d="M211.101 435.234c1.529 2.486 4.281 3.824 6.604 5.461 3.394 2.347 8.6 4.328 9.28 8.97.161 1.093.191 2.6-.505 3.517-1.2 1.53-3.118.872-4.639.322a52.917 52.917 0 01-7.262-3.434 31.783 31.783 0 01-7.201-5.101 10.572 10.572 0 01-3.126-5.353c-.963-4.902 2.859-9 6.88-10.935 0 1.009-.092 2.026-.138 3.059-.038.688-.451 2.477-.145 3.059.075.15.159.295.252.435z" fill="#FAD1C9" stroke="#211F21" stroke-width="2.15" stroke-miterlimit="10"/><path d="M214.365 476.598c.06.354.077.713.053 1.071-.019.33-.088.655-.206.963a1.697 1.697 0 01-1.192 1.102 2.965 2.965 0 01-1.865-.283 10.262 10.262 0 01-2.003-1.224 31.48 31.48 0 01-1.689-1.384l-.237-.206-.979-.865-.65-.558-.282-.26a6.121 6.121 0 01-2.225-6.118c.182-.794.456-1.564.818-2.294.346-.804.742-1.585 1.185-2.34.145-.245.298-.489.466-.719.217-.311.455-.607.711-.887.046.061.099.115.153.176.352.39.718.765 1.093 1.132a48.76 48.76 0 003.898 3.441 2.153 2.153 0 00-.764 1.147 3.168 3.168 0 000 1.53c.103.476.27.937.497 1.369.107.225.235.44.382.642.073.108.155.211.245.306l.206.244a22.923 22.923 0 011.529 1.958c.422.62.714 1.32.856 2.057z" fill="#FAD1C9" stroke="#211F21" stroke-width="2.13" stroke-miterlimit="10"/><path d="M248.311 334.643l-.451-1.629c.535-.147 1.079-.26 1.629-.337l.229 1.675a10.71 10.71 0 00-1.407.291zm-6.206 4.466l-1.399-.949a12.74 12.74 0 014.854-4.267l.764 1.53a10.98 10.98 0 00-4.219 3.686zm-1.827 5.078l-1.682-.161a12.374 12.374 0 011.04-3.938l1.528.703a10.666 10.666 0 00-.886 3.396zm-.26 7.035a12.703 12.703 0 01-1.483-6.179l1.689.038a10.853 10.853 0 001.284 5.353l-1.49.788zm6.917 5.972l-.191-.045a12.815 12.815 0 01-4.716-3.128l1.223-1.17a11.064 11.064 0 004.09 2.722l-.291.765-.115.856zm4.304.773h-.52c-.445-.017-.89-.06-1.33-.13l.252-1.667c.38.059.763.094 1.147.107a11.014 11.014 0 0011.344-9.626 11.026 11.026 0 00-1.932-7.746 11.01 11.01 0 00-6.653-4.407l.352-1.652a12.704 12.704 0 01-2.652 25.128l-.008-.007z" fill="#211F21"/><path d="M249.389 357.837a13.41 13.41 0 01-1.804-.398l-.176-.061-.344-.107.581-1.591.276.092.168.054c.501.148 1.012.26 1.528.336l-.229 1.675zm-3.073-22.429l-.764-1.53a12.704 12.704 0 012.293-.879l.451 1.628c-.684.193-1.348.455-1.98.781zm-4.288 18.613a13.023 13.023 0 01-2.01-2.799l1.49-.765a11.334 11.334 0 001.743 2.432l-1.223 1.132zm11.519-19.531l-.259-.046a10.104 10.104 0 00-1.598-.191h-.359a9.359 9.359 0 00-1.613.099l-.229-1.667c.604-.09 1.215-.131 1.826-.122h.444c.611.02 1.219.089 1.819.206l.313.061-.344 1.66zm-12.367 6.286l-1.529-.673c.299-.679.659-1.33 1.078-1.942l1.399.94a10.16 10.16 0 00-.948 1.675zm-2.645 4.305v-.321c0-.268 0-.512.061-.765l1.674.192c0 .198 0 .405-.046.604-.046.199 0 .168 0 .237l-1.689.053z" fill="#211F21"/><path d="M247.111 357.279a3.788 3.788 0 01-.382-.138l.642-1.529.237.091-.497 1.576z" fill="#211F21"/><path d="M354.967 337.205l-17.547.816a1.21 1.21 0 00.112 2.414l17.547-.816a1.208 1.208 0 00-.112-2.414zm.397 4.183l-14.897.693a1.207 1.207 0 10.112 2.413l14.897-.692a1.208 1.208 0 00-.112-2.414z" fill="#E2E0E0"/><path d="M251.438 350.389a5.567 5.567 0 005.565-5.568 5.566 5.566 0 10-11.13 0 5.566 5.566 0 005.565 5.568z" fill="#EAEAEA"/><path d="M245.858 44.033c.038.107.038.123 0 .1a.21.21 0 000-.062.315.315 0 000-.061v.023zm-2.989-2.7c.122.054.13.062.084.046h-.038l-.145-.084.099.038zm-1.53 18.315h-.091a.576.576 0 01.091 0zm-1.65-4.878l-.099.06h.053l.046-.06zm-.672 6.622l-.131.138a.647.647 0 01.131-.138zm-1.643 2.248l-.039.085a.272.272 0 01.039-.085zm-1.079 3.518a.787.787 0 010 .153.237.237 0 010-.153zm-2.638-25.144h-.091a.253.253 0 01.091 0zM187.589 53.66l-.054.085-.046.054s.061-.1.1-.139z" fill="#E52327"/><path d="M187.275 38.083a1.65 1.65 0 010 .199.55.55 0 000-.115v-.084z" fill="#fff"/><path d="M187.275 38.106a.552.552 0 010 .115.552.552 0 010-.115zm-.313-3.931a.481.481 0 010 .108.736.736 0 010-.115v.007zm-.023-.053a.125.125 0 010 .047v-.047zm-.742-1.843c.054.107.054.115 0 .092l-.099-.214.099.122z" fill="#fff"/><path d="M185.456 57.278s-.038.084-.054.13a1.01 1.01 0 01.054-.13z" fill="#E52327"/><path d="M185.303 31.125v-.047a.372.372 0 010 .047zm-.068-.084l-.062-.07a.442.442 0 01.062.07z" fill="#fff"/><path d="M185.074 66.349a.204.204 0 010-.086v.047a.085.085 0 010 .038zm-.092-.262c.009.06.022.118.038.176a.507.507 0 01-.038-.176zm-.428-5.062a1.778 1.778 0 000 .206.477.477 0 010 .054s-.008-.16 0-.26z" fill="#E52327"/><path d="M184.133 30.222h-.045l-.161-.107a.32.32 0 01.107.06l.099.047z" fill="#fff"/><path d="M182.812 48.315a.91.91 0 01-.062.086l.062-.086z" fill="#E52327"/><path d="M177.492 29.304h-.123c-.08.021-.162.034-.245.039l.368-.039zm-3.348 1.101h-.077l-.1.039.177-.039z" fill="#fff"/><path d="M168.372 34.803l-.053.069-.039.053s0 .046-.046.046a.768.768 0 01.138-.168z" fill="#1597D5"/><path d="M236.333 65.613a.287.287 0 00-.038.084l.038-.084zm-.902-22.544c-.328.107-1.612.597-2.048.765h-.099l-.184.122c-.145.092-.298.184-.436.29a7.649 7.649 0 00-.856.704c-.97.91-2.851.46-3.822-.436a2.193 2.193 0 01.115-3.319c2.935-2.745 8.095-3.877 12.551-3.112 4.587.765 8.944 3.656 10.136 7.823 1.131 3.954-.703 8.145-3.417 10.943a21.099 21.099 0 01-4.663 3.61c-.535.313-1.077.604-1.635.887-.204.115-.413.22-.627.314a.576.576 0 00-.115.06h.046-.053c-.73.427-1.423.913-2.072 1.454l-.321.29.138-.137a.537.537 0 00-.161.16 2.619 2.619 0 00-.229.268 9.22 9.22 0 00-.696.849c-.244.336-.458.696-.688 1.055a.24.24 0 010-.053.413.413 0 00-.053.084l-.046.107c-.077.145-.138.306-.214.466-.334.765-.59 1.562-.765 2.378 0 .092-.045.2-.076.306a.245.245 0 000 .077.05.05 0 000 .038c0 .122 0 .252-.038.367-.061.467-.1.933-.13 1.407-.092 1.308-1.231 2.164-2.737 2.065-1.505-.1-2.721-1.407-2.644-2.63.275-4.03 1.528-7.732 4.586-10.6a19.793 19.793 0 014.41-2.837.715.715 0 01.153-.076h.061l.1-.054.52-.298c.344-.207.688-.42 1.016-.642a18.377 18.377 0 002.011-1.53c.061-.046.214-.206.305-.283.092-.076.23-.237.337-.36a8.17 8.17 0 00.764-.955c.222-.329.474-.673.696-1.025l.084-.115v-.046c.099-.175.168-.367.252-.543.168-.374.313-.764.443-1.147.069-.214.123-.428.176-.642 0-.061.077-.42.084-.42v-1.369.084c0-.07-.046-.344-.061-.413-.053-.214-.115-.42-.176-.635v-.1a.215.215 0 010 .062l-.076-.191a8.037 8.037 0 00-.275-.49l-.115-.183-.061-.092-.061-.084c-.069-.069-.138-.153-.199-.222a10.126 10.126 0 00-.489-.482l-.115-.107-.061-.046-.352-.252c-.221-.145-.451-.29-.695-.428a2.3 2.3 0 01-.23-.13l-.084-.046-.099-.038.107.053-.344-.145-.581-.222c-.255-.081-.51-.158-.764-.23l-.23-.045h.084c-.336 0-.688-.107-1.039-.146a20.224 20.224 0 00-1.3-.076h-.175c-.23 0-.459 0-.688.053-.428 0-.856.092-1.269.169l-.574.114h-.191l-.046.008zm-3.73 33.403a3.063 3.063 0 011.637 4.431 3.053 3.053 0 01-3.049 1.49 3.056 3.056 0 01-2.486-4.017 3.07 3.07 0 011.553-1.763 3.054 3.054 0 012.345-.14zM184.653 57.56a1.033 1.033 0 00-.061.13c.015-.045.046-.091.061-.13zm-2.232-27.874l-.703-.168a20.645 20.645 0 00-1.131-.191l-.428-.046h-.13.13-1.437c-.283 0-.765.061-1.139.107h.053c-.069 0-.26.046-.367.061.082.008.163.008.245 0-.52.13-1.04.237-1.529.383-.489.145-1.162.39-1.743.596l-.214.084a.452.452 0 00.1 0l-.123.054c-.298.137-.588.283-.871.428a15.4 15.4 0 00-1.529.887c-.237.145-.459.298-.688.451l-.183.13-.046.039c-.207.183-1.758 1.606-2.293 2.133a.942.942 0 00-.153.184l.046-.046c-.054.084-.123.16-.184.245-.145.206-.275.405-.405.611-.286.436-.541.89-.764 1.362-.765 1.697-3.455 2.103-5.16 1.437a3.056 3.056 0 01-1.984-3.106 3.07 3.07 0 01.379-1.253c2.369-5.116 8.454-9.291 14.638-10.66 6.375-1.407 13.53 0 17.283 4.81 3.554 4.535 3.378 10.936 1.322 15.998a29.722 29.722 0 01-4.204 7.02 68.614 68.614 0 01-1.651 2.012l-.65.764a.269.269 0 01-.061.07l.053-.085c0 .038-.175.206-.129.176a19.59 19.59 0 00-1.896 2.967c-.092.176-.176.36-.275.543a.224.224 0 00-.039.076c-.053.146-.091.291-.145.429-.174.48-.322.97-.443 1.468-.153.574-.229 1.147-.336 1.736a1.778 1.778 0 010-.153v.26a.477.477 0 000-.054v.857a19.21 19.21 0 00.259 3.487c.039.168.069.344.092.512.006.077.006.153 0 .23v-.222a.738.738 0 000 .176.2.2 0 000 .084c0 .16.1.314.13.451.168.635.359 1.27.566 1.897.573 1.743-.451 3.456-2.462 4.122-1.872.619-4.272-.383-4.808-2.012-1.773-5.353-2.056-10.874.39-16.189a26.637 26.637 0 014.227-6.003l.138-.176v-.038a.738.738 0 00.061-.084.488.488 0 00.084-.092c.161-.214.336-.428.489-.65.337-.443.665-.902.979-1.361.666-.979 1.266-2 1.796-3.059.061-.13.229-.535.283-.65a11.4 11.4 0 00.214-.528 18.126 18.126 0 00.879-3.35c0-.068 0-.152.046-.229 0-.091.038-.153.038-.198v-.765c.022-.571.009-1.143-.038-1.713a9.267 9.267 0 00-.1-.925c0-.077-.068-.36-.099-.505.011.039.023.077.038.115a.48.48 0 000-.108.09.09 0 000-.045 1.632 1.632 0 01-.046-.138c0-.13-.068-.252-.107-.382-.038-.13-.175-.498-.275-.765-.099-.268-.153-.329-.221-.49v-.091l-.077-.153.092.221a13.05 13.05 0 00-.298-.497c-.176-.244-.375-.481-.558-.764a.294.294 0 00-.069-.077l-.061-.069.061.077v.046a2.811 2.811 0 00-.199-.207 11.768 11.768 0 00-.619-.497c-.038 0-.153-.1-.26-.19a.403.403 0 00-.099-.077.28.28 0 00-.107-.07l.16.116-.252-.138-.359-.184c-.298-.137-.596-.26-.902-.374l-.222-.085zm5.45 52.139a4.293 4.293 0 01-2.435 4.108 4.296 4.296 0 01-4.427-7.318 4.292 4.292 0 015.444.244 4.297 4.297 0 011.418 2.966zm-41.254 9.498a3.057 3.057 0 11-5.784 1.597 3.058 3.058 0 015.784-1.597zm-12.528-24.938v-.489a21.313 21.313 0 00-.138-1.224 11.599 11.599 0 00-.26-1.223 1.62 1.62 0 01-.045-.206v.068c-.054-.244-.054-.221 0-.114a4.498 4.498 0 00-.199-.528 10.46 10.46 0 00-.52-1.109 10.68 10.68 0 00-.329-.581l-.214-.298-.145-.115-.183-.214c-.123-.138-.26-.275-.39-.405l-.283-.26-.076-.062a.332.332 0 00.076.062l-.313-.215c-.192-.122-.398-.221-.597-.328-.137-.077-.076 0 0 0h.054l-.184-.077-.55-.145-.206-.046h-1.46c-.168 0-.337.053-.497.092-.161.038-.528.114-.765.198l-.244.077h-.13.099l-.39.153-.558.268c-.237.114-.451.244-.68.374.054-.046-.038 0-.122.084h.069c-.314.237-.627.452-.925.704-.298.252-.589.535-.887.765-.153.176-.306.344-.451.527a16.66 16.66 0 00-.764 1.033c-.107.16-.222.329-.314.49l-.046.06a.921.921 0 00-.061.1l-.046.084c-.145.306-.665 1.53-.848 1.973a.646.646 0 00-.054.16c.004.07.004.138 0 .207-.038.176-.068.344-.099.512-.047.368-.075.738-.084 1.11 0 1.33-1.659 2.362-2.958 2.431a2.196 2.196 0 01-2.18-1.468 2.187 2.187 0 01-.113-.926c.068-4.022 2.851-8.511 6.497-11.18 3.646-2.669 8.844-3.885 12.673-1.835 3.624 1.934 5.351 6.171 5.466 10.071a20.766 20.766 0 01-.65 5.858c-.153.604-.321 1.2-.497 1.79l-.206.688a.24.24 0 000-.054.592.592 0 000 .084.701.701 0 010 .092 13.48 13.48 0 00-.39 2.5v.429a.353.353 0 010-.092v.107c-.008.13-.008.26 0 .39.024.367.068.732.13 1.094.076.413.183.81.283 1.223a.09.09 0 000 .046l.046.115c.053.16.114.329.183.482a13.8 13.8 0 001.17 2.202c.076.1.137.207.214.306a.909.909 0 01.099.153l-.038-.038a.375.375 0 00-.046-.07.375.375 0 00.046.07l.038.046c.069.091.145.175.214.252.291.375.596.765.91 1.07.879.98.695 2.394-.413 3.411-1.108 1.017-2.905.971-3.73.069-2.706-3.005-4.472-6.515-4.396-10.706a19.123 19.123 0 011.025-5.147 1.45 1.45 0 00.038-.145.395.395 0 010-.069.477.477 0 000-.053.59.59 0 010-.084c.038-.192.084-.383.138-.566.091-.39.168-.765.237-1.178.156-.833.253-1.677.29-2.524v-.52a.426.426 0 01-.321.214z" fill="#1398D6"/><path d="M139.509 80.465a.094.094 0 010-.047v.047zm-.184-5.805a.168.168 0 010 .055.251.251 0 010-.055zm-.344 3.082v-.107a.384.384 0 000 .107zm-4.311-13.046v-.115c0-.046-.061-.13 0 .115zm-2.431-3.594a.335.335 0 01-.076-.062l.076.062zm-1.887-.75h-.123c.092-.008.123-.008.123 0z" fill="#E52327"/><path d="M125.597 61.752c.084-.07.176-.13.122-.085l-.122.085z" fill="#fff"/><path d="M121.339 67.884a.168.168 0 010 .055.5.5 0 010-.055z" fill="#1597D5"/></g><defs><clipPath id="clip0_161_1906"><path fill="#fff" d="M0 0h567v522H0z"/></clipPath></defs></svg>