<svg width="87" height="20" fill="none" xmlns="http://www.w3.org/2000/svg"><path d="M.746 15.911a.5.5 0 00.508.862l-.508-.862zm85.36.92a.5.5 0 00.383-.595l-.957-4.398a.5.5 0 00-.977.213l.85 3.909-3.909.85a.5.5 0 00.213.977l4.397-.956zm-84.852-.058a217.864 217.864 0 014.97-2.845l-.484-.874A218.438 218.438 0 00.746 15.91l.508.862zm15.121-8.024c3.7-1.705 7.21-3.1 10.58-4.194l-.31-.95c-3.413 1.107-6.96 2.517-10.688 4.235l.418.909zM37.989 1.97c3.86-.525 7.596-.608 11.3-.265l.091-.996C45.6.36 41.787.445 37.853.98l.135.991zm22.38 2.016c3.427 1.079 6.91 2.504 10.521 4.264l.439-.898c-3.648-1.779-7.177-3.223-10.66-4.32l-.3.954zm20.51 9.75c1.584.955 3.2 1.964 4.852 3.026l.54-.842a200.188 200.188 0 00-4.876-3.04l-.516.856zM.492 15.48a1 1 0 001.016 1.724L.492 15.48zm85.72 1.84a1 1 0 00.765-1.19l-1.912-8.795a1 1 0 00-1.955.425l1.7 7.817-7.817 1.7a1 1 0 00.425 1.955l8.794-1.913zm-84.704-.116a217.202 217.202 0 014.959-2.838l-.97-1.75c-1.631.905-3.299 1.86-5.005 2.864l1.016 1.724zm15.077-8.001c3.684-1.698 7.175-3.085 10.524-4.172l-.618-1.902c-3.435 1.115-7 2.532-10.743 4.257l.837 1.817zm21.47-6.736c3.825-.521 7.522-.603 11.186-.263l.184-1.992a50.92 50.92 0 00-11.64.273l.27 1.982zm22.163 1.997c3.4 1.07 6.86 2.485 10.452 4.237l.877-1.798c-3.666-1.787-7.218-3.242-10.728-4.347l-.601 1.908zm20.402 9.701a199.15 199.15 0 014.84 3.018l1.08-1.682a200.305 200.305 0 00-4.887-3.049l-1.033 1.713z" fill="#BBB"/></svg>