<svg width="154" height="138" fill="none" xmlns="http://www.w3.org/2000/svg"><path d="M143.3 64.878c-4.542-10.49-15.068-10.75-16.603-21.085-1.885-12.636 12.813-19.043 10.3-29.025-2.338-9.236-18.107-16.69-31.239-14.326C87.826 3.655 87.609 22.864 68.184 26.71c-10.084 1.99-12.658-2.664-28.077 0-9.208 1.586-18.828 3.244-22.145 9.94-4.645 9.413 7.9 19.126 3.172 28.259C17.107 72.683 6.282 69.055 1.75 76.85c-4.954 8.541 1.113 24.827 11.866 32.238 9.012 6.22 15.717 2.354 28.468 7.163 14.78 5.577 13.689 14.814 24.524 19.509 22.35 9.682 51.581-15.103 52.993-16.326 14.842-12.937 31.012-37.691 23.699-54.557z" fill="#029ADD"/><path d="M96.292 29.011c2.323 0 4.591.713 6.501 2.044a11.48 11.48 0 014.19 5.404c.818 2.188.954 4.576.389 6.844a11.51 11.51 0 01-3.551 5.85c-.39.352-.807.675-1.246.963a11.21 11.21 0 01-1.03.612 11.352 11.352 0 01-5.253 1.285 10.726 10.726 0 01-2.317-.238 11.411 11.411 0 01-5.81-3.177 11.53 11.53 0 01-3.09-5.883 9.922 9.922 0 01-.174-1.254 9.452 9.452 0 010-.944 11.554 11.554 0 013.337-8.118 11.406 11.406 0 018.054-3.388zm7.025 7.702a.706.706 0 00.102-.536.703.703 0 00-.308-.449c-.155-.102-.343-.14-.525-.102a.702.702 0 00-.444.3l-6.468 9.857-4.346-6.157a.713.713 0 00-.77-.296.707.707 0 00-.26.13.702.702 0 00-.298.775.7.7 0 00.133.262l4.944 6.872.051.073.062.062.093.083h.072l.165.052h.134a.35.35 0 00.144 0 .503.503 0 00.216-.083h.062l.072-.083 7.169-10.76zM86.559 76.871a18.682 18.682 0 007.21 4.012 22.584 22.584 0 0013.225.104v18.659a2.73 2.73 0 01-.423 1.461l-2.729-2.177-1.247-1.036L81.501 81.11l5.058-4.24z" fill="#fff"/><path d="M104.347 61.934a2.763 2.763 0 011.896.856c.498.523.774 1.22.771 1.943v16.254a22.581 22.581 0 01-13.225-.104 18.681 18.681 0 01-7.21-4.011l16.017-13.476 1.246-1.037.505-.425z" fill="#F3F8F9"/><path d="M78.896 80.997l1.41 1.13 22.269 17.778 1.246 1.036 1.556 1.255c-.378.19-.794.29-1.216.29H75.507c3.945-2.011 6.602-4.437 6.798-7.163.36-5.183-8.6-7.62-14.615-13.746l.607-.487 3.564-2.799a2.843 2.843 0 013.636 0l3.399 2.706z" fill="#fff"/><path d="M96.024 47.64a.185.185 0 00.072 0h-.072z" fill="#CCE8EF"/><path d="M85.807 57.33h9.558a.78.78 0 01.726.494c.039.097.058.2.057.305a.508.508 0 010 .124.779.779 0 01-.773.664H84.622a14.22 14.22 0 011.185-1.586zm9.507 5.122a.788.788 0 01.814.467.802.802 0 01-.484 1.087.787.787 0 01-.33.032H82.573c.101-.535.232-1.065.391-1.586h12.35z" fill="#B5D9E2"/><path d="M96.292 53.558a12.406 12.406 0 01-1.215-.083l-.546-.072-.433-.063h-.195a1.687 1.687 0 01-.33-.062l-.288-.062-.35-.093-.454-.135-.68-.239a19.177 19.177 0 012.225-.953 10.75 10.75 0 002.318.238c1.828.001 3.63-.44 5.253-1.285.777.063 1.549.188 2.307.373v9.61h.37a4.017 4.017 0 012.842 1.19 4.066 4.066 0 011.175 2.862V80.52c-.403.177-.816.333-1.236.467V64.733a2.793 2.793 0 00-.771-1.943 2.763 2.763 0 00-1.896-.856l-.484.404-1.247 1.037L86.641 76.85a16.332 16.332 0 01-1.215-1.306l7.859-6.614H82.449a13.716 13.716 0 01-.134-1.586h12.762l.67-.56 5.798-4.882 1.03-.871V51.91a12.626 12.626 0 01-6.283 1.648z" fill="#B5D9E2"/><path d="M92.904 53.102l.35.093.288.062c.108.03.218.052.33.062h.195l.433.062.577.094c.414.041.83.062 1.246.062 2.201.008 4.366-.56 6.283-1.648v9.143l-1.03.87-5.799 4.883-.67.56h-12.77a14.74 14.74 0 01.258-3.328h12.74a.789.789 0 00.814-.467.803.803 0 00-.484-1.087.789.789 0 00-.33-.032h-12.36c.2-.666.455-1.315.763-1.938.26-.553.56-1.087.896-1.597h10.753a.77.77 0 00.772-.663.517.517 0 000-.125.794.794 0 00-.48-.737.78.78 0 00-.302-.06h-9.569a19.018 19.018 0 015.922-4.603l.68.238.495.156z" fill="#F3F8F9"/><path d="M95.808 47.722a.327.327 0 01-.144 0h-.134l-.165-.052h-.072l-.093-.083-.061-.062-.052-.073-4.892-6.924a.707.707 0 01.165-1.037.709.709 0 011.03.166l4.346 6.158 6.468-9.859a.696.696 0 01.968-.197.7.7 0 01.311.727.69.69 0 01-.105.258l-7.034 10.719-.072.083h-.062a.182.182 0 01-.072 0 .504.504 0 01-.33.176z" fill="#CCE8EF"/><path d="M90.772 52.303l.483.229.485.197a19.022 19.022 0 00-5.933 4.602H64.589c0-.529.114-1.037.155-1.68.041-.642.093-1.036.144-1.523h4.285a.78.78 0 00.553-.23.8.8 0 000-1.118.79.79 0 00-.553-.238h-4.12c.093-1.099.175-2.156.247-3.162h3.75a.78.78 0 00.553-.23.8.8 0 000-1.118.79.79 0 00-.554-.238h-3.636c.124-1.855.206-3.545.206-5.08h17.922c.027.193.065.383.113.571 0 .197.083.373.134.56v.145c0 .135.072.27.124.414.051.146.113.353.175.53l.185.486.144.343a8.1 8.1 0 00.536 1.036v.062c0 .083.093.145.134.218.132.239.276.47.433.694l.308.446.186.249.432.529c.124.145.258.29.392.425.14.156.287.305.443.446l.453.435c.216.186.433.352.649.518h.062c.195.156.401.3.618.446.108.08.222.153.34.218.116.078.236.15.36.217.186.104.37.208.567.3.136.117.285.218.443.301z" fill="#fff"/><path d="M85.344 75.566a13.65 13.65 0 01-1.988-3.307 14.37 14.37 0 01-.907-3.307h10.753l-7.858 6.614z" fill="#F3F8F9"/><path d="M64.424 58.917h20.198c-.336.51-.635 1.043-.896 1.596a12.419 12.419 0 00-.762 1.939H63.92c.165-1.016.34-2.177.504-3.535z" fill="#fff"/><path d="M85.076 42.715a11.53 11.53 0 003.09 5.882 11.411 11.411 0 005.809 3.178c-.761.27-1.504.589-2.225.954l-.484-.197-.484-.228a3.083 3.083 0 01-.371-.187 9.786 9.786 0 01-.567-.3 4.151 4.151 0 01-.36-.218 3.085 3.085 0 01-.34-.218 13.11 13.11 0 01-.618-.446h-.062l-.649-.518-.453-.436a5.99 5.99 0 01-.443-.445 7.646 7.646 0 01-.391-.425l-.433-.529-.185-.249-.309-.445a7.84 7.84 0 01-.433-.695c0-.072-.092-.135-.134-.218v-.062c-.195-.352-.37-.705-.535-1.036l-.144-.343-.186-.487c-.061-.176-.123-.352-.175-.528-.051-.177-.082-.28-.123-.415v-.145c0-.187-.093-.363-.134-.56a5.09 5.09 0 01-.114-.57H65.702v-1.254h17.767v-.944a13.108 13.108 0 011.653-6.38 13.005 13.005 0 014.544-4.752 12.889 12.889 0 0112.67-.48 12.986 12.986 0 014.886 4.394 13.107 13.107 0 01.946 12.725 13.025 13.025 0 01-4.182 5.077 14.843 14.843 0 00-2.307-.373c.354-.186.698-.39 1.03-.612.439-.289.856-.61 1.246-.964a11.5 11.5 0 003.187-4.683A11.555 11.555 0 00105.53 33.7a11.44 11.44 0 00-4.405-3.544 11.36 11.36 0 00-10.902.813 11.467 11.467 0 00-3.838 4.16 11.553 11.553 0 00-1.392 5.501c-.015.315-.015.63 0 .944.006.381.033.762.083 1.14z" fill="#B5D9E2"/><path d="M85.343 75.566l-5.252 4.426-3.677-2.944a4.35 4.35 0 00-5.552 0l-3.8 2.985-2.06-1.741a16.425 16.425 0 01-2.195-5.287 10.193 10.193 0 01-.195-4.043h19.796a14.37 14.37 0 00.906 3.307c.517 1.19 1.2 2.3 2.03 3.297zm-3.028-8.2H62.931c.196-.913.433-1.98.69-3.328h18.952a14.765 14.765 0 00-.258 3.328z" fill="#fff"/><path d="M69.183 52.542a.791.791 0 01.554.238.8.8 0 010 1.117.78.78 0 01-.554.231h-4.285c0-.539.083-1.036.134-1.586h4.151zm-.155-4.748a.79.79 0 01.555.238.8.8 0 01-.001 1.118.78.78 0 01-.553.23h-3.75c0-.539.083-1.036.114-1.586h3.635z" fill="#B5D9E2"/><path d="M75.507 102.445H42.733a2.697 2.697 0 01-1.215-.249l1.916-1.513 1.235-1.037 22.176-17.488.803-.632c6.015 6.126 14.976 8.531 14.616 13.745-.196 2.778-2.853 5.163-6.757 7.174z" fill="#F3F8F9"/><path d="M70.862 77.037a4.35 4.35 0 015.551 0l3.677 2.944 5.253-4.426c.382.457.787.893 1.216 1.306l-5.058 4.24 21.074 16.824 1.246 1.037 2.73 2.177c.276-.437.422-.944.422-1.462V81.018c.42-.134.832-.29 1.236-.466v19.125a3.99 3.99 0 01-.68 2.239 4.235 4.235 0 01-1.03 1.109 4.03 4.03 0 01-2.256.695H72.736a37.497 37.497 0 002.73-1.244h28.726a2.687 2.687 0 001.184-.28l-1.586-1.254-1.246-1.037-22.237-17.778-1.411-1.13-3.389-2.747a2.842 2.842 0 00-3.636 0l-3.574 2.8-.608.486a19.674 19.674 0 01-2.605-3.255l2.06 1.742 3.718-2.986zM52.23 47.794h13.163c0 .519-.072 1.037-.114 1.587H52.23a.779.779 0 01-.732-.484.8.8 0 01.172-.868.79.79 0 01.56-.235zm.144 4.748h12.658a65.561 65.561 0 00-.134 1.586H52.374a.78.78 0 01-.554-.23.8.8 0 010-1.118.79.79 0 01.554-.238z" fill="#B5D9E2"/><path d="M62.849 72.995a16.427 16.427 0 002.194 5.286l-10.784-9.33h8.394a10.193 10.193 0 00.196 4.044z" fill="#F3F8F9"/><path d="M84.622 58.917H64.424c.062-.498.124-1.037.175-1.586h21.208c-.431.5-.827 1.03-1.185 1.586z" fill="#B5D9E2"/><path d="M64.6 57.33c-.052.56-.114 1.037-.175 1.587H52.364a.778.778 0 01-.733-.484.792.792 0 01-.06-.304v-.135a.8.8 0 01.782-.663H64.6zm-.68 5.122h19.044c-.16.52-.29 1.05-.391 1.586H63.62c.103-.487.206-1.016.299-1.586z" fill="#B5D9E2"/><path d="M52.302 62.452H63.92c-.093.57-.196 1.099-.299 1.586h-11.33a.787.787 0 01-.814-.466.803.803 0 01.484-1.088.789.789 0 01.33-.032h.01z" fill="#B5D9E2"/><path d="M52.363 58.917h12.061a87.453 87.453 0 01-.505 3.535H52.301a.789.789 0 00-.814.467.802.802 0 00.484 1.087.789.789 0 00.33.032h11.33c-.257 1.347-.494 2.415-.69 3.327H52.435l-.607-.528-5.696-4.914-1.442-1.244V46.22c0-.933.368-1.826 1.023-2.485a3.48 3.48 0 012.468-1.03H65.62c0 1.535-.082 3.224-.206 5.08H52.229a.79.79 0 00-.56.233.8.8 0 000 1.126.783.783 0 00.56.227h13.05a203.145 203.145 0 01-.247 3.161H52.374a.791.791 0 00-.555.238.8.8 0 000 1.118.78.78 0 00.554.23h12.525c-.051.498-.093 1.037-.144 1.524-.052.488-.103 1.15-.155 1.68H52.363a.79.79 0 00-.783.663v.135a.792.792 0 00.481.737c.096.04.199.061.302.061z" fill="#F3F8F9"/><path d="M82.315 67.366c.014.53.059 1.06.134 1.586H62.653c0-.498.165-1.037.278-1.586h19.384zm-37.637-6.688h-.008v-.01l.008.01zm-1.244 1.246v.01l-.021-.01h.021z" fill="#B5D9E2"/><path d="M43.433 61.934l1.236 1.037L65.66 81.1 44.67 97.687l-1.237.964-3.09 2.426a2.773 2.773 0 01-.412-1.451V64.733c0-.743.293-1.456.814-1.983a2.782 2.782 0 011.968-.826h.7l.02.01z" fill="#F3F8F9"/><path d="M44.67 63.012l-1.237-1.037h-.7c-.738.003-1.446.3-1.967.827a2.819 2.819 0 00-.814 1.983v34.913c0 .513.143 1.015.412 1.451l3.09-2.426 1.236-.964 20.991-16.585-21.012-18.162zm20.372 15.27a19.674 19.674 0 002.606 3.254l-.803.633-22.176 17.487-1.236 1.037-1.915 1.503c.377.191.793.29 1.215.29h32.774a37.06 37.06 0 01-2.73 1.244H42.734a4 4 0 01-2.266-.705 4.235 4.235 0 01-1.03-1.109 4.05 4.05 0 01-.67-2.229V64.733a4.07 4.07 0 01.923-2.6 4.022 4.022 0 012.363-1.402c.225-.041.452-.062.68-.062h.7V46.22c0-1.263.498-2.474 1.385-3.368a4.723 4.723 0 013.343-1.4H65.6v1.254H48.16a3.48 3.48 0 00-2.469 1.029 3.526 3.526 0 00-1.023 2.485v14.45l1.442 1.244 5.707 4.924.607.529H62.93c-.113.57-.227 1.036-.278 1.586h-8.395l10.784 9.33z" fill="#B5D9E2"/><path fill-rule="evenodd" clip-rule="evenodd" d="M103.628 35.053a1.53 1.53 0 00-2.12.436l-.002.004-5.795 8.831-3.633-5.146a1.55 1.55 0 00-1.668-.631c-.194.05-.376.138-.537.258a1.54 1.54 0 00-.652 1.034 1.556 1.556 0 00.304 1.193l4.88 6.907.092.131.129.129.349.312h.262l.165.052h.198c.117.014.236.01.353-.012.111-.018.22-.05.322-.095a1.02 1.02 0 00.202-.07h.174l.36-.413 7.064-10.763s.001 0 0 0a1.546 1.546 0 00.225-1.175 1.552 1.552 0 00-.672-.982z" fill="#CCE8EF"/><path d="M142.548 45.4c-.278 0-6.375-1.037-8.239-6.148-1.947-5.317 1.709-12.439 7.632-13.476 4.841-.87 9.27 2.665 10.99 6.459.432.943 2.173 5.1 0 8.904-2.174 3.804-7.025 4.758-10.383 4.26z" fill="#029ADD"/></svg>