<svg width="136" height="138" fill="none" xmlns="http://www.w3.org/2000/svg"><path d="M120.329 108.355c-.35-8.744-10.869-11.008-10.229-18.344.891-10.2 21.61-10.033 25.333-22.922 2.653-9.167-4.444-20.943-12.181-26.496-8.728-6.263-13.963-1.507-26.794-7.13-13.643-5.966-12.642-13.489-22.41-16.807-15.745-5.376-37.035 7.877-47.755 24.449-9.438 14.65 1.692 28.091-8.768 40.242-6.115 7.109-12.1 6.311-15.594 14.267-3.343 7.621-2.432 18.787 3.413 24.458 5.705 5.524 11.45 1.32 25.824 4.579 14.093 3.2 13.822 8.428 26.794 11.717 16.225 4.116 30.198-.621 35.082-2.55 9.109-3.585 27.806-13.647 27.285-25.463zm-14.613-88.302c-6.316-2.442-12.121-9.216-10.55-13.932 1.882-5.662 14.574-8.724 21.68-3.25 4.414 3.407 7.397 10.723 4.214 15.223s-11.16 3.564-15.344 1.96z" fill="#029ADD"/><path d="M107.778 64.982l.21-.157 1.541-1.241a2.645 2.645 0 011.862-.551 2.39 2.39 0 011.632.866 1.949 1.949 0 01.41 1.497 2.156 2.156 0 01-.831 1.408l-1.851 1.457-.211.157-2.762-3.436zm-.941.798l2.753 3.426-2.783 2.176a54.487 54.487 0 00-1.511-4.401l1.541-1.201z" fill="#fff"/><path d="M109.53 63.603l-1.542 1.241-.21.158 2.763 3.436.21-.158 1.851-1.457c.453-.345.751-.85.831-1.408a1.932 1.932 0 00-.41-1.497 2.39 2.39 0 00-1.632-.866 2.641 2.641 0 00-1.861.551zm-.791-.984a3.877 3.877 0 012.773-.818 3.604 3.604 0 012.502 1.329 3.2 3.2 0 01.589 1.15c.115.417.143.854.081 1.283a3.401 3.401 0 01-1.291 2.215l-1.861 1.448-1.202.984-3.203 2.491a31.48 31.48 0 00-.36-1.29l2.783-2.175-2.713-3.457-1.581 1.172a34.12 34.12 0 00-.471-1.21l1.231-.986.311-.246 2.412-1.89z" fill="#B5D9E2"/><path d="M105.256 66.951a60.3 60.3 0 011.511 4.402l-9.489 7.414-1.1.857-9.72 7.581-2.752-3.426 12.471-9.728.55-.434.551-.423 7.978-6.243z" fill="#fff"/><path d="M95.617 55.136c.362.436.56.982.56 1.545v2.393H87.17a4.741 4.741 0 01-1.789-.35 4.68 4.68 0 01-1.516-.997 4.593 4.593 0 01-1.013-1.492 4.533 4.533 0 01-.356-1.76v-9.934h2.402a3.786 3.786 0 011.614.339c.506.23.953.568 1.309.99l7.797 9.266z" fill="#F3F8F9"/><path d="M82.715 84.547l2.752 3.426-2.902 2.265a1.81 1.81 0 01-1.001.374l-2.422.217a.69.69 0 01-.62-.266.694.694 0 01-.121-.66l.59-1.772c.21-.63.603-1.185 1.132-1.595l2.592-1.99z" fill="#fff"/><path d="M77.57 91.34a2.001 2.001 0 001.551.739h.181l2.412-.216a3.152 3.152 0 001.632-.64l2.912-2.265 1.001-.778 8.928-6.961v18.836a19.296 19.296 0 01-6.075 1.329 16.604 16.604 0 01-9.138-2.087c-3.083-1.792-6.717-5.367-7.567-9.847a10.656 10.656 0 01-.11-3.298c.4-3.16 2.352-7.198 5.715-8.675 1.721-.758 2.662-.335 3.753-1.28 1.822-1.585 1.522-4.785.65-9.157-2.121-10.762-4.503-12.662-4.073-17.832.14-1.567.434-3.117.88-4.627h1.202v9.866a5.645 5.645 0 001.694 4.014 5.834 5.834 0 004.081 1.667h9.008v12.347L82.915 82.804l-1 .768-2.553 1.97a4.667 4.667 0 00-1.551 2.205l-.59 1.772a1.939 1.939 0 00.35 1.822z" fill="#F3F8F9"/><path d="M51.126 53.245l24.573-.148a.556.556 0 00.389-.158.537.537 0 000-.766.555.555 0 00-.39-.159l-24.582.168a.555.555 0 00-.39.158.537.537 0 000 .766.555.555 0 00.39.159l.01-.02zm32.28 13.785c.87 4.372 1.17 7.572-.65 9.157-1.092.985-2.003.522-3.754 1.28-3.363 1.477-5.315 5.514-5.715 8.675a10.657 10.657 0 00.11 3.298l-2.242.266a10.15 10.15 0 00-3.492-6.178 10.461 10.461 0 00-6.738-2.457 10.375 10.375 0 00-4.003.807 40.68 40.68 0 00.23-5.05 43.07 43.07 0 00-.44-6.037l19.177-.118a.556.556 0 00.39-.158.538.538 0 00.16-.383.523.523 0 00-.158-.386.541.541 0 00-.392-.156l-19.358.118a25.75 25.75 0 00-.85-3.318c-.14-.483-.29-.916-.441-1.33l20.539-.127a.55.55 0 00.386-.16.532.532 0 00.154-.382.537.537 0 00-.16-.383.555.555 0 00-.39-.158l-20.98.147a13.513 13.513 0 00-2.051-3.535c-.22-.265-.55-.65-1.001-1.102l24.022-.148a.555.555 0 00.389-.159.537.537 0 000-.765.555.555 0 00-.39-.16l-24.572.158a.558.558 0 00-.42.188 10.528 10.528 0 00-3.894-2.029 11.02 11.02 0 00-2.192-.266v-8.31a3.3 3.3 0 01.988-2.35 3.411 3.411 0 012.385-.978h32.16a23.695 23.695 0 00-.881 4.628c-.43 5.17 1.952 7.07 4.074 17.832v.029z" fill="#fff"/><path d="M78.441 89.903a.687.687 0 00.12.66.68.68 0 00.62.266l2.423-.217a1.809 1.809 0 001.001-.374l2.903-2.264-2.753-3.427-2.552 1.97c-.529.41-.922.965-1.131 1.594l-.63 1.792zm4.074-35.446a4.532 4.532 0 00.35 1.765c.234.56.578 1.07 1.012 1.499.434.429.95.77 1.519 1.002a4.742 4.742 0 001.793.352h9.009v-2.373a2.431 2.431 0 00-.561-1.546L87.82 45.87a3.725 3.725 0 00-1.286-.98 3.782 3.782 0 00-1.587-.35h-2.402l-.03 9.916zm2.402-10.989a4.882 4.882 0 012.058.45 4.805 4.805 0 011.666 1.273l7.827 9.285c.525.63.81 1.42.81 2.235V71.61l7.557-5.839c.161.394.321.798.471 1.211l-8.007 6.213-.551.424-.55.433-12.472 9.728 2.753 3.427 9.719-7.582 1.1-.857 9.489-7.385c.13.434.25.857.36 1.29l-9.849 7.68v19.22c-.36.168-.73.325-1.1.473V81.209l-8.929 6.961-1 .778-2.913 2.265a3.152 3.152 0 01-1.632.64l-2.412.217h-.18a2.028 2.028 0 01-.895-.222 1.992 1.992 0 01-.7-.594 1.952 1.952 0 01-.287-1.745l.59-1.772c.288-.86.824-1.62 1.542-2.186l2.552-1.969 1.001-.768 13.263-10.329V60.128h-9.009a5.834 5.834 0 01-4.08-1.667 5.645 5.645 0 01-1.695-4.014V44.54h-1.201c.12-.364.24-.728.37-1.083l4.334.01z" fill="#B5D9E2"/><path d="M96.177 100.045v4.854a3.35 3.35 0 01-1.002 2.385 3.459 3.459 0 01-2.42.992H67.05a16.01 16.01 0 001.881-10.624c.92-1.1 1.593-2.38 1.976-3.755a9.971 9.971 0 00.246-4.22l2.243-.266c.85 4.51 4.484 8.084 7.566 9.846a16.6 16.6 0 009.139 2.087 19.279 19.279 0 006.075-1.299zm-26.003-8.823a8.906 8.906 0 01-1.582 5.081 8.806 8.806 0 00-1.341-2.639 7.184 7.184 0 00-3.003-2.274l1.822-2.708a.534.534 0 00-.177-.71.557.557 0 00-.734.11l-1.952 2.894c-2.182-.787-4.414-1.24-5.765-3.741a6.793 6.793 0 01-.66-4.146 9.21 9.21 0 014.133-.984 9.347 9.347 0 016.547 2.674 9.043 9.043 0 012.712 6.443z" fill="#fff"/><path d="M96.177 100.045c.37-.148.741-.305 1.101-.473v5.327a4.427 4.427 0 01-1.324 3.151 4.575 4.575 0 01-3.2 1.31H66.36c.251-.348.482-.71.69-1.084h25.704a3.459 3.459 0 002.421-.992 3.35 3.35 0 001.002-2.385v-4.854z" fill="#B5D9E2"/><path d="M65.17 88.082a.553.553 0 01.733-.11.534.534 0 01.177.71l-1.822 2.708c-.326-.155-.66-.293-1-.414l1.911-2.894z" fill="#CCE8EF"/><path d="M59.654 96.874a.569.569 0 00.24.188h.34a.311.311 0 00.12-.05h.07l.1-.088a.188.188 0 00.06-.07l3.674-5.474a7.182 7.182 0 013.003 2.275 8.806 8.806 0 011.341 2.638 9.19 9.19 0 01-3.063 2.82 9.364 9.364 0 01-4.014 1.198 9.4 9.4 0 01-4.139-.67 9.247 9.247 0 01-3.413-2.399 9.053 9.053 0 01-1.984-3.635 8.955 8.955 0 01-.148-4.123 9.029 9.029 0 011.718-3.764 9.217 9.217 0 013.232-2.63 6.793 6.793 0 00.66 4.145c1.352 2.5 3.584 2.954 5.766 3.742l-3.103 4.627-3.083-4.5a.557.557 0 00-.76-.138.536.536 0 00-.236.344.523.523 0 00.086.405l3.533 5.16z" fill="#fff"/><path d="M60.925 82.125a9.21 9.21 0 00-4.134.985c0-.384.06-.798.1-1.241a10.376 10.376 0 014.004-.808c2.472.003 4.862.874 6.738 2.458a10.15 10.15 0 013.491 6.178 9.972 9.972 0 01-.246 4.22 10.076 10.076 0 01-1.976 3.755c-.086-.456-.2-.906-.34-1.349a8.907 8.907 0 001.582-5.08 9.04 9.04 0 00-2.698-6.43 9.345 9.345 0 00-6.52-2.688z" fill="#B5D9E2"/><path d="M56.27 90.966a.558.558 0 01.761.138l3.083 4.5 3.103-4.628c.341.12.675.259 1.001.414l-3.673 5.474a.189.189 0 01-.06.07l-.1.088h-.07a.31.31 0 01-.12.05h-.34a.57.57 0 01-.241-.188l-3.533-5.16a.527.527 0 01.19-.758zm.411-20.204a50.33 50.33 0 00-.18-1.084l19.358-.118a.55.55 0 01.392.156.532.532 0 01.158.386.537.537 0 01-.161.383.556.556 0 01-.39.159l-19.177.118zm-1.891-6.765l20.968-.128c.146 0 .286.057.39.159.103.102.16.24.16.383a.525.525 0 01-.33.5.55.55 0 01-.21.041l-20.538.129c-.17-.434-.31-.798-.44-1.084z" fill="#B5D9E2"/><path d="M55.21 65.032h-4.004a.559.559 0 01-.39-.159.542.542 0 01-.002-.769.541.541 0 01.392-.155h3.603c.11.334.25.699.4 1.083zm-4.635 26.191c.002-2 .602-3.955 1.725-5.622a10.322 10.322 0 014.591-3.752c0 .443-.07.856-.1 1.24a9.215 9.215 0 00-3.233 2.628 9.027 9.027 0 00-1.721 3.763 8.955 8.955 0 00.145 4.123 9.054 9.054 0 001.982 3.636 9.247 9.247 0 003.41 2.402 9.374 9.374 0 004.138.672 9.354 9.354 0 004.014-1.194 9.192 9.192 0 003.066-2.816c.14.443.254.893.34 1.35a10.357 10.357 0 01-5.233 3.372c-2.056.566-4.24.491-6.252-.213a10.327 10.327 0 01-4.983-3.722 10.058 10.058 0 01-1.889-5.867zm1.142-31.913c-.316-.314-.65-.61-1.001-.885a.55.55 0 01.42-.188l24.593-.147c.146 0 .286.057.389.158a.537.537 0 010 .766.555.555 0 01-.39.159l-24.011.138zm23.981-7.295c.147 0 .287.057.39.158a.537.537 0 010 .766.555.555 0 01-.39.159l-24.572.148a.555.555 0 01-.39-.159.537.537 0 010-.766.555.555 0 01.39-.158l24.572-.148zM56.501 69.679c.06.334.12.699.18 1.083h-5.555a.555.555 0 01-.39-.159.537.537 0 01-.16-.383.514.514 0 01.151-.385.531.531 0 01.39-.156H56.5z" fill="#B5D9E2"/><path d="M50.616 58.779a.545.545 0 01.12-.354c.351.275.686.57 1 .886h-.55a.558.558 0 01-.524-.323.533.533 0 01-.046-.209z" fill="#CCE8EF"/><path d="M46.842 56.396a10.53 10.53 0 013.944 2.028.545.545 0 00-.12.355.533.533 0 00.16.383.55.55 0 00.39.158h.55c.451.453.781.837 1.002 1.103a13.509 13.509 0 012.021 3.574h-3.603a.55.55 0 00-.392.156.53.53 0 00-.158.386c0 .144.058.281.16.383a.555.555 0 00.39.159h4.004c.15.413.3.846.44 1.329.357 1.086.642 2.195.851 3.318h-5.385a.538.538 0 00-.389.156.522.522 0 00-.151.385.54.54 0 00.16.383.556.556 0 00.39.16h5.555c.288 1.999.435 4.015.44 6.035a40.718 40.718 0 01-.23 5.051 10.348 10.348 0 00-3.8 2.67 10.131 10.131 0 00-2.22 4.04 10.02 10.02 0 00-.19 4.589 10.1 10.1 0 001.88 4.204 10.301 10.301 0 003.568 2.963 10.502 10.502 0 009.096.168 10.332 10.332 0 003.677-2.83 16.01 16.01 0 01-1.831 10.604H48.123a3.53 3.53 0 01-1.331-.261 3.477 3.477 0 01-1.128-.743 3.416 3.416 0 01-.752-1.112 3.368 3.368 0 01-.262-1.311V56.12a11.07 11.07 0 012.192.276z" fill="#F3F8F9"/><path d="M48.023 44.541a3.411 3.411 0 00-2.386.979 3.3 3.3 0 00-.987 2.35v8.25c-.37-.02-.74-.02-1.11 0v-8.25a4.385 4.385 0 011.315-3.117 4.532 4.532 0 013.168-1.295h32.56c-.13.355-.25.719-.37 1.083h-32.19z" fill="#B5D9E2"/><path d="M44.65 104.85a3.406 3.406 0 001.014 2.422 3.51 3.51 0 002.46 1.004H67.05c-.21.374-.44.736-.691 1.084H48.123a4.635 4.635 0 01-3.238-1.324 4.483 4.483 0 01-1.346-3.186V56.12c.37-.02.741-.02 1.111 0v48.73z" fill="#B5D9E2"/><path fill-rule="evenodd" clip-rule="evenodd" d="M64.052 91.254l.914.603 1.841-2.738.017-.03c.17-.304.217-.66.133-.996a1.384 1.384 0 00-.582-.82 1.415 1.415 0 00-1.865.277l-.026.031-1.974 2.928 1.414.935.128-.19z" fill="#CCE8EF"/><path fill-rule="evenodd" clip-rule="evenodd" d="M62.868 89.986l.616.201c.383.126.76.272 1.126.437l.908.41-4.209 6.271a1.032 1.032 0 01-.24.275l-.32.284h-.218a1.184 1.184 0 01-.142.035l-.077.014h-.588l-.157-.065a1.418 1.418 0 01-.599-.466l-.01-.013L55.42 92.2a1.364 1.364 0 01-.004-1.549 1.415 1.415 0 012.312-.02l.008.011 2.372 3.462 2.76-4.118z" fill="#CCE8EF"/></svg>