<svg width="138" height="138" fill="none" xmlns="http://www.w3.org/2000/svg"><path d="M1.568 65.166C7.062 37.159 14.946 39.757 17.63 38.24c7.989-4.472 15.471 3.476 21.52-1.14 7.855-5.987-1.72-21.68 6.23-30.904 6.938-8.054 24.607-8.17 35.395-.86 11.697 7.94 7.473 19.316 21.52 31.194 9.193 7.726 12.652 4.25 20.947 11.724 9.871 8.905 16.292 24.077 14.438 39.78-.43 3.689-2.866 20.531-16.139 30.044-7.186 5.157-16.675 6.2-35.672 8.295-14.602 1.613-15.041.145-22.648 2.289-14.39 4.056-16.971 10.469-25.8 9.165-7.502-1.12-14.783-7.146-16.981-14.022-1.233-3.863.229-4.51-.85-8.586-2.4-9.126-10.76-9.879-14.984-17.17-1.386-2.367-7.416-10.595-3.04-32.884z" fill="#029ADD"/><path d="M19.715 26.256c.955.135 7.644.965 10.616-3.013 3.985-5.312-.296-17.084-7.167-18.456C16.294 3.416 7.674 12.9 9.528 19.39c1.214 4.298 6.737 6.384 10.187 6.867z" fill="#029ADD"/><path d="M101.016 53.48a4.154 4.154 0 012.943 1.236 4.244 4.244 0 011.223 2.974v45.39c0 1.118-.439 2.19-1.22 2.981a4.155 4.155 0 01-2.946 1.24h-9.413v-4.53h6.355c.71 0 1.39-.285 1.892-.792a2.716 2.716 0 00.783-1.912v-6.712c0-.717-.281-1.405-.783-1.912a2.661 2.661 0 00-1.892-.792h-6.355v-3.264h6.479a2.614 2.614 0 001.852-.781 2.669 2.669 0 00.766-1.875v-6.76a2.67 2.67 0 00-.766-1.874 2.614 2.614 0 00-1.852-.782h-6.479v-3.148h6.46a2.624 2.624 0 001.881-.784 2.68 2.68 0 00.775-1.9v-6.761a2.693 2.693 0 00-.778-1.895 2.645 2.645 0 00-1.878-.78h-4.186a30.18 30.18 0 002.332-2.897 15.076 15.076 0 013.067-3.583l.249-.155 1.491.068z" fill="#F3F8F9"/><path d="M99.477 62.742v6.76a1.442 1.442 0 01-.414 1.01 1.413 1.413 0 01-1 .42h-6.46v-9.62h6.46c.375 0 .735.15 1 .419.265.268.414.631.414 1.01zm-1.395 13.781a1.364 1.364 0 01.976.41 1.392 1.392 0 01.4.99v6.76a1.405 1.405 0 01-.4.99 1.375 1.375 0 01-.976.41h-6.479v-9.657l6.479.097zm-.124 15.384c.38 0 .745.153 1.013.424.27.272.42.64.42 1.025v6.702c0 .384-.15.753-.42 1.024a1.424 1.424 0 01-1.013.424h-6.355v-9.599h6.355z" fill="#F3F8F9"/><path d="M91.603 53.48h7.912l-.248.155a15.08 15.08 0 00-3.067 3.583 30.183 30.183 0 01-2.332 2.897h-2.265V53.48z" fill="#fff"/><path d="M84.59 65.079v7.088a1.446 1.446 0 01-.434.987c-.266.26-.621.404-.99.404H72.337a1.436 1.436 0 01-.966-.42 1.466 1.466 0 01-.429-.97v-7.09c.003-.382.155-.748.424-1.017.268-.27.631-.421 1.01-.421h10.827c.37.01.723.166.982.435.258.269.403.629.403 1.004zm-4.463 14.582c.377 0 .74.152 1.006.422.267.27.417.636.417 1.017v2.782c0 .381-.15.747-.417 1.017-.267.27-.629.421-1.006.421H66.165a97.638 97.638 0 002.131-5.659h11.83zm-1.692 6.915v20.716h-10.09l.018-4.53.01-1.255.048-9.6.01-1.255.009-3.264.01-.812h9.985z" fill="#F3F8F9"/><path d="M70.943 65.079v7.088c.017.374.176.726.442.985.267.258.622.404.992.406h10.826c.37 0 .725-.145.99-.404.266-.26.422-.613.434-.987V65.08c0-.382-.15-.748-.417-1.018a1.416 1.416 0 00-1.007-.421H72.338c-.371.01-.725.166-.985.434-.26.269-.407.629-.41 1.005zm-.755 8.576c.278-.966.191-2 .42-2.956.641-2.626 0-4.77.335-6.827.086-.435 1.634-1.082 1.701-1.488h10.56a2.661 2.661 0 011.882.792c.5.505.781 1.189.784 1.903v7.088a2.708 2.708 0 01-.801 1.868 2.652 2.652 0 01-1.866.769H72.338a2.663 2.663 0 01-1.232-.306 2.71 2.71 0 01-.956-.843h.038z" fill="#C2DEE5"/><path d="M68.736 78.406c.525-1.622.956-3.216 1.414-4.751a2.7 2.7 0 00.956.843c.38.2.803.305 1.233.306h10.826c.697 0 1.367-.276 1.865-.769a2.708 2.708 0 00.801-1.868V65.08a2.72 2.72 0 00-.783-1.903 2.662 2.662 0 00-1.883-.792H72.606c.392-2.395.612-4.2.707-5.195a14.16 14.16 0 005.275-3.709c.34-.401.659-.82.956-1.255A14.308 14.308 0 0082.2 43.9v-.328h4.11a3.945 3.945 0 012.788 1.177 4.03 4.03 0 011.158 2.821v59.702H79.677V86.576h.45a2.633 2.633 0 001.888-.786 2.685 2.685 0 00.778-1.908V81.1c0-.714-.281-1.4-.781-1.905a2.652 2.652 0 00-1.886-.789h-11.39z" fill="#F3F8F9"/><path d="M69.672 65.079a2.72 2.72 0 01.784-1.903c.5-.504 1.176-.79 1.882-.792h.268c-.067.406-1.615 1.053-1.7 1.488-.354 2.057.305 4.2-.335 6.827-.23.966-.144 1.932-.42 2.956a2.675 2.675 0 01-.479-1.488V65.08z" fill="#C2DEE5"/><path d="M50.236 72.167c.032.71.332 1.378.84 1.87a2.72 2.72 0 001.883.767h10.693a2.727 2.727 0 001.888-.767c.508-.49.81-1.16.845-1.87v-7.011a2.79 2.79 0 00-.8-1.957 2.728 2.728 0 00-1.933-.815H52.96a2.728 2.728 0 00-1.933.816 2.785 2.785 0 00-.8 1.956v6.886a.55.55 0 00.01.125zm19.436 0c.008.533.175 1.051.478 1.487-.42 1.536-.889 3.13-1.414 4.752H55.28a2.633 2.633 0 00-1.882.79 2.686 2.686 0 00-.774 1.904v2.782a2.73 2.73 0 001.185 2.25c.438.288.949.442 1.471.444h.459v16.321a47.044 47.044 0 01-4.252 4.375H45.61V47.57a4.047 4.047 0 011.144-2.846 3.93 3.93 0 012.802-1.19h4.415v.327a14.368 14.368 0 002.637 8.364c.316.434.65.85.956 1.255a14.094 14.094 0 007.27 4.338c2.805.663 5.743.443 8.42-.63a86.067 86.067 0 01-.706 5.196h-.268a2.661 2.661 0 00-1.882.792 2.719 2.719 0 00-.784 1.903l.057 7.088z" fill="#fff"/><path d="M55.31 42.249a13.081 13.081 0 014.265-8.153 12.823 12.823 0 018.535-3.262c3.143 0 6.178 1.16 8.535 3.262a13.08 13.08 0 014.265 8.153c.06.438.093.88.096 1.323v.328a13.074 13.074 0 01-2.963 8.325c-.37.44-.762.858-1.175 1.255a12.844 12.844 0 01-8.758 3.458 12.845 12.845 0 01-8.758-3.458 14.422 14.422 0 01-1.166-1.255 13.083 13.083 0 01-2.981-8.325v-.328c.019-.444.057-.889.105-1.323zm12.423 10.739c0 .166.065.326.181.444a.618.618 0 00.879 0 .631.631 0 00.182-.444v-8.489h8.275a.616.616 0 00.574-.388.634.634 0 00-.336-.82.614.614 0 00-.238-.047h-8.304v-8.402a.631.631 0 00-.182-.444.618.618 0 00-.878 0 .631.631 0 00-.182.444v8.402H59.41a.627.627 0 00-.437.186.64.64 0 00-.185.441.64.64 0 00.185.441.627.627 0 00.437.187h8.303l.02 8.489zM55.281 79.661h13.035a90.263 90.263 0 01-2.131 5.66H55.28a1.417 1.417 0 01-1-.425 1.447 1.447 0 01-.414-1.014V81.1c0-.38.149-.744.414-1.014s.624-.422 1-.425z" fill="#fff"/><path d="M67.704 34.841a.63.63 0 01.182-.444.618.618 0 01.878 0 .632.632 0 01.182.444v8.402h8.304a.614.614 0 01.44.184.628.628 0 01.134.684.628.628 0 01-.574.388h-8.304v8.517a.632.632 0 01-.182.444.618.618 0 01-.878 0 .632.632 0 01-.182-.444V44.5h-8.295a.627.627 0 01-.436-.187.64.64 0 01-.185-.441.64.64 0 01.185-.441.627.627 0 01.436-.187h8.304l-.01-8.402z" fill="#C2DEE5"/><path d="M67.207 86.576v5.331l-.086 9.571v5.794H56.982v-5.891a67.281 67.281 0 008.677-14.824l1.548.02z" fill="#F3F8F9"/><path d="M63.652 63.64c.398 0 .78.16 1.061.444.281.284.44.67.44 1.072v6.886a.56.56 0 010 .125 1.523 1.523 0 01-.478.989 1.492 1.492 0 01-1.013.402H52.959a1.482 1.482 0 01-1.01-.403 1.513 1.513 0 01-.47-.988.549.549 0 010-.125v-6.886a1.521 1.521 0 01.432-1.071 1.489 1.489 0 011.058-.445h10.683zm2.007 22.936a67.294 67.294 0 01-8.677 14.825V86.576h8.677z" fill="#fff"/><path d="M55.74 102.897v4.375h-4.252a47.045 47.045 0 004.252-4.375z" fill="#F3F8F9"/><path d="M55.281 79.662a1.417 1.417 0 00-1 .425c-.265.27-.414.634-.414 1.014v2.781c0 .38.149.744.414 1.014s.624.422 1 .425h10.884l-.525 1.255h-8.658v14.825c-.401.502-.812.965-1.242 1.496v-16.32h-.459a2.694 2.694 0 01-1.471-.445 2.704 2.704 0 01-.87-.976 2.737 2.737 0 01-.315-1.274v-2.781a2.71 2.71 0 01.774-1.905 2.657 2.657 0 011.882-.79h13.455c-.144.415-.277.84-.42 1.256H55.28zm11.104-7.495a2.785 2.785 0 01-.845 1.87 2.728 2.728 0 01-1.888.767H52.96a2.718 2.718 0 01-1.884-.768 2.775 2.775 0 01-.84-1.869.561.561 0 010-.125v-6.886c0-.733.288-1.437.8-1.956a2.728 2.728 0 011.934-.816h10.683a2.728 2.728 0 011.933.816c.513.52.8 1.223.8 1.956v7.011zm-1.233-7.01c0-.403-.158-.789-.439-1.073a1.492 1.492 0 00-1.06-.444H52.958a1.477 1.477 0 00-1.057.445 1.51 1.51 0 00-.434 1.071v6.886a.561.561 0 000 .125c.03.378.198.73.472.988.275.258.635.402 1.01.403h10.702a1.492 1.492 0 001.013-.402c.276-.258.447-.61.478-.989a.55.55 0 000-.125l.01-6.886z" fill="#C2DEE5"/><path d="M44.311 91.907v9.57h-6.479c-.38 0-.744-.152-1.013-.424a1.455 1.455 0 01-.42-1.024v-6.673c0-.385.151-.753.42-1.025a1.426 1.426 0 011.013-.424h6.48z" fill="#F3F8F9"/><path d="M44.311 61.313v9.6H37.9c-.375 0-.735-.151-1-.42a1.437 1.437 0 01-.414-1.01v-6.76c0-.38.149-.743.414-1.011a1.406 1.406 0 011-.419l6.412.02z" fill="#fff"/><path d="M35.243 69.483a2.7 2.7 0 00.778 1.898 2.643 2.643 0 001.878.787h6.412v3.1h-6.46c-.697 0-1.365.28-1.858.777a2.67 2.67 0 00-.77 1.878v3.361a33.667 33.667 0 00-4.49 4.945V57.69a4.243 4.243 0 011.226-2.978 4.154 4.154 0 012.95-1.233h9.402v6.587H37.9a2.64 2.64 0 00-1.875.783 2.7 2.7 0 00-.781 1.892v6.74z" fill="#fff"/><path d="M37.804 76.523a11.877 11.877 0 011.853 0h-1.853z" fill="#CCE8EF"/><path d="M37.804 76.523h6.507v9.657h-6.46c-.367 0-.72-.147-.98-.41a1.408 1.408 0 01-.405-.99v-6.982a1.383 1.383 0 010-.193l.076-.174a.753.753 0 01.067-.155.885.885 0 01.067-.135l.115-.145.134-.135.105-.077a1.35 1.35 0 01.334-.165h.153a.39.39 0 01.153 0l.134-.096z" fill="#F3F8F9"/><path d="M35.224 84.732c0 .704.277 1.38.77 1.878a2.614 2.614 0 001.858.777h6.46v3.265h-6.48c-.71 0-1.39.284-1.892.792a2.719 2.719 0 00-.783 1.912v6.702c0 .717.282 1.405.783 1.912a2.662 2.662 0 001.892.792h6.48v4.51h-9.404a4.156 4.156 0 01-2.953-1.236 4.243 4.243 0 01-1.223-2.984V86.228a33.672 33.672 0 014.492-4.944v3.448z" fill="#F3F8F9"/><path d="M99.391 100.058v-6.702c0-.384-.15-.753-.42-1.025a1.426 1.426 0 00-1.013-.424h-6.355v9.571h6.355c.375 0 .735-.149 1.003-.414.268-.266.423-.627.43-1.006zm.067-22.135a1.403 1.403 0 00-.4-.99 1.376 1.376 0 00-.976-.41h-6.479v9.657h6.479a1.364 1.364 0 00.976-.41 1.392 1.392 0 00.4-.99v-6.857zM68.43 90.652v16.639h10.005V86.576H68.45v4.076h-.019zm31.047-27.91c0-.38-.149-.743-.414-1.011a1.407 1.407 0 00-1-.419h-6.46v9.6h6.46c.375 0 .735-.15 1-.419.265-.268.414-.631.414-1.01v-6.741zM36.408 93.356v6.702c0 .384.151.753.42 1.024.27.272.634.425 1.014.425h6.479v-9.6h-6.489c-.38 0-.744.153-1.013.424-.269.272-.42.64-.42 1.025h.01zm64.608 13.916a4.152 4.152 0 002.946-1.239 4.247 4.247 0 001.22-2.981v-45.39a4.244 4.244 0 00-1.223-2.975 4.154 4.154 0 00-2.943-1.236h-9.413v6.587h6.46a2.623 2.623 0 011.878.78 2.676 2.676 0 01.778 1.895v6.76a2.686 2.686 0 01-.775 1.901 2.644 2.644 0 01-1.881.784h-6.46v3.1h6.479a2.614 2.614 0 011.852.781 2.67 2.67 0 01.766 1.874v6.76a2.67 2.67 0 01-.766 1.875 2.614 2.614 0 01-1.852.781h-6.479v3.265h6.355c.71 0 1.39.285 1.892.792a2.72 2.72 0 01.783 1.912V100a2.72 2.72 0 01-.783 1.912 2.662 2.662 0 01-1.892.792h-6.355v4.568h9.413zm-64.531-44.53v6.76a1.444 1.444 0 00.414 1.01 1.413 1.413 0 001 .42h6.412v-9.62H37.9c-.375 0-.735.151-1 .419a1.437 1.437 0 00-.414 1.01zm20.497 44.53h10.139V86.576h-1.462l.525-1.255h13.942c.378 0 .74-.152 1.007-.422.267-.27.417-.636.417-1.017V81.1c0-.381-.15-.747-.417-1.017a1.416 1.416 0 00-1.007-.421h-11.81c.143-.416.277-.84.42-1.256h11.39a2.64 2.64 0 011.886.79 2.697 2.697 0 01.78 1.904v2.782a2.707 2.707 0 01-.777 1.908 2.654 2.654 0 01-1.889.786h-.449v20.696h10.626V47.57a4.045 4.045 0 00-1.144-2.846 3.963 3.963 0 00-1.284-.877 3.929 3.929 0 00-1.518-.314h-4.11v.328c.015 3-.912 5.928-2.646 8.364a15.49 15.49 0 01-.956 1.255 14.14 14.14 0 01-4.757 3.498 14.006 14.006 0 01-11.508 0 14.14 14.14 0 01-4.758-3.498 9.663 9.663 0 01-.955-1.255A14.367 14.367 0 0154.02 43.9v-.367h-4.463a3.945 3.945 0 00-2.788 1.177 4.03 4.03 0 00-1.158 2.821v59.741H55.74v-4.394c.43-.502.84-.966 1.242-1.497v5.891zm-20.516-22.54a1.414 1.414 0 00.406.99 1.385 1.385 0 00.98.41h6.46v-9.657h-4.656a11.852 11.852 0 00-1.853 0h-.096a.386.386 0 00-.153 0h-.153a1.33 1.33 0 00-.334.164l-.105.077-.134.135-.115.145a.88.88 0 00-.067.135.753.753 0 00-.066.155l-.058.164a1.383 1.383 0 000 .193v6.934l-.057.155zm1.366 18.03c-.71 0-1.39-.285-1.892-.792a2.719 2.719 0 01-.783-1.912v-6.702c0-.717.282-1.405.783-1.912a2.661 2.661 0 011.892-.792h6.48v-3.264h-6.46c-.697 0-1.366-.28-1.859-.778a2.67 2.67 0 01-.77-1.878v-6.76c0-.705.278-1.38.77-1.878a2.614 2.614 0 011.858-.778h6.46v-3.149H37.9a2.64 2.64 0 01-1.878-.786 2.7 2.7 0 01-.778-1.898v-6.76a2.698 2.698 0 01.781-1.893 2.642 2.642 0 011.875-.783h6.412V53.48h-9.403a4.154 4.154 0 00-2.95 1.233 4.243 4.243 0 00-1.226 2.978v45.39a4.241 4.241 0 001.233 2.965 4.155 4.155 0 002.943 1.226h9.403v-4.529l-6.479.019zm-8.342.309v-45.39a5.505 5.505 0 011.594-3.86 5.39 5.39 0 013.824-1.596h9.403V47.57a5.35 5.35 0 011.536-3.756 5.238 5.238 0 013.71-1.565h4.51a14.335 14.335 0 014.556-8.96 14.052 14.052 0 019.274-3.694 14.043 14.043 0 019.379 3.41 14.324 14.324 0 014.819 8.819c0 .145 0 .29.057.425h4.205a5.241 5.241 0 013.713 1.562c.488.494.874 1.08 1.137 1.725a5.36 5.36 0 01.396 2.034v4.655h9.413a5.38 5.38 0 013.824 1.6 5.497 5.497 0 011.584 3.866v45.39c0 1.45-.569 2.842-1.583 3.868a5.391 5.391 0 01-3.825 1.608H34.908a5.392 5.392 0 01-3.25-1.101 5.488 5.488 0 01-1.948-2.849 5.362 5.362 0 01-.22-1.536zm38.587-72.209a12.851 12.851 0 00-8.524 3.257 13.109 13.109 0 00-4.281 8.13c0 .434-.086.878-.096 1.323v.328a13.083 13.083 0 003.01 8.325c.364.441.753.86 1.166 1.255a12.845 12.845 0 008.758 3.458c3.246 0 6.372-1.234 8.758-3.458a16.22 16.22 0 001.175-1.255 13.074 13.074 0 002.972-8.325v-.328a10.15 10.15 0 00-.095-1.323 13.109 13.109 0 00-4.296-8.143 12.85 12.85 0 00-8.547-3.244z" fill="#B5D9E2"/><path fill-rule="evenodd" clip-rule="evenodd" d="M67.297 33.806a1.46 1.46 0 012.5 1.035v7.56h7.453c.383 0 .75.151 1.022.418s.429.628.44 1.007v.026c0 .387-.151.76-.425 1.035a1.46 1.46 0 01-1.037.434h-7.462v7.676c0 .387-.152.76-.426 1.036a1.46 1.46 0 01-2.5-1.036V45.34h-7.465a1.469 1.469 0 01-1.022-.436 1.482 1.482 0 01-.428-1.02v-.026c.006-.381.158-.747.428-1.02s.636-.43 1.022-.436h7.475v-7.56c0-.387.152-.76.425-1.036z" fill="#CCE8EF"/></svg>