<svg width="193" height="124" fill="none" xmlns="http://www.w3.org/2000/svg"><path d="M1 2a1 1 0 010-2v2zm184.707 121.707a.999.999 0 01-1.414 0l-6.364-6.364a.999.999 0 111.414-1.414l5.657 5.657 5.657-5.657a.999.999 0 111.414 1.414l-6.364 6.364zM7.109.071a1 1 0 01-.046 2l.046-2zm12.084 2.552A1 1 0 0119.33.628l-.136 1.995zm12.318-.897a1 1 0 11-.223 1.987l.223-1.987zM43.324 5.33a1 1 0 01.31-1.976l-.31 1.976zm12.35.181a1 1 0 11-.397 1.96l.396-1.96zm11.448 4.633a1 1 0 11.484-1.94l-.484 1.94zm12.282 1.3a1 1 0 01-.576 1.916l.576-1.915zm10.958 5.694a1 1 0 11.67-1.884l-.67 1.884zm12.09 2.523a1 1 0 01-.77 1.846l.77-1.846zm10.284 6.837a1 1 0 11.877-1.798l-.877 1.798zm11.709 3.915a1 1 0 01-.991 1.737l.991-1.737zm9.323 8.104a1 1 0 111.112-1.663l-1.112 1.663zm11.023 5.548a1 1 0 11-1.242 1.568l1.242-1.568zm7.896 9.492a1 1 0 011.379-1.448l-1.379 1.448zm9.841 7.46a1 1 0 11-1.52 1.3l1.52-1.3zm5.789 10.895a1 1 0 011.659-1.118l-1.659 1.118zm7.884 9.495a1 1 0 01-1.786.9l1.786-.9zm2.906 11.99a1 1 0 111.89-.654l-1.89.654zm5.108 11.223a.999.999 0 11-1.961.391l1.961-.391zm-.406 12.338a1.001 1.001 0 011.996-.127l-1.996.127zM1 0c2.029 0 4.066.024 6.11.07l-.047 2A263.22 263.22 0 001 2V0zm18.329.628c4.051.275 8.116.641 12.182 1.098l-.223 1.987a277.103 277.103 0 00-12.095-1.09L19.33.628zm24.305 2.726c4.026.63 8.043 1.35 12.04 2.157l-.397 1.96A275.618 275.618 0 0043.324 5.33l.31-1.976zm23.972 4.85c3.969.99 7.905 2.071 11.798 3.24l-.576 1.916a257.4 257.4 0 00-11.706-3.216l.484-1.94zm23.426 7.05a228.351 228.351 0 0111.42 4.407l-.77 1.846a226.523 226.523 0 00-11.32-4.369l.67-1.884zm22.581 9.446a191.343 191.343 0 0110.832 5.713l-.991 1.737a188.61 188.61 0 00-10.718-5.652l.877-1.798zm21.267 12.155c3.433 2.296 6.742 4.7 9.911 7.21l-1.242 1.568a150.59 150.59 0 00-9.781-7.116l1.112-1.663zm19.186 15.254a119.635 119.635 0 018.462 8.908l-1.52 1.3a117.765 117.765 0 00-8.321-8.76l1.379-1.448zm15.91 18.685a97.822 97.822 0 016.225 10.613l-1.786.9a95.826 95.826 0 00-6.098-10.395l1.659-1.118zm11.021 21.95a90.262 90.262 0 013.218 11.876l-1.961.391a88.139 88.139 0 00-3.147-11.614l1.89-.654zm4.808 24.087A97.29 97.29 0 01186 123h-2c0-2.04-.064-4.054-.191-6.042l1.996-.127z" fill="#BBB"/></svg>