<svg width="22" height="96" fill="none" xmlns="http://www.w3.org/2000/svg"><path d="M18.576.735a.5.5 0 01.848.53l-.848-.53zm.915 94.358a.5.5 0 01-.584.398l-4.421-.836a.5.5 0 11.185-.983l3.93.744.744-3.93a.5.5 0 11.983.185l-.837 4.422zm-.067-93.828a237.663 237.663 0 00-3.316 5.461l-.862-.507a238.813 238.813 0 013.33-5.484l.848.53zm-9.373 16.639c-2.004 4.089-3.644 7.97-4.932 11.696l-.946-.327c1.305-3.77 2.961-7.69 4.98-11.81l.898.44zm-7.993 23.96c-.624 4.308-.72 8.473-.31 12.603l-.995.1c-.42-4.214-.32-8.46.316-12.846l.99.144zm2.404 24.927c1.274 3.787 2.953 7.636 5.023 11.628l-.887.46c-2.09-4.028-3.79-7.925-5.083-11.77l.947-.318zm11.43 22.608a219.106 219.106 0 003.521 5.32l-.826.563a220.147 220.147 0 01-3.537-5.344l.842-.54zm2.26-88.93a1 1 0 011.696 1.061L18.152.47zm1.83 94.717a1 1 0 01-1.168.797L9.971 94.31a1 1 0 11.372-1.965l7.86 1.487 1.487-7.861a1 1 0 011.965.372l-1.672 8.843zM19.849 1.53a236.75 236.75 0 00-3.31 5.45l-1.723-1.015A239.39 239.39 0 0118.152.47l1.696 1.06zM10.5 18.123c-1.996 4.075-3.628 7.937-4.909 11.64l-1.89-.653c1.312-3.793 2.977-7.731 5.003-11.866l1.796.88zM2.553 41.937c-.619 4.268-.714 8.392-.307 12.48l-1.99.199c-.424-4.255-.324-8.543.318-12.966l1.98.287zM4.936 66.63C6.2 70.39 7.868 74.216 9.93 78.19l-1.775.92c-2.1-4.046-3.81-7.967-5.113-11.84l1.895-.638zm11.378 22.5c1.109 1.733 2.28 3.5 3.512 5.308l-1.652 1.126a220.473 220.473 0 01-3.545-5.356l1.685-1.078z" fill="#BBB"/></svg>