<svg width="186" height="131" fill="none" xmlns="http://www.w3.org/2000/svg"><path d="M185.707 8.707a1 1 0 000-1.414L179.343.929a1 1 0 10-1.414 1.414L183.586 8l-5.657 5.657a1 1 0 101.414 1.414l6.364-6.364zM0 130a1 1 0 002 0H0zM178.891 7.07a1 1 0 10.046 2l-.046-2zm-12.084 2.553a1 1 0 00-.136-1.995l.136 1.995zm-12.318-.897a1 1 0 10.223 1.987l-.223-1.987zm-11.813 3.604a1 1 0 10-.31-1.976l.31 1.976zm-12.349.181a1 1 0 10.396 1.96l-.396-1.96zm-11.449 4.633a1 1 0 10-.484-1.94l.484 1.94zm-12.282 1.3a1 1 0 10.576 1.916l-.576-1.915zm-10.958 5.694a1 1 0 10-.67-1.884l.67 1.884zm-12.09 2.523a1 1 0 10.77 1.846l-.77-1.846zm-10.284 6.837a1 1 0 10-.877-1.798l.877 1.798zm-11.709 3.915a1 1 0 00.99 1.737l-.99-1.737zm-9.323 8.104a1 1 0 00-1.111-1.663l1.111 1.663zM41.21 51.065a1 1 0 001.242 1.568l-1.242-1.568zm-7.896 9.492a1 1 0 00-1.38-1.448l1.38 1.448zm-9.841 7.46a1 1 0 101.52 1.3l-1.52-1.3zm-5.789 10.895a1 1 0 10-1.659-1.118l1.659 1.118zM9.8 88.407a1 1 0 101.787.9l-1.787-.9zm-2.906 11.99a1 1 0 00-1.89-.654l1.89.654zM1.785 111.62a1 1 0 101.961.391l-1.961-.391zm.406 12.338a1 1 0 00-1.996-.127l1.996.127zM185 7c-2.029 0-4.066.024-6.109.07l.046 2C180.965 9.023 182.986 9 185 9V7zm-18.329.628c-4.051.275-8.116.641-12.182 1.098l.223 1.987c4.037-.453 8.073-.816 12.095-1.09l-.136-1.995zm-24.305 2.726c-4.026.63-8.043 1.35-12.039 2.157l.396 1.96a275.691 275.691 0 0111.953-2.141l-.31-1.976zm-23.972 4.85c-3.969.99-7.905 2.071-11.798 3.24l.576 1.916a257.161 257.161 0 0111.706-3.216l-.484-1.94zm-23.426 7.05a228.393 228.393 0 00-11.42 4.407l.77 1.846a226.399 226.399 0 0111.32-4.369l-.67-1.884zM72.388 31.7a190.829 190.829 0 00-10.833 5.713l.99 1.737a188.825 188.825 0 0110.719-5.652l-.877-1.798zM51.12 43.855a152.572 152.572 0 00-9.911 7.21l1.242 1.568a150.576 150.576 0 019.781-7.116l-1.111-1.663zM31.934 59.108a119.795 119.795 0 00-8.462 8.908l1.52 1.3a117.798 117.798 0 018.32-8.76l-1.378-1.448zm-15.91 18.685a97.73 97.73 0 00-6.225 10.613l1.787.9a95.724 95.724 0 016.097-10.395l-1.659-1.118zm-11.02 21.95a90.244 90.244 0 00-3.22 11.876l1.962.391a88.173 88.173 0 013.147-11.614l-1.89-.654zM.193 123.83A97.123 97.123 0 000 130h2c0-2.04.064-4.054.19-6.042l-1.995-.127z" fill="#BBB"/></svg>