<svg width="16" height="88" fill="none" xmlns="http://www.w3.org/2000/svg"><path d="M8.707.293a1 1 0 00-1.414 0L.929 6.657A1 1 0 002.343 8.07L8 2.414l5.657 5.657a1 1 0 101.414-1.414L8.707.293zM7 87a1 1 0 102 0H7zm2-5.374a1 1 0 10-2 0h2zM7 70.88a1 1 0 102 0H7zm2-10.748a1 1 0 00-2 0h2zM7 49.384a1 1 0 102 0H7zm2-10.746a1 1 0 10-2 0h2zm-2-10.76a1 1 0 102 0H7zm2-10.752a1 1 0 10-2 0h2zM7 6.39a1 1 0 002 0H7zM9 87v-5.374H7V87h2zm0-16.12V60.132H7V70.88h2zm0-21.496V38.638H7v10.746h2zm0-21.506V17.126H7v10.752h2zM9 6.39V1H7v5.39h2z" fill="#BBB"/></svg>