<?xml version="1.0" standalone="no"?>
<!DOCTYPE svg PUBLIC "-//W3C//DTD SVG 20010904//EN"
 "http://www.w3.org/TR/2001/REC-SVG-20010904/DTD/svg10.dtd">
<svg version="1.0" xmlns="http://www.w3.org/2000/svg"
 width="263.000000pt" height="65.000000pt" viewBox="0 0 263.000000 65.000000"
 preserveAspectRatio="xMidYMid meet">

<g transform="translate(0.000000,65.000000) scale(0.100000,-0.100000)"
fill="#000000" stroke="none">
<path d="M224 573 c-19 -25 -22 -26 -52 -14 -30 12 -52 9 -52 -9 0 -4 11 -11
25 -14 l25 -6 -22 -30 c-15 -20 -23 -49 -26 -89 -3 -47 -10 -65 -28 -82 -13
-12 -24 -28 -24 -36 0 -24 48 -13 147 35 97 46 99 47 191 45 75 -1 92 1 92 13
0 8 -21 25 -47 36 -27 12 -65 41 -86 64 -24 27 -53 48 -78 55 -44 14 -43 13
-29 40 17 30 -12 24 -36 -8z m69 -75 c35 -41 8 -98 -48 -98 -61 0 -84 61 -40
106 29 29 58 26 88 -8z"/>
<path d="M212 498 c-26 -26 -3 -88 33 -88 20 0 45 28 45 50 0 39 -52 64 -78
38z m46 -16 c9 -6 10 -16 4 -32 -6 -16 -11 -19 -16 -12 -4 7 -11 10 -16 7 -5
-3 -11 -1 -15 5 -3 5 -1 10 4 10 6 0 11 7 11 15 0 17 9 19 28 7z"/>
<path d="M1708 493 c-54 -5 -63 -13 -72 -70 -6 -41 -5 -43 19 -43 23 0 24 2
18 45 l-6 45 36 0 c20 0 39 -4 42 -10 3 -5 15 -10 25 -10 10 0 32 -11 47 -24
24 -21 28 -32 28 -75 0 -39 -5 -56 -22 -72 -25 -25 -85 -49 -126 -49 -27 0
-28 2 -25 43 3 36 0 42 -17 42 -16 0 -20 -6 -18 -30 5 -67 9 -73 65 -79 81 -9
96 -7 129 9 91 47 93 210 4 265 -18 11 -43 19 -56 18 -13 -1 -45 -3 -71 -5z"/>
<path d="M680 350 l0 -140 170 0 170 0 0 140 c0 133 -1 140 -20 140 -19 0 -20
-7 -20 -120 l0 -120 -55 0 -55 0 0 120 c0 113 -1 120 -20 120 -19 0 -20 -7
-20 -120 l0 -120 -55 0 -55 0 0 120 c0 113 -1 120 -20 120 -19 0 -20 -7 -20
-140z"/>
<path d="M1110 350 l0 -140 100 0 c93 0 100 1 100 20 0 18 -7 20 -80 20 l-80
0 0 40 0 40 60 0 c53 0 60 2 60 20 0 18 -7 20 -60 20 l-60 0 0 40 0 40 80 0
c73 0 80 2 80 20 0 19 -7 20 -100 20 l-100 0 0 -140z"/>
<path d="M1370 350 c0 -133 1 -140 20 -140 17 0 20 7 20 50 l0 50 45 0 c109 0
162 84 96 151 -27 27 -35 29 -105 29 l-76 0 0 -140z m160 81 c26 -50 -1 -81
-71 -81 l-49 0 0 50 0 50 55 0 c43 0 56 -4 65 -19z"/>
<path d="M2041 472 c-66 -35 -91 -132 -52 -196 77 -123 275 -70 273 74 -2 112
-119 176 -221 122z m124 -27 c80 -39 77 -161 -5 -195 -69 -28 -150 24 -150 96
0 46 14 71 53 94 39 24 59 25 102 5z"/>
<path d="M2330 350 l0 -140 25 0 c23 0 25 4 25 40 0 38 23 90 40 90 4 0 27
-29 51 -65 32 -47 50 -64 67 -65 12 0 22 2 22 5 0 2 -25 39 -55 81 l-55 77 52
56 c47 51 49 56 29 59 -16 3 -38 -14 -86 -65 l-64 -68 -1 68 c0 65 -1 67 -25
67 l-25 0 0 -140z"/>
<path d="M384 338 c9 -12 16 -42 16 -66 0 -37 -6 -50 -34 -78 -26 -26 -42 -34
-70 -34 -65 0 -102 30 -121 97 -5 20 -9 21 -27 12 -14 -8 -18 -17 -14 -33 5
-19 -2 -28 -44 -54 -52 -32 -61 -53 -37 -86 18 -25 66 -14 102 24 l27 29 37
-20 c121 -65 262 57 222 192 -10 34 -16 39 -42 39 -29 0 -30 -1 -15 -22z"/>
<path d="M307 273 c-13 -13 -7 -54 9 -60 20 -7 48 8 52 29 2 10 -5 14 -20 14
-13 -1 -22 4 -20 12 2 13 -10 16 -21 5z"/>
<path d="M2563 125 c0 -22 2 -30 4 -17 2 12 2 30 0 40 -3 9 -5 -1 -4 -23z"/>
<path d="M685 120 c-3 -5 2 -10 12 -10 15 0 16 -2 3 -10 -10 -6 -11 -10 -2
-10 6 0 12 -5 12 -11 0 -6 -7 -9 -15 -5 -8 3 -15 1 -15 -5 0 -20 45 -5 46 16
1 34 -27 58 -41 35z"/>
<path d="M756 122 c-2 -4 -7 -25 -11 -47 -6 -33 -5 -38 6 -27 16 15 49 16 49
0 0 -6 2 -9 5 -6 3 3 3 24 -1 47 -5 30 -11 41 -25 41 -10 0 -20 -3 -23 -8z
m34 -26 c0 -15 -18 -31 -26 -23 -7 7 7 37 17 37 5 0 9 -6 9 -14z"/>
<path d="M832 118 c-26 -26 1 -65 38 -53 32 10 20 65 -15 65 -6 0 -16 -5 -23
-12z m36 -25 c-4 -22 -22 -20 -26 1 -2 10 3 16 13 16 10 0 15 -7 13 -17z"/>
<path d="M911 75 c1 -27 4 -40 6 -29 3 15 10 20 22 17 9 -2 23 2 30 11 18 21
-1 51 -33 51 -25 1 -26 -2 -25 -50z m49 21 c0 -8 -5 -18 -11 -22 -14 -8 -33
11 -25 25 10 16 36 13 36 -3z"/>
<path d="M1000 115 c-18 -22 -8 -50 19 -50 32 0 49 28 32 49 -17 20 -35 20
-51 1z m40 -18 c0 -8 -3 -17 -7 -20 -9 -9 -34 13 -27 24 8 14 34 11 34 -4z"/>
<path d="M1080 96 c0 -31 3 -36 23 -36 32 0 36 6 28 38 -5 17 -15 28 -29 30
-19 3 -22 -1 -22 -32z m40 -16 c0 -5 -7 -10 -15 -10 -8 0 -15 5 -15 10 0 6 7
10 15 10 8 0 15 -4 15 -10z"/>
<path d="M1150 95 c0 -30 3 -35 24 -35 37 0 42 19 13 46 -34 31 -37 30 -37
-11z m40 -15 c0 -5 -4 -10 -10 -10 -5 0 -10 5 -10 10 0 6 5 10 10 10 6 0 10
-4 10 -10z"/>
<path d="M1230 115 c-27 -32 15 -75 44 -44 8 9 7 11 -6 6 -10 -3 -20 -2 -23 3
-3 5 7 10 22 12 26 3 26 4 9 21 -21 21 -30 21 -46 2z m37 -11 c-3 -3 -12 -4
-19 -1 -8 3 -5 6 6 6 11 1 17 -2 13 -5z"/>
<path d="M1425 121 c-4 -7 3 -11 17 -11 17 0 19 -3 9 -9 -8 -5 -10 -14 -6 -22
6 -9 3 -11 -8 -6 -10 3 -17 2 -17 -3 0 -16 36 -11 51 6 9 11 10 20 2 32 -12
20 -39 27 -48 13z"/>
<path d="M1490 120 c0 -5 5 -10 10 -10 6 0 11 -12 11 -27 2 -27 2 -27 6 -3 3
13 12 30 21 37 15 11 13 12 -15 13 -18 0 -33 -4 -33 -10z"/>
<path d="M1572 118 c-30 -30 1 -73 36 -51 23 14 25 29 7 47 -20 19 -27 20 -43
4z m36 -25 c-2 -10 -10 -18 -18 -18 -8 0 -16 8 -18 18 -2 12 3 17 18 17 15 0
20 -5 18 -17z"/>
<path d="M1675 120 c-3 -6 4 -10 17 -10 17 0 19 -3 9 -9 -8 -5 -10 -14 -6 -22
6 -9 3 -11 -8 -6 -10 3 -17 2 -17 -3 0 -14 34 -12 48 2 16 16 15 23 -4 42 -18
18 -30 20 -39 6z"/>
<path d="M1750 111 c0 -11 -3 -26 -6 -35 -3 -9 -1 -16 5 -16 6 0 13 11 17 25
3 14 10 25 15 25 5 0 9 -11 9 -25 0 -14 5 -25 10 -25 6 0 10 16 10 35 0 32 -2
35 -30 35 -23 0 -30 -5 -30 -19z"/>
<path d="M1836 114 c-19 -19 -20 -26 -4 -42 14 -14 48 -16 48 -2 0 5 -6 7 -14
4 -8 -3 -17 -1 -21 5 -4 7 4 11 19 11 28 0 33 9 14 28 -16 16 -23 15 -42 -4z
m31 -10 c-3 -3 -12 -4 -19 -1 -8 3 -5 6 6 6 11 1 17 -2 13 -5z"/>
<path d="M1911 94 c1 -22 3 -31 6 -22 5 19 43 20 43 1 0 -7 5 -13 10 -13 6 0
10 16 10 35 0 36 -8 43 -28 23 -8 -8 -15 -8 -27 2 -13 11 -15 8 -14 -26z"/>
<path d="M2006 114 c-12 -12 -13 -20 -6 -35 11 -19 50 -27 50 -9 0 5 -6 7 -14
4 -8 -3 -17 -1 -21 5 -4 7 4 11 19 11 28 0 33 9 14 28 -16 16 -23 15 -42 -4z
m31 -10 c-3 -3 -12 -4 -19 -1 -8 3 -5 6 6 6 11 1 17 -2 13 -5z"/>
<path d="M2082 95 c0 -22 2 -34 5 -27 6 14 33 16 33 2 0 -5 5 -10 10 -10 6 0
10 16 10 35 0 19 -4 35 -10 35 -5 0 -10 -7 -10 -15 0 -21 -28 -19 -33 3 -3 9
-5 -1 -5 -23z"/>
<path d="M2150 120 c0 -5 5 -10 10 -10 6 0 10 -11 10 -25 0 -14 5 -25 10 -25
6 0 10 11 10 25 0 14 5 25 10 25 6 0 10 5 10 10 0 6 -13 10 -30 10 -16 0 -30
-4 -30 -10z"/>
<path d="M2235 120 c-3 -5 2 -10 12 -11 14 0 13 -2 -5 -10 -30 -12 -23 -33 11
-37 24 -3 27 0 27 26 0 18 -6 32 -16 36 -21 8 -22 8 -29 -4z m25 -40 c0 -5 -4
-10 -10 -10 -5 0 -10 5 -10 10 0 6 5 10 10 10 6 0 10 -4 10 -10z"/>
<path d="M2300 79 c0 -27 5 -49 10 -49 10 0 14 27 11 63 -1 9 4 17 12 17 24 0
28 -13 10 -33 -17 -19 -17 -19 2 -16 13 3 21 14 23 32 2 15 0 28 -5 28 -66 9
-63 12 -63 -42z"/>
<path d="M2392 95 c0 -22 2 -34 5 -27 6 14 33 16 33 2 0 -5 5 -10 10 -10 6 0
10 16 10 35 0 19 -4 35 -10 35 -5 0 -10 -7 -10 -15 0 -21 -28 -19 -33 3 -3 9
-5 -1 -5 -23z"/>
<path d="M2483 123 c-19 -7 -16 -53 3 -60 18 -7 45 6 51 24 4 11 -23 44 -35
42 -4 0 -13 -3 -19 -6z m35 -30 c-2 -10 -10 -18 -18 -18 -8 0 -16 8 -18 18 -2
12 3 17 18 17 15 0 20 -5 18 -17z"/>
<path d="M1330 100 c0 -5 9 -10 20 -10 11 0 20 5 20 10 0 6 -9 10 -20 10 -11
0 -20 -4 -20 -10z"/>
<path d="M2555 70 c-3 -5 -1 -10 4 -10 6 0 11 5 11 10 0 6 -2 10 -4 10 -3 0
-8 -4 -11 -10z"/>
</g>
</svg>
