<svg width="26" height="26" fill="none" xmlns="http://www.w3.org/2000/svg"><path d="M15.195 18.891c1.509-.342 2.84-.9 4.038-1.644l-.052.03c.551-.356.91-.96.91-1.647 0-1.086-.9-1.966-2.01-1.966-.386 0-.746.106-1.052.289l.01-.006a8.764 8.764 0 01-4.618 1.296 8.815 8.815 0 01-4.652-1.316l.035.02a2.02 2.02 0 00-1.07-.302 2.02 2.02 0 00-1.693.907l-.005.007v.006a1.915 1.915 0 00-.309 1.047c0 .697.371 1.308.93 1.656l.007.005a12.724 12.724 0 003.9 1.595l.086.017-3.841 3.753a1.925 1.925 0 00-.031 2.751l.033.033c.361.354.86.573 1.412.573a2.01 2.01 0 001.412-.573l3.787-3.688 3.765 3.69c.363.355.866.576 1.42.576 1.11 0 2.009-.88 2.009-1.965a1.94 1.94 0 00-.588-1.39l-3.833-3.754zm-2.774-5.472c3.785-.004 6.852-3.006 6.852-6.71 0-3.705-3.07-6.709-6.858-6.709S5.557 3.004 5.557 6.71v.006c.007 3.703 3.078 6.703 6.864 6.703zm0-9.487c1.57 0 2.84 1.244 2.84 2.778 0 1.535-1.27 2.779-2.84 2.779-1.566 0-2.837-1.242-2.84-2.774v-.002c0-1.535 1.271-2.78 2.84-2.781z" fill="#fff"/></svg>