<svg width="16" height="16" fill="none" xmlns="http://www.w3.org/2000/svg"><path d="M12.94 8.667c-.147 0-.3-.047-.447-.08a6.575 6.575 0 01-.873-.26 1.333 1.333 0 00-1.653.666L9.82 9.3a8.78 8.78 0 01-1.78-1.333 8.78 8.78 0 01-1.333-1.78l.306-.14a1.333 1.333 0 00.667-1.654 6.98 6.98 0 01-.26-.88 5.35 5.35 0 01-.08-.446 2 2 0 00-2-1.66H3.333a2 2 0 00-1.493.666 2 2 0 00-.487 1.6 12.713 12.713 0 003.607 7.334 12.714 12.714 0 007.333 3.606c.087.007.174.007.26 0a2 2 0 001.827-1.182 2 2 0 00.173-.818v-2a2 2 0 00-1.613-1.946zm.327 4a.667.667 0 01-.767.66A11.44 11.44 0 015.92 10.1a11.44 11.44 0 01-3.253-6.6.667.667 0 01.666-.767h2a.667.667 0 01.667.52c0 .18.06.367.1.547.077.35.18.692.307 1.027l-.934.44a.667.667 0 00-.346.373.667.667 0 000 .507 9.66 9.66 0 004.666 4.666.667.667 0 00.507 0 .667.667 0 00.373-.346l.42-.934a8.273 8.273 0 001.594.407.667.667 0 01.52.667l.06 2.06zM9.333 1.333h-.466a.67.67 0 00.113 1.334h.353a4 4 0 014 4v.353a.667.667 0 00.607.72h.053a.667.667 0 00.667-.607v-.466a5.334 5.334 0 00-5.327-5.334zm1.334 5.334a.667.667 0 101.333 0A2.667 2.667 0 009.333 4a.667.667 0 000 1.333 1.333 1.333 0 011.334 1.334z" fill="#fff"/></svg>