<?xml version="1.0" encoding="utf-8"?><svg xmlns="http://www.w3.org/2000/svg" xmlns:xlink="http://www.w3.org/1999/xlink"><symbol fill="none" viewBox="0 0 28 28" id="arrow" xmlns="http://www.w3.org/2000/svg"><path d="M10.698 8.167a1.167 1.167 0 0 0 0 1.645L14.828 14l-4.13 4.13a1.167 1.167 0 1 0 1.657 1.645l4.947-4.947a1.169 1.169 0 0 0 0-1.656l-4.947-5.005a1.167 1.167 0 0 0-1.657 0Z" fill="#fff"/></symbol><symbol fill="none" viewBox="0 0 87 20" id="easy-arrow-desktop" xmlns="http://www.w3.org/2000/svg"><path d="M.746 15.911a.5.5 0 0 0 .508.862l-.508-.862Zm85.36.92a.5.5 0 0 0 .383-.595l-.957-4.398a.5.5 0 0 0-.977.213l.85 3.909-3.909.85a.5.5 0 0 0 .213.977l4.397-.956Zm-84.852-.058a217.864 217.864 0 0 1 4.97-2.845l-.484-.874A218.438 218.438 0 0 0 .746 15.91l.508.862Zm15.121-8.024c3.7-1.705 7.21-3.1 10.58-4.194l-.31-.95c-3.413 1.107-6.96 2.517-10.688 4.235l.418.909ZM37.989 1.97c3.86-.525 7.596-.608 11.3-.265l.091-.996C45.6.36 41.787.445 37.853.98l.135.991Zm22.38 2.016c3.427 1.079 6.91 2.504 10.521 4.264l.439-.898c-3.648-1.779-7.177-3.223-10.66-4.32l-.3.954Zm20.51 9.75c1.584.955 3.2 1.964 4.852 3.026l.54-.842a200.188 200.188 0 0 0-4.876-3.04l-.516.856ZM.492 15.48a1 1 0 0 0 1.016 1.724L.492 15.48Zm85.72 1.84a1 1 0 0 0 .765-1.19l-1.912-8.795a1 1 0 0 0-1.955.425l1.7 7.817-7.817 1.7a1 1 0 0 0 .425 1.955l8.794-1.913Zm-84.704-.116a217.202 217.202 0 0 1 4.959-2.838l-.97-1.75c-1.631.905-3.299 1.86-5.005 2.864l1.016 1.724Zm15.077-8.001c3.684-1.698 7.175-3.085 10.524-4.172l-.618-1.902c-3.435 1.115-7 2.532-10.743 4.257l.837 1.817Zm21.47-6.736c3.825-.521 7.522-.603 11.186-.263l.184-1.992c-3.82-.353-7.67-.268-11.64.273l.27 1.982Zm22.163 1.997c3.4 1.07 6.86 2.485 10.452 4.237l.877-1.798c-3.666-1.787-7.218-3.242-10.728-4.347l-.601 1.908Zm20.402 9.701a199.15 199.15 0 0 1 4.84 3.018l1.08-1.682a200.305 200.305 0 0 0-4.887-3.049l-1.033 1.713Z" fill="#BBB"/></symbol><symbol fill="none" viewBox="0 0 18 66" id="easy-arrow-mobile" xmlns="http://www.w3.org/2000/svg"><path d="M2.397.696a.5.5 0 0 0-.794.608l.794-.608Zm-.895 64.349a.5.5 0 0 0 .543.453l4.482-.404a.5.5 0 1 0-.09-.996l-3.984.36-.359-3.985a.5.5 0 0 0-.996.09l.404 4.482Zm.1-63.741a153.732 153.732 0 0 1 3.55 4.82l.817-.576A154.722 154.722 0 0 0 2.397.696l-.794.608Zm9.858 14.962c2.06 3.918 3.468 7.558 4.262 11.037l.975-.223c-.818-3.581-2.262-7.302-4.352-11.28l-.885.466Zm4.585 22.754c-.658 3.635-2.03 7.268-4.09 11.059l.879.477c2.099-3.862 3.514-7.596 4.195-11.358l-.983-.178ZM5.366 60.006a143.57 143.57 0 0 1-3.749 4.674l.768.64a144.491 144.491 0 0 0 3.774-4.705l-.794-.608ZM2.794.393a1 1 0 1 0-1.59 1.216L2.796.392ZM1.003 65.09a1 1 0 0 0 1.086.906l8.963-.808a1 1 0 0 0-.18-1.992l-7.967.718-.718-7.967a1 1 0 1 0-1.992.18l.808 8.963Zm.202-63.482a153.218 153.218 0 0 1 3.537 4.805L6.378 5.26A155.205 155.205 0 0 0 2.794.392L1.206 1.608Zm9.811 14.89c2.044 3.89 3.435 7.488 4.217 10.916l1.95-.445c-.829-3.633-2.291-7.395-4.397-11.401l-1.77.93Zm4.537 22.433c-.648 3.572-1.998 7.154-4.038 10.91l1.757.954c2.118-3.898 3.555-7.682 4.248-11.508l-1.968-.356ZM4.967 59.702a142.924 142.924 0 0 1-3.736 4.657l1.536 1.282a145.138 145.138 0 0 0 3.787-4.722l-1.587-1.217Z" fill="#BBB"/></symbol><symbol fill="none" viewBox="0 0 26 26" id="form-arrow" xmlns="http://www.w3.org/2000/svg"><path d="M18.417 9.934a1.083 1.083 0 0 0-1.528 0L13 13.77 9.165 9.934a1.083 1.083 0 1 0-1.527 1.539l4.593 4.593a1.083 1.083 0 0 0 1.538 0l4.648-4.593a1.084 1.084 0 0 0 0-1.539Z" fill="#BBB"/></symbol><symbol fill="none" viewBox="0 0 16 88" id="how-arrow-1" xmlns="http://www.w3.org/2000/svg"><path d="M8.707.293a1 1 0 0 0-1.414 0L.929 6.657A1 1 0 0 0 2.343 8.07L8 2.414l5.657 5.657a1 1 0 1 0 1.414-1.414L8.707.293ZM7 87a1 1 0 1 0 2 0H7Zm2-5.374a1 1 0 1 0-2 0h2ZM7 70.88a1 1 0 1 0 2 0H7Zm2-10.748a1 1 0 0 0-2 0h2ZM7 49.384a1 1 0 1 0 2 0H7Zm2-10.746a1 1 0 1 0-2 0h2Zm-2-10.76a1 1 0 1 0 2 0H7Zm2-10.752a1 1 0 1 0-2 0h2ZM7 6.39a1 1 0 0 0 2 0H7ZM9 87v-5.374H7V87h2Zm0-16.12V60.132H7V70.88h2Zm0-21.496V38.638H7v10.746h2Zm0-21.506V17.126H7v10.752h2ZM9 6.39V1H7v5.39h2Z" fill="#BBB"/></symbol><symbol fill="none" viewBox="0 0 186 131" id="how-arrow-2" xmlns="http://www.w3.org/2000/svg"><path d="M185.707 8.707a1 1 0 0 0 0-1.414L179.343.929a1 1 0 1 0-1.414 1.414L183.586 8l-5.657 5.657a1 1 0 1 0 1.414 1.414l6.364-6.364ZM0 130a1 1 0 0 0 2 0H0ZM178.891 7.07a1 1 0 1 0 .046 2l-.046-2Zm-12.084 2.553a1 1 0 0 0-.136-1.995l.136 1.995Zm-12.318-.897a1 1 0 1 0 .223 1.987l-.223-1.987Zm-11.813 3.604a1 1 0 1 0-.31-1.976l.31 1.976Zm-12.349.181a1 1 0 1 0 .396 1.96l-.396-1.96Zm-11.449 4.633a1 1 0 1 0-.484-1.94l.484 1.94Zm-12.282 1.3a1 1 0 1 0 .576 1.916l-.576-1.915Zm-10.958 5.694a1 1 0 1 0-.67-1.884l.67 1.884Zm-12.09 2.523a1 1 0 1 0 .77 1.846l-.77-1.846Zm-10.284 6.837a1 1 0 1 0-.877-1.798l.877 1.798Zm-11.709 3.915a1 1 0 0 0 .99 1.737l-.99-1.737Zm-9.323 8.104a1 1 0 0 0-1.111-1.663l1.111 1.663ZM41.21 51.065a1 1 0 0 0 1.242 1.568l-1.242-1.568Zm-7.896 9.492a1 1 0 0 0-1.38-1.448l1.38 1.448Zm-9.841 7.46a1 1 0 1 0 1.52 1.3l-1.52-1.3Zm-5.789 10.895a1 1 0 1 0-1.659-1.118l1.659 1.118Zm-7.884 9.495a1 1 0 1 0 1.787.9l-1.787-.9Zm-2.906 11.99a1 1 0 0 0-1.89-.654l1.89.654ZM1.785 111.62a1 1 0 1 0 1.961.391l-1.961-.391Zm.406 12.338a1 1 0 0 0-1.996-.127l1.996.127ZM185 7c-2.029 0-4.066.024-6.109.07l.046 2C180.965 9.023 182.986 9 185 9V7Zm-18.329.628c-4.051.275-8.116.641-12.182 1.098l.223 1.987c4.037-.453 8.073-.816 12.095-1.09l-.136-1.995Zm-24.305 2.726c-4.026.63-8.043 1.35-12.039 2.157l.396 1.96a275.691 275.691 0 0 1 11.953-2.141l-.31-1.976Zm-23.972 4.85c-3.969.99-7.905 2.071-11.798 3.24l.576 1.916a257.161 257.161 0 0 1 11.706-3.216l-.484-1.94Zm-23.426 7.05a228.393 228.393 0 0 0-11.42 4.407l.77 1.846a226.399 226.399 0 0 1 11.32-4.369l-.67-1.884ZM72.388 31.7a190.829 190.829 0 0 0-10.833 5.713l.99 1.737a188.825 188.825 0 0 1 10.719-5.652l-.877-1.798ZM51.12 43.855a152.572 152.572 0 0 0-9.911 7.21l1.242 1.568a150.576 150.576 0 0 1 9.781-7.116l-1.111-1.663ZM31.934 59.108a119.795 119.795 0 0 0-8.462 8.908l1.52 1.3a117.798 117.798 0 0 1 8.32-8.76l-1.378-1.448Zm-15.91 18.685a97.73 97.73 0 0 0-6.225 10.613l1.787.9a95.724 95.724 0 0 1 6.097-10.395l-1.659-1.118Zm-11.02 21.95a90.244 90.244 0 0 0-3.22 11.876l1.962.391a88.173 88.173 0 0 1 3.147-11.614l-1.89-.654ZM.193 123.83A97.123 97.123 0 0 0 0 130h2c0-2.04.064-4.054.19-6.042l-1.995-.127Z" fill="#BBB"/></symbol><symbol fill="none" viewBox="0 0 193 124" id="how-arrow-3" xmlns="http://www.w3.org/2000/svg"><path d="M1 2a1 1 0 0 1 0-2v2Zm184.707 121.707a.999.999 0 0 1-1.414 0l-6.364-6.364a.999.999 0 1 1 1.414-1.414l5.657 5.657 5.657-5.657a.999.999 0 1 1 1.414 1.414l-6.364 6.364ZM7.109.071a1 1 0 0 1-.046 2l.046-2Zm12.084 2.552A1 1 0 0 1 19.33.628l-.136 1.995Zm12.318-.897a1 1 0 1 1-.223 1.987l.223-1.987ZM43.324 5.33a1 1 0 0 1 .31-1.976l-.31 1.976Zm12.35.181a1 1 0 1 1-.397 1.96l.396-1.96Zm11.448 4.633a1 1 0 1 1 .484-1.94l-.484 1.94Zm12.282 1.3a1 1 0 0 1-.576 1.916l.576-1.915Zm10.958 5.694a1 1 0 1 1 .67-1.884l-.67 1.884Zm12.09 2.523a1 1 0 0 1-.77 1.846l.77-1.846Zm10.284 6.837a1 1 0 1 1 .877-1.798l-.877 1.798Zm11.709 3.915a1 1 0 0 1-.991 1.737l.991-1.737Zm9.323 8.104a1 1 0 1 1 1.112-1.663l-1.112 1.663Zm11.023 5.548a1 1 0 1 1-1.242 1.568l1.242-1.568Zm7.896 9.492a1 1 0 0 1 1.379-1.448l-1.379 1.448Zm9.841 7.46a1 1 0 1 1-1.52 1.3l1.52-1.3Zm5.789 10.895a1 1 0 0 1 1.659-1.118l-1.659 1.118Zm7.884 9.495a1 1 0 0 1-1.786.9l1.786-.9Zm2.906 11.99a1 1 0 1 1 1.89-.654l-1.89.654Zm5.108 11.223a.999.999 0 1 1-1.961.391l1.961-.391Zm-.406 12.338a1.001 1.001 0 0 1 1.996-.127l-1.996.127ZM1 0c2.029 0 4.066.024 6.11.07l-.047 2A263.22 263.22 0 0 0 1 2V0Zm18.329.628c4.051.275 8.116.641 12.182 1.098l-.223 1.987a277.103 277.103 0 0 0-12.095-1.09L19.33.628Zm24.305 2.726c4.026.63 8.043 1.35 12.04 2.157l-.397 1.96A275.618 275.618 0 0 0 43.324 5.33l.31-1.976Zm23.972 4.85c3.969.99 7.905 2.071 11.798 3.24l-.576 1.916a257.4 257.4 0 0 0-11.706-3.216l.484-1.94Zm23.426 7.05a228.351 228.351 0 0 1 11.42 4.407l-.77 1.846a226.523 226.523 0 0 0-11.32-4.369l.67-1.884Zm22.581 9.446a191.343 191.343 0 0 1 10.832 5.713l-.991 1.737a188.61 188.61 0 0 0-10.718-5.652l.877-1.798Zm21.267 12.155c3.433 2.296 6.742 4.7 9.911 7.21l-1.242 1.568a150.59 150.59 0 0 0-9.781-7.116l1.112-1.663Zm19.186 15.254a119.635 119.635 0 0 1 8.462 8.908l-1.52 1.3a117.765 117.765 0 0 0-8.321-8.76l1.379-1.448Zm15.91 18.685a97.822 97.822 0 0 1 6.225 10.613l-1.786.9a95.826 95.826 0 0 0-6.098-10.395l1.659-1.118Zm11.021 21.95a90.262 90.262 0 0 1 3.218 11.876l-1.961.391a88.139 88.139 0 0 0-3.147-11.614l1.89-.654Zm4.808 24.087A97.29 97.29 0 0 1 186 123h-2c0-2.04-.064-4.054-.191-6.042l1.996-.127Z" fill="#BBB"/></symbol><symbol fill="none" viewBox="0 0 16 88" id="how-arrow-4" xmlns="http://www.w3.org/2000/svg"><path d="M9 1a1 1 0 0 0-2 0h2ZM7.293 87.707a1 1 0 0 0 1.414 0l6.364-6.364a1 1 0 0 0-1.414-1.414L8 85.586l-5.657-5.657A1 1 0 0 0 .93 81.343l6.364 6.364ZM9 81.626a1 1 0 1 0-2 0h2ZM7 70.88a1 1 0 1 0 2 0H7Zm2-10.748a1 1 0 0 0-2 0h2ZM7 49.384a1 1 0 1 0 2 0H7Zm2-10.746a1 1 0 1 0-2 0h2Zm-2-10.76a1 1 0 1 0 2 0H7Zm2-10.752a1 1 0 1 0-2 0h2ZM7 6.39a1 1 0 0 0 2 0H7ZM9 87v-5.374H7V87h2Zm0-16.12V60.132H7V70.88h2Zm0-21.496V38.638H7v10.746h2Zm0-21.506V17.126H7v10.752h2ZM9 6.39V1H7v5.39h2Z" fill="#BBB"/></symbol><symbol fill="none" viewBox="0 0 22 96" id="how-mobile-arrow" xmlns="http://www.w3.org/2000/svg"><path d="M18.576.735a.5.5 0 0 1 .848.53l-.848-.53Zm.915 94.358a.5.5 0 0 1-.584.398l-4.421-.836a.5.5 0 1 1 .185-.983l3.93.744.744-3.93a.5.5 0 1 1 .983.185l-.837 4.422Zm-.067-93.828a237.663 237.663 0 0 0-3.316 5.461l-.862-.507a238.813 238.813 0 0 1 3.33-5.484l.848.53Zm-9.373 16.639c-2.004 4.089-3.644 7.97-4.932 11.696l-.946-.327c1.305-3.77 2.961-7.69 4.98-11.81l.898.44Zm-7.993 23.96c-.624 4.308-.72 8.473-.31 12.603l-.995.1c-.42-4.214-.32-8.46.316-12.846l.99.144Zm2.404 24.927c1.274 3.787 2.953 7.636 5.023 11.628l-.887.46c-2.09-4.028-3.79-7.925-5.083-11.77l.947-.318Zm11.43 22.608a219.106 219.106 0 0 0 3.521 5.32l-.826.563a220.147 220.147 0 0 1-3.537-5.344l.842-.54Zm2.26-88.93a1 1 0 0 1 1.696 1.061L18.152.47Zm1.83 94.717a1 1 0 0 1-1.168.797L9.971 94.31a1 1 0 1 1 .372-1.965l7.86 1.487 1.487-7.861a1 1 0 0 1 1.965.372l-1.672 8.843ZM19.849 1.53a236.75 236.75 0 0 0-3.31 5.45l-1.723-1.015A239.39 239.39 0 0 1 18.152.47l1.696 1.06ZM10.5 18.123c-1.996 4.075-3.628 7.937-4.909 11.64l-1.89-.653c1.312-3.793 2.977-7.731 5.003-11.866l1.796.88ZM2.553 41.937c-.619 4.268-.714 8.392-.307 12.48l-1.99.199c-.424-4.255-.324-8.543.318-12.966l1.98.287ZM4.936 66.63C6.2 70.39 7.868 74.216 9.93 78.19l-1.775.92c-2.1-4.046-3.81-7.967-5.113-11.84l1.895-.638ZM16.314 89.13c1.109 1.733 2.28 3.5 3.512 5.308l-1.652 1.126a220.473 220.473 0 0 1-3.545-5.356l1.685-1.078Z" fill="#BBB"/></symbol><symbol fill="none" viewBox="0 0 16 16" id="mail" xmlns="http://www.w3.org/2000/svg"><path d="M12.667 2.667H3.333a2 2 0 0 0-2 2v6.666a2 2 0 0 0 2 2h9.334a2 2 0 0 0 2-2V4.667a2 2 0 0 0-2-2zM12.393 4l-3.92 3.92a.667.667 0 0 1-.946 0L3.607 4h8.786zm.94 7.333a.667.667 0 0 1-.666.667H3.333a.667.667 0 0 1-.666-.667V4.94l3.92 3.92a2 2 0 0 0 2.826 0l3.92-3.92v6.393z" fill="#fff"/></symbol><symbol fill="none" viewBox="0 0 30 30" id="ok" xmlns="http://www.w3.org/2000/svg"><path d="M17.468 20.891c1.509-.342 2.84-.9 4.038-1.644l-.053.03c.552-.356.91-.96.91-1.646 0-1.087-.9-1.967-2.01-1.967-.385 0-.745.106-1.05.289l.008-.006a8.764 8.764 0 0 1-4.617 1.296 8.815 8.815 0 0 1-4.653-1.316l.036.02a2.02 2.02 0 0 0-1.07-.302 2.02 2.02 0 0 0-1.694.907l-.004.007v.006A1.915 1.915 0 0 0 7 17.612c0 .697.37 1.308.929 1.656l.008.005a12.723 12.723 0 0 0 3.9 1.595l.086.017-3.841 3.753a1.925 1.925 0 0 0-.031 2.751l.033.033c.36.354.86.573 1.412.573a2.01 2.01 0 0 0 1.411-.573l3.788-3.688 3.765 3.69c.363.355.866.576 1.42.576 1.11 0 2.009-.88 2.009-1.965a1.94 1.94 0 0 0-.588-1.39l-3.833-3.754Zm-2.774-5.472c3.784-.004 6.851-3.006 6.851-6.71 0-3.705-3.07-6.709-6.858-6.709C10.9 2 7.83 5.004 7.83 8.71v.006c.008 3.703 3.078 6.703 6.865 6.703Zm0-9.487c1.569 0 2.84 1.244 2.84 2.778 0 1.535-1.271 2.779-2.84 2.779-1.567 0-2.838-1.242-2.84-2.774v-.002c0-1.535 1.271-2.78 2.84-2.781Z" fill="#fff"/></symbol><symbol fill="none" viewBox="0 0 16 16" id="phone" xmlns="http://www.w3.org/2000/svg"><path d="M12.94 8.667c-.147 0-.3-.047-.447-.08a6.575 6.575 0 0 1-.873-.26 1.333 1.333 0 0 0-1.653.666L9.82 9.3a8.78 8.78 0 0 1-1.78-1.333 8.78 8.78 0 0 1-1.333-1.78l.306-.14a1.333 1.333 0 0 0 .667-1.654 6.98 6.98 0 0 1-.26-.88c-.033-.146-.06-.3-.08-.446a2 2 0 0 0-2-1.66H3.333a2 2 0 0 0-1.493.666 2 2 0 0 0-.487 1.6 12.713 12.713 0 0 0 3.607 7.334 12.714 12.714 0 0 0 7.333 3.606c.087.007.174.007.26 0a2 2 0 0 0 1.827-1.182 2 2 0 0 0 .173-.818v-2a2 2 0 0 0-1.613-1.946Zm.327 4a.667.667 0 0 1-.767.66A11.44 11.44 0 0 1 5.92 10.1a11.44 11.44 0 0 1-3.253-6.6.667.667 0 0 1 .666-.767h2a.667.667 0 0 1 .667.52c0 .18.06.367.1.547.077.35.18.692.307 1.027l-.934.44a.667.667 0 0 0-.346.373.667.667 0 0 0 0 .507 9.66 9.66 0 0 0 4.666 4.666.667.667 0 0 0 .507 0 .667.667 0 0 0 .373-.346l.42-.934a8.273 8.273 0 0 0 1.594.407.667.667 0 0 1 .52.667l.06 2.06ZM9.333 1.333h-.466a.67.67 0 0 0 .113 1.334h.353a4 4 0 0 1 4 4v.353a.667.667 0 0 0 .607.72h.053a.667.667 0 0 0 .667-.607v-.466a5.334 5.334 0 0 0-5.327-5.334Zm1.334 5.334a.667.667 0 1 0 1.333 0A2.667 2.667 0 0 0 9.333 4a.667.667 0 0 0 0 1.333 1.333 1.333 0 0 1 1.334 1.334Z" fill="#fff"/></symbol><symbol fill="none" viewBox="0 0 30 30" id="telegram" xmlns="http://www.w3.org/2000/svg"><path d="m12.565 17.923-.404 5.898c.577 0 .827-.258 1.127-.567l2.704-2.689 5.605 4.269c1.028.596 1.752.282 2.029-.984l3.679-17.926v-.001c.327-1.58-.549-2.198-1.55-1.81L4.132 12.721c-1.476.596-1.454 1.451-.251 1.839l5.528 1.788 12.84-8.356c.605-.416 1.155-.186.703.23l-10.387 9.7Z" fill="#fff"/></symbol><symbol fill="none" viewBox="0 0 30 30" id="vk" xmlns="http://www.w3.org/2000/svg"><path d="M16.555 23.538c.72 0 1.014-.48 1.006-1.081-.037-2.265.844-3.485 2.433-1.896 1.759 1.759 2.123 2.977 4.258 2.977h3.782c.955 0 1.33-.307 1.33-.79 0-1.019-1.678-2.819-3.102-4.14-1.992-1.85-2.085-1.893-.37-4.12 2.13-2.764 4.913-6.306 2.45-6.306h-4.704c-.913 0-.979.514-1.304 1.28-1.176 2.774-3.41 6.366-4.26 5.817-.887-.573-.48-2.844-.413-6.218.018-.891.013-1.502-1.348-1.819A9.537 9.537 0 0 0 14.175 7c-2.686 0-4.54 1.126-3.487 1.322 1.857.347 1.679 4.364 1.246 6.099-.754 3.02-3.588-2.392-4.768-5.088-.285-.648-.373-1.151-1.39-1.151H1.93c-.581 0-.93.189-.93.61 0 .711 3.498 7.941 6.838 11.546 3.257 3.516 6.476 3.2 8.717 3.2Z" fill="#fff"/></symbol></svg>