<svg width="38" height="30" fill="none" xmlns="http://www.w3.org/2000/svg"><path d="M20.373 23.266c.72 0 1.014-.48 1.006-1.082-.037-2.265.844-3.485 2.433-1.895 1.759 1.758 2.123 2.977 4.258 2.977h3.782c.955 0 1.331-.308 1.331-.79 0-1.02-1.68-2.82-3.102-4.14-1.993-1.85-2.086-1.894-.37-4.12 2.128-2.765 4.913-6.307 2.45-6.307h-4.705c-.912 0-.979.514-1.304 1.28-1.176 2.774-3.41 6.367-4.259 5.817-.887-.573-.48-2.844-.414-6.218.018-.89.013-1.502-1.348-1.818a9.537 9.537 0 00-2.138-.243c-2.686 0-4.54 1.127-3.486 1.323 1.856.346 1.678 4.363 1.245 6.098-.754 3.02-3.588-2.392-4.768-5.088-.285-.647-.373-1.15-1.389-1.15H5.748c-.581 0-.93.188-.93.609 0 .711 3.498 7.942 6.838 11.546 3.257 3.516 6.476 3.2 8.717 3.2z" fill="#fff"/></svg>